<svg width="109" height="32" viewBox="0 0 109 32" fill="none" xmlns="http://www.w3.org/2000/svg">
<g clip-path="url(#clip0_3483_8669)">
<path d="M104.558 32H4.18359C2.09799 32 0.400391 30.2976 0.400391 28.2136V3.7808C0.400391 1.696 2.09799 0 4.18359 0H104.558C106.643 0 108.4 1.696 108.4 3.7808V28.2136C108.4 30.2976 106.643 32 104.558 32Z" fill="#A6A6A6"/>
<path d="M107.627 28.2172C107.627 29.91 106.256 31.2812 104.56 31.2812H4.18448C2.48928 31.2812 1.11328 29.91 1.11328 28.2172V3.78284C1.11328 2.09084 2.48928 0.714844 4.18448 0.714844H104.559C106.256 0.714844 107.626 2.09084 107.626 3.78284L107.627 28.2172Z" fill="black"/>
<path d="M24.5056 15.8328C24.4824 13.2544 26.6168 12 26.7144 11.9416C25.5056 10.1792 23.632 9.93843 22.9736 9.91923C21.4 9.75363 19.8736 10.8608 19.072 10.8608C18.2544 10.8608 17.02 9.93523 15.6896 9.96243C13.9776 9.98883 12.376 10.98 11.4976 12.5192C9.6848 15.6576 11.0368 20.2696 12.7736 22.8064C13.6424 24.0488 14.6576 25.436 15.9864 25.3872C17.2864 25.3336 17.772 24.5584 19.3408 24.5584C20.8952 24.5584 21.3512 25.3872 22.7064 25.356C24.1016 25.3336 24.98 24.108 25.8184 22.8544C26.8224 21.4304 27.2256 20.028 27.2416 19.956C27.2088 19.9448 24.532 18.9232 24.5056 15.8328Z" fill="white"/>
<path d="M21.9459 8.25167C22.6451 7.37727 23.1235 6.18767 22.9907 4.98047C21.9787 5.02527 20.7131 5.68047 19.9843 6.53567C19.3395 7.28927 18.7635 8.52447 18.9123 9.68607C20.0491 9.77087 21.2163 9.11247 21.9459 8.25167Z" fill="white"/>
<path d="M43.3161 25.2011H41.4993L40.5041 22.0739H37.0449L36.0969 25.2011H34.3281L37.7553 14.5547H39.8721L43.3161 25.2011ZM40.2041 20.7619L39.3041 17.9819C39.2089 17.6979 39.0305 17.0291 38.7673 15.9763H38.7353C38.6305 16.4291 38.4617 17.0979 38.2297 17.9819L37.3457 20.7619H40.2041Z" fill="white"/>
<path d="M52.1311 21.2688C52.1311 22.5744 51.7783 23.6064 51.0727 24.364C50.4407 25.0384 49.6559 25.3752 48.7191 25.3752C47.7079 25.3752 46.9815 25.012 46.5391 24.2856H46.5071V28.3296H44.8015V20.052C44.8015 19.2312 44.7799 18.3888 44.7383 17.5248H46.2383L46.3335 18.7416H46.3655C46.9343 17.8248 47.7975 17.3672 48.9559 17.3672C49.8615 17.3672 50.6175 17.7248 51.2223 18.4408C51.8287 19.1576 52.1311 20.1 52.1311 21.2688ZM50.3935 21.3312C50.3935 20.584 50.2255 19.968 49.8879 19.4832C49.5191 18.9776 49.0239 18.7248 48.4031 18.7248C47.9823 18.7248 47.5999 18.8656 47.2583 19.1432C46.9159 19.4232 46.6919 19.7888 46.5871 20.2416C46.5343 20.4528 46.5079 20.6256 46.5079 20.7616V22.0416C46.5079 22.6 46.6791 23.0712 47.0215 23.456C47.3639 23.8408 47.8087 24.0328 48.3559 24.0328C48.9983 24.0328 49.4983 23.7848 49.8559 23.2904C50.2143 22.7952 50.3935 22.1424 50.3935 21.3312Z" fill="white"/>
<path d="M60.9584 21.2688C60.9584 22.5744 60.6056 23.6064 59.8992 24.364C59.268 25.0384 58.4832 25.3752 57.5464 25.3752C56.5352 25.3752 55.8088 25.012 55.3672 24.2856H55.3352V28.3296H53.6296V20.052C53.6296 19.2312 53.608 18.3888 53.5664 17.5248H55.0664L55.1616 18.7416H55.1936C55.7616 17.8248 56.6248 17.3672 57.784 17.3672C58.6888 17.3672 59.4448 17.7248 60.0512 18.4408C60.6552 19.1576 60.9584 20.1 60.9584 21.2688ZM59.2208 21.3312C59.2208 20.584 59.052 19.968 58.7144 19.4832C58.3456 18.9776 57.852 18.7248 57.2304 18.7248C56.8088 18.7248 56.4272 18.8656 56.0848 19.1432C55.7424 19.4232 55.5192 19.7888 55.4144 20.2416C55.3624 20.4528 55.3352 20.6256 55.3352 20.7616V22.0416C55.3352 22.6 55.5064 23.0712 55.8472 23.456C56.1896 23.84 56.6344 24.0328 57.1832 24.0328C57.8256 24.0328 58.3256 23.7848 58.6832 23.2904C59.0416 22.7952 59.2208 22.1424 59.2208 21.3312Z" fill="white"/>
<path d="M70.8314 22.2152C70.8314 23.1208 70.517 23.8576 69.8858 24.4264C69.1922 25.048 68.2266 25.3584 66.9858 25.3584C65.8402 25.3584 64.9218 25.1376 64.2266 24.6952L64.6218 23.2736C65.3706 23.7264 66.1922 23.9536 67.0874 23.9536C67.7298 23.9536 68.2298 23.808 68.589 23.5184C68.9466 23.2288 69.125 22.84 69.125 22.3552C69.125 21.9232 68.9778 21.5592 68.6826 21.264C68.389 20.9688 67.8986 20.6944 67.2138 20.4408C65.3498 19.7456 64.4186 18.7272 64.4186 17.388C64.4186 16.5128 64.745 15.7952 65.3986 15.2368C66.0498 14.6776 66.9186 14.3984 68.005 14.3984C68.9738 14.3984 69.7786 14.5672 70.421 14.904L69.9946 16.2944C69.3946 15.968 68.7162 15.8048 67.957 15.8048C67.357 15.8048 66.8882 15.9528 66.5522 16.2472C66.2682 16.5104 66.1258 16.8312 66.1258 17.2112C66.1258 17.632 66.2882 17.98 66.6146 18.2536C66.8986 18.5064 67.4146 18.78 68.1634 19.0752C69.0794 19.444 69.7522 19.8752 70.185 20.3696C70.6162 20.8624 70.8314 21.4792 70.8314 22.2152Z" fill="white"/>
<path d="M76.4701 18.8061H74.5901V22.5333C74.5901 23.4813 74.9213 23.9549 75.5853 23.9549C75.8901 23.9549 76.1429 23.9285 76.3429 23.8757L76.3901 25.1709C76.0541 25.2965 75.6117 25.3597 75.0637 25.3597C74.3901 25.3597 73.8637 25.1541 73.4837 24.7437C73.1053 24.3325 72.9149 23.6429 72.9149 22.6741V18.8045H71.7949V17.5245H72.9149V16.1189L74.5901 15.6133V17.5245H76.4701V18.8061Z" fill="white"/>
<path d="M84.9547 21.2992C84.9547 22.4792 84.6171 23.448 83.9435 24.2056C83.2371 24.9856 82.2995 25.3744 81.1307 25.3744C80.0043 25.3744 79.1075 25.0008 78.4387 24.2536C77.7699 23.5064 77.4355 22.5632 77.4355 21.4264C77.4355 20.2368 77.7795 19.2624 78.4699 18.5048C79.1587 17.7464 80.0883 17.3672 81.2571 17.3672C82.3835 17.3672 83.2899 17.7408 83.9739 18.4888C84.6283 19.2144 84.9547 20.1512 84.9547 21.2992ZM83.1851 21.3544C83.1851 20.6464 83.0339 20.0392 82.7275 19.5328C82.3699 18.92 81.8587 18.6144 81.1963 18.6144C80.5107 18.6144 79.9899 18.9208 79.6323 19.5328C79.3259 20.04 79.1747 20.6568 79.1747 21.3864C79.1747 22.0944 79.3259 22.7016 79.6323 23.2072C80.0011 23.82 80.5163 24.1256 81.1811 24.1256C81.8323 24.1256 82.3435 23.8136 82.7123 23.1912C83.0267 22.6752 83.1851 22.0616 83.1851 21.3544Z" fill="white"/>
<path d="M90.4959 19.0248C90.3271 18.9936 90.1471 18.9776 89.9583 18.9776C89.3583 18.9776 88.8943 19.204 88.5679 19.6576C88.2839 20.0576 88.1415 20.5632 88.1415 21.1736V25.2016H86.4367L86.4527 19.9424C86.4527 19.0576 86.4311 18.252 86.3887 17.5256H87.8743L87.9367 18.9944H87.9839C88.1639 18.4896 88.4479 18.0832 88.8367 17.7784C89.2167 17.504 89.6271 17.3672 90.0695 17.3672C90.2271 17.3672 90.3695 17.3784 90.4959 17.3984V19.0248Z" fill="white"/>
<path d="M98.1251 20.9988C98.1251 21.3044 98.1051 21.562 98.0627 21.7724H92.9459C92.9659 22.5308 93.2131 23.1108 93.6883 23.5108C94.1195 23.8684 94.6771 24.0476 95.3619 24.0476C96.1195 24.0476 96.8107 23.9268 97.4323 23.6844L97.6995 24.8684C96.9731 25.1852 96.1155 25.3428 95.1259 25.3428C93.9355 25.3428 93.0011 24.9924 92.3211 24.2924C91.6427 23.5924 91.3027 22.6524 91.3027 21.4732C91.3027 20.3156 91.6187 19.3516 92.2515 18.5828C92.9139 17.762 93.8091 17.3516 94.9355 17.3516C96.0419 17.3516 96.8795 17.762 97.4483 18.5828C97.8987 19.2348 98.1251 20.0412 98.1251 20.9988ZM96.4987 20.5564C96.5099 20.0508 96.3987 19.614 96.1675 19.2452C95.8723 18.7708 95.4187 18.534 94.8083 18.534C94.2507 18.534 93.7971 18.7652 93.4507 19.2292C93.1667 19.598 92.9979 20.0404 92.9459 20.5556H96.4987V20.5564Z" fill="white"/>
<path d="M39.6449 8.00696C39.6449 8.94856 39.3625 9.65736 38.7985 10.1334C38.2761 10.5726 37.5337 10.7926 36.5721 10.7926C36.0953 10.7926 35.6873 10.7718 35.3457 10.7302V5.58536C35.7913 5.51336 36.2713 5.47656 36.7897 5.47656C37.7057 5.47656 38.3961 5.67576 38.8617 6.07416C39.3833 6.52456 39.6449 7.16856 39.6449 8.00696ZM38.7609 8.03016C38.7609 7.41976 38.5993 6.95176 38.2761 6.62536C37.9529 6.29976 37.4809 6.13656 36.8593 6.13656C36.5953 6.13656 36.3705 6.15416 36.1841 6.19096V10.1022C36.2873 10.1182 36.4761 10.1254 36.7505 10.1254C37.3921 10.1254 37.8873 9.94696 38.2361 9.59016C38.5849 9.23336 38.7609 8.71336 38.7609 8.03016Z" fill="white"/>
<path d="M44.3323 8.83354C44.3323 9.41354 44.1667 9.88874 43.8355 10.2615C43.4883 10.6447 43.0283 10.8359 42.4539 10.8359C41.9003 10.8359 41.4595 10.6527 41.1307 10.2847C40.8027 9.91754 40.6387 9.45434 40.6387 8.89594C40.6387 8.31194 40.8075 7.83274 41.1467 7.46074C41.4859 7.08874 41.9419 6.90234 42.5163 6.90234C43.0699 6.90234 43.5147 7.08554 43.8515 7.45274C44.1715 7.80954 44.3323 8.27034 44.3323 8.83354ZM43.4627 8.86074C43.4627 8.51274 43.3875 8.21434 43.2379 7.96554C43.0619 7.66474 42.8115 7.51434 42.4859 7.51434C42.1491 7.51434 41.8931 7.66474 41.7171 7.96554C41.5667 8.21434 41.4923 8.51754 41.4923 8.87594C41.4923 9.22394 41.5675 9.52234 41.7171 9.77114C41.8987 10.0719 42.1515 10.2223 42.4779 10.2223C42.7979 10.2223 43.0491 10.0695 43.2299 9.76314C43.3851 9.50954 43.4627 9.20874 43.4627 8.86074Z" fill="white"/>
<path d="M50.6163 6.97656L49.4363 10.7478H48.6683L48.1795 9.11016C48.0555 8.70136 47.9547 8.29496 47.8763 7.89176H47.8611C47.7883 8.30616 47.6875 8.71176 47.5579 9.11016L47.0387 10.7478H46.2619L45.1523 6.97656H46.0139L46.4403 8.76936C46.5435 9.19336 46.6283 9.59736 46.6963 9.97976H46.7115C46.7739 9.66456 46.8771 9.26296 47.0227 8.77736L47.5579 6.97736H48.2411L48.7539 8.73896C48.8779 9.16856 48.9787 9.58216 49.0563 9.98056H49.0795C49.1363 9.59256 49.2219 9.17896 49.3355 8.73896L49.7931 6.97736H50.6163V6.97656Z" fill="white"/>
<path d="M54.9638 10.7488H54.1254V8.58884C54.1254 7.92324 53.8726 7.59044 53.3654 7.59044C53.1166 7.59044 52.9158 7.68164 52.7598 7.86484C52.6054 8.04804 52.527 8.26404 52.527 8.51124V10.748H51.6886V8.05524C51.6886 7.72404 51.6782 7.36484 51.6582 6.97604H52.395L52.4342 7.56564H52.4574C52.555 7.38244 52.7006 7.23124 52.8918 7.11044C53.119 6.96964 53.3734 6.89844 53.6518 6.89844C54.0038 6.89844 54.2966 7.01204 54.5294 7.24004C54.819 7.51924 54.9638 7.93604 54.9638 8.48964V10.7488Z" fill="white"/>
<path d="M57.2751 10.7477H56.4375V5.24609H57.2751V10.7477Z" fill="white"/>
<path d="M62.2112 8.83354C62.2112 9.41354 62.0456 9.88874 61.7144 10.2615C61.3672 10.6447 60.9064 10.8359 60.3328 10.8359C59.7784 10.8359 59.3376 10.6527 59.0096 10.2847C58.6816 9.91754 58.5176 9.45434 58.5176 8.89594C58.5176 8.31194 58.6864 7.83274 59.0256 7.46074C59.3648 7.08874 59.8208 6.90234 60.3944 6.90234C60.9488 6.90234 61.3928 7.08554 61.7304 7.45274C62.0504 7.80954 62.2112 8.27034 62.2112 8.83354ZM61.3408 8.86074C61.3408 8.51274 61.2656 8.21434 61.116 7.96554C60.9408 7.66474 60.6896 7.51434 60.3648 7.51434C60.0272 7.51434 59.7712 7.66474 59.596 7.96554C59.4456 8.21434 59.3712 8.51754 59.3712 8.87594C59.3712 9.22394 59.4464 9.52234 59.596 9.77114C59.7776 10.0719 60.0304 10.2223 60.3568 10.2223C60.6768 10.2223 60.9272 10.0695 61.108 9.76314C61.264 9.50954 61.3408 9.20874 61.3408 8.86074Z" fill="white"/>
<path d="M66.2698 10.7503H65.517L65.4546 10.3159H65.4314C65.1738 10.6623 64.8066 10.8359 64.3298 10.8359C63.9738 10.8359 63.6858 10.7215 63.469 10.4943C63.2722 10.2879 63.1738 10.0311 63.1738 9.72634C63.1738 9.26554 63.3658 8.91434 63.7522 8.67114C64.1378 8.42794 64.6802 8.30874 65.3786 8.31434V8.24394C65.3786 7.74714 65.1178 7.49914 64.5954 7.49914C64.2234 7.49914 63.8954 7.59274 63.6122 7.77834L63.4418 7.22794C63.7922 7.01114 64.225 6.90234 64.7354 6.90234C65.721 6.90234 66.2154 7.42234 66.2154 8.46234V9.85114C66.2154 10.2279 66.2338 10.5279 66.2698 10.7503ZM65.3994 9.45434V8.87274C64.4746 8.85674 64.0122 9.11034 64.0122 9.63274C64.0122 9.82954 64.065 9.97674 64.173 10.0751C64.281 10.1735 64.4186 10.2223 64.5826 10.2223C64.7666 10.2223 64.9386 10.1639 65.0954 10.0479C65.253 9.93114 65.3498 9.78314 65.3858 9.60154C65.3946 9.56074 65.3994 9.51114 65.3994 9.45434Z" fill="white"/>
<path d="M71.0336 10.7477H70.2896L70.2504 10.1421H70.2272C69.9896 10.6029 69.5848 10.8333 69.016 10.8333C68.5616 10.8333 68.1832 10.6549 67.8832 10.2981C67.5832 9.94129 67.4336 9.47809 67.4336 8.90929C67.4336 8.29889 67.596 7.80449 67.9224 7.42689C68.2384 7.07489 68.6256 6.89889 69.0864 6.89889C69.5928 6.89889 69.9472 7.06929 70.1488 7.41089H70.1648V5.24609H71.004V9.73169C71.004 10.0989 71.0136 10.4373 71.0336 10.7477ZM70.1648 9.15729V8.52849C70.1648 8.41969 70.1568 8.33169 70.1416 8.26449C70.0944 8.06289 69.9928 7.89329 69.8384 7.75649C69.6824 7.61969 69.4944 7.55089 69.2776 7.55089C68.9648 7.55089 68.72 7.67489 68.54 7.92369C68.3616 8.17249 68.2712 8.49009 68.2712 8.87809C68.2712 9.25089 68.3568 9.55329 68.5288 9.78609C68.7104 10.0341 68.9552 10.1581 69.2616 10.1581C69.5368 10.1581 69.7568 10.0549 69.924 9.84769C70.0856 9.65649 70.1648 9.42609 70.1648 9.15729Z" fill="white"/>
<path d="M78.2034 8.83354C78.2034 9.41354 78.0378 9.88874 77.7066 10.2615C77.3594 10.6447 76.9002 10.8359 76.325 10.8359C75.7722 10.8359 75.3314 10.6527 75.0018 10.2847C74.6738 9.91754 74.5098 9.45434 74.5098 8.89594C74.5098 8.31194 74.6786 7.83274 75.0178 7.46074C75.357 7.08874 75.813 6.90234 76.3882 6.90234C76.941 6.90234 77.3866 7.08554 77.7226 7.45274C78.0426 7.80954 78.2034 8.27034 78.2034 8.83354ZM77.3346 8.86074C77.3346 8.51274 77.2594 8.21434 77.1098 7.96554C76.933 7.66474 76.6834 7.51434 76.357 7.51434C76.021 7.51434 75.765 7.66474 75.5882 7.96554C75.4378 8.21434 75.3634 8.51754 75.3634 8.87594C75.3634 9.22394 75.4386 9.52234 75.5882 9.77114C75.7698 10.0719 76.0226 10.2223 76.349 10.2223C76.669 10.2223 76.921 10.0695 77.1018 9.76314C77.2562 9.50954 77.3346 9.20874 77.3346 8.86074Z" fill="white"/>
<path d="M82.7111 10.7488H81.8734V8.58884C81.8734 7.92324 81.6207 7.59044 81.1127 7.59044C80.8639 7.59044 80.663 7.68164 80.5078 7.86484C80.3526 8.04804 80.275 8.26404 80.275 8.51124V10.748H79.4359V8.05524C79.4359 7.72404 79.4263 7.36484 79.4062 6.97604H80.1422L80.1815 7.56564H80.2047C80.3031 7.38244 80.4487 7.23124 80.6391 7.11044C80.8671 6.96964 81.1207 6.89844 81.3999 6.89844C81.7511 6.89844 82.0438 7.01204 82.2766 7.24004C82.567 7.51924 82.7111 7.93604 82.7111 8.48964V10.7488Z" fill="white"/>
<path d="M88.3534 7.60236H87.4302V9.43436C87.4302 9.89996 87.5942 10.1328 87.919 10.1328C88.0694 10.1328 88.1942 10.12 88.2926 10.0936L88.3142 10.7296C88.1486 10.792 87.931 10.8232 87.663 10.8232C87.3318 10.8232 87.0742 10.7224 86.8878 10.5208C86.7006 10.3192 86.6078 9.97996 86.6078 9.50396V7.60236H86.0566V6.97436H86.6078V6.28316L87.4294 6.03516V6.97356H88.3526V7.60236H88.3534Z" fill="white"/>
<path d="M92.7928 10.7477H91.9536V8.60369C91.9536 7.92769 91.7008 7.58929 91.1944 7.58929C90.8056 7.58929 90.54 7.78529 90.3944 8.17729C90.3696 8.25969 90.3552 8.36049 90.3552 8.47889V10.7469H89.5176V5.24609H90.3552V7.51889H90.3712C90.6352 7.10529 91.0136 6.89889 91.504 6.89889C91.8512 6.89889 92.1384 7.01249 92.3664 7.24049C92.6504 7.52449 92.7928 7.94689 92.7928 8.50529V10.7477Z" fill="white"/>
<path d="M97.3704 8.68573C97.3704 8.83613 97.3592 8.96253 97.3392 9.06573H94.8248C94.836 9.43853 94.956 9.72253 95.1888 9.91933C95.4016 10.0953 95.676 10.1833 96.012 10.1833C96.384 10.1833 96.7232 10.1241 97.0288 10.0049L97.16 10.5873C96.8024 10.7425 96.3816 10.8201 95.8944 10.8201C95.3104 10.8201 94.8504 10.6481 94.5176 10.3041C94.1832 9.96013 94.0176 9.49853 94.0176 8.91933C94.0176 8.35053 94.172 7.87693 94.4832 7.49933C94.808 7.09613 95.2472 6.89453 95.8016 6.89453C96.344 6.89453 96.756 7.09613 97.0344 7.49933C97.2592 7.81933 97.3704 8.21533 97.3704 8.68573ZM96.5704 8.46893C96.5768 8.22013 96.5216 8.00573 96.408 7.82493C96.2624 7.59213 96.0408 7.47533 95.7408 7.47533C95.4672 7.47533 95.244 7.58893 95.0736 7.81693C94.9344 7.99853 94.852 8.21533 94.8248 8.46893H96.5704Z" fill="white"/>
</g>
<defs>
<clipPath id="clip0_3483_8669">
<rect width="108" height="32" fill="white" transform="translate(0.402344)"/>
</clipPath>
</defs>
</svg>
