<svg width="16" height="16" viewBox="0 0 16 16" fill="none" xmlns="http://www.w3.org/2000/svg">
<path d="M5.78951 15.9994C3.40823 15.9856 1.43848 11.1246 1.43848 8.64905C1.43848 4.60517 4.47207 3.71986 5.6412 3.71986C6.16807 3.71986 6.73066 3.92677 7.22688 4.10986C7.57388 4.23758 7.93276 4.36942 8.13235 4.36942C8.25182 4.36942 8.53335 4.25727 8.78191 4.15886C9.31201 3.94783 9.97163 3.68555 10.7398 3.68555C10.7411 3.68555 10.743 3.68555 10.7443 3.68555C11.3179 3.68555 13.0569 3.81142 14.1025 5.38155L14.3474 5.74958L13.9949 6.01555C13.4914 6.39548 12.5726 7.08855 12.5726 8.46139C12.5726 10.0874 13.6131 10.7127 14.113 11.0134C14.3337 11.1462 14.5621 11.283 14.5621 11.5824C14.5621 11.7779 13.002 15.9751 10.7365 15.9751C10.1822 15.9751 9.79035 15.8085 9.44473 15.6615C9.09501 15.5128 8.79332 15.3846 8.29482 15.3846C8.04213 15.3846 7.7226 15.5041 7.38432 15.6309C6.92204 15.8034 6.39879 15.9994 5.80507 15.9994H5.78951Z" fill="black"/>
<path d="M10.9795 0C11.0385 2.12737 9.51713 3.60325 7.9975 3.51069C7.74709 1.81297 9.51694 0 10.9795 0Z" fill="black"/>
</svg>
