<svg width="39" height="13" viewBox="0 0 39 13" fill="none" xmlns="http://www.w3.org/2000/svg">
<path d="M6.692 7.788H2.716L1.89 10H0.21L3.92 0.199999H5.6L9.31 10H7.518L6.692 7.788ZM3.262 6.332H6.146L4.718 2.3L3.262 6.332ZM10.4956 2.58H11.9236V3.826C12.1476 3.39667 12.479 3.056 12.9176 2.804C13.3656 2.552 13.8696 2.426 14.4296 2.426C15.4003 2.426 16.1656 2.72933 16.7256 3.336C17.2856 3.94267 17.5656 4.85733 17.5656 6.08V6.36C17.5656 6.99467 17.491 7.55 17.3416 8.026C17.1923 8.502 16.9776 8.89867 16.6976 9.216C16.427 9.524 16.1003 9.75733 15.7176 9.916C15.335 10.0747 14.9056 10.154 14.4296 10.154C13.8976 10.154 13.4123 10.0373 12.9736 9.804C12.535 9.57067 12.2223 9.244 12.0356 8.824V12.8H10.4956V2.58ZM14.0656 8.81C14.6443 8.81 15.111 8.60933 15.4656 8.208C15.8203 7.80667 15.9976 7.19067 15.9976 6.36V6.08C15.9976 5.296 15.825 4.71733 15.4796 4.344C15.1343 3.96133 14.663 3.77 14.0656 3.77C13.8043 3.77 13.5523 3.812 13.3096 3.896C13.067 3.98 12.8476 4.106 12.6516 4.274C12.465 4.43267 12.3156 4.638 12.2036 4.89C12.0916 5.13267 12.0356 5.41267 12.0356 5.73V6.71C12.0356 7.06467 12.0916 7.37267 12.2036 7.634C12.3156 7.89533 12.465 8.11467 12.6516 8.292C12.8383 8.46933 13.053 8.6 13.2956 8.684C13.5383 8.768 13.795 8.81 14.0656 8.81ZM19.1089 2.58H20.5369V3.826C20.7609 3.39667 21.0922 3.056 21.5309 2.804C21.9789 2.552 22.4829 2.426 23.0429 2.426C24.0136 2.426 24.7789 2.72933 25.3389 3.336C25.8989 3.94267 26.1789 4.85733 26.1789 6.08V6.36C26.1789 6.99467 26.1042 7.55 25.9549 8.026C25.8056 8.502 25.5909 8.89867 25.3109 9.216C25.0402 9.524 24.7136 9.75733 24.3309 9.916C23.9482 10.0747 23.5189 10.154 23.0429 10.154C22.5109 10.154 22.0256 10.0373 21.5869 9.804C21.1482 9.57067 20.8356 9.244 20.6489 8.824V12.8H19.1089V2.58ZM22.6789 8.81C23.2576 8.81 23.7242 8.60933 24.0789 8.208C24.4336 7.80667 24.6109 7.19067 24.6109 6.36V6.08C24.6109 5.296 24.4382 4.71733 24.0929 4.344C23.7476 3.96133 23.2762 3.77 22.6789 3.77C22.4176 3.77 22.1656 3.812 21.9229 3.896C21.6802 3.98 21.4609 4.106 21.2649 4.274C21.0782 4.43267 20.9289 4.638 20.8169 4.89C20.7049 5.13267 20.6489 5.41267 20.6489 5.73V6.71C20.6489 7.06467 20.7049 7.37267 20.8169 7.634C20.9289 7.89533 21.0782 8.11467 21.2649 8.292C21.4516 8.46933 21.6662 8.6 21.9089 8.684C22.1516 8.768 22.4082 8.81 22.6789 8.81ZM30.1022 10.07C29.7009 10.07 29.3555 10.028 29.0662 9.944C28.7769 9.86 28.5342 9.72467 28.3382 9.538C28.1515 9.342 28.0115 9.09 27.9182 8.782C27.8342 8.46467 27.7922 8.082 27.7922 7.634V0.199999H29.3322V7.522C29.3322 7.97933 29.4069 8.29667 29.5562 8.474C29.7055 8.642 29.9809 8.726 30.3822 8.726C30.4849 8.726 30.5735 8.726 30.6482 8.726C30.7229 8.71667 30.7975 8.70733 30.8722 8.698V10.028C30.7975 10.0467 30.6762 10.056 30.5082 10.056C30.3402 10.0653 30.2049 10.07 30.1022 10.07ZM35.3582 10.154C34.8635 10.154 34.3969 10.0793 33.9582 9.93C33.5195 9.77133 33.1322 9.538 32.7962 9.23C32.4695 8.91267 32.2082 8.516 32.0122 8.04C31.8162 7.564 31.7182 7.004 31.7182 6.36V6.08C31.7182 5.464 31.8115 4.92733 31.9982 4.47C32.1849 4.01267 32.4369 3.63467 32.7542 3.336C33.0809 3.028 33.4542 2.79933 33.8742 2.65C34.2942 2.50067 34.7422 2.426 35.2182 2.426C36.3475 2.426 37.2109 2.72933 37.8082 3.336C38.4149 3.94267 38.7182 4.81067 38.7182 5.94V6.724H33.2862C33.2955 7.10667 33.3562 7.43333 33.4682 7.704C33.5895 7.96533 33.7435 8.18 33.9302 8.348C34.1262 8.50667 34.3455 8.62333 34.5882 8.698C34.8402 8.77267 35.0969 8.81 35.3582 8.81C35.8902 8.81 36.2775 8.726 36.5202 8.558C36.7722 8.39 36.9449 8.17067 37.0382 7.9H38.5782C38.4289 8.63733 38.0602 9.19733 37.4722 9.58C36.8935 9.96267 36.1889 10.154 35.3582 10.154ZM35.2882 3.77C35.0269 3.77 34.7749 3.80267 34.5322 3.868C34.2989 3.93333 34.0889 4.04067 33.9022 4.19C33.7249 4.33 33.5802 4.51667 33.4682 4.75C33.3562 4.974 33.2955 5.24933 33.2862 5.576H37.1782C37.1689 5.23067 37.1129 4.94133 37.0102 4.708C36.9169 4.47467 36.7862 4.288 36.6182 4.148C36.4502 4.008 36.2495 3.91 36.0162 3.854C35.7922 3.798 35.5495 3.77 35.2882 3.77Z" fill="black"/>
</svg>
