<svg width="28" height="28" viewBox="0 0 28 28" fill="none" xmlns="http://www.w3.org/2000/svg">
<g clip-path="url(#clip0)">
<path d="M25.9985 18C25.4462 18 24.9985 18.4477 24.9985 19V25C24.9985 25.5523 24.5508 26 23.9985 26H3.99859C3.44629 26 2.99857 25.5523 2.99857 25V19C2.99857 18.4477 2.55086 18 1.99855 18C1.44625 18 0.998535 18.4477 0.998535 19V25C0.998535 26.6569 2.34168 28 3.99853 28H23.9986C25.6554 28 26.9986 26.6569 26.9986 25V19C26.9986 18.4477 26.5508 18 25.9985 18Z" fill="#2F2A2C"/>
<path d="M19.684 17.293C19.2964 16.9188 18.6821 16.9188 18.2946 17.293L14.9996 20.586V1.00002C14.9996 0.447715 14.5519 0 13.9996 0C13.4473 0 12.9996 0.447715 12.9996 1.00002V20.586L9.70654 17.293C9.30928 16.9093 8.67623 16.9203 8.29256 17.3175C7.91827 17.7051 7.91827 18.3194 8.29256 18.707L13.2925 23.707C13.6826 24.098 14.3157 24.0988 14.7067 23.7088C14.7073 23.7082 14.7079 23.7076 14.7086 23.707L19.7085 18.707C20.0923 18.3097 20.0812 17.6767 19.684 17.293Z" fill="#2F2A2C"/>
</g>
<defs>
<clipPath id="clip0">
<rect width="28" height="28" fill="white"/>
</clipPath>
</defs>
</svg>
