<svg width="18" height="14" viewBox="0 0 18 14" fill="none" xmlns="http://www.w3.org/2000/svg">
<path d="M8.43735 3.62534H6.74982V0.812799C6.74982 0.57992 6.60695 0.371792 6.39094 0.287415C6.17494 0.204164 5.92856 0.262665 5.77106 0.434793L0.145971 6.62239C-0.048657 6.83614 -0.048657 7.16352 0.145971 7.3784L5.77106 13.566C5.88019 13.6852 6.03206 13.7505 6.18732 13.7505C6.25594 13.7505 6.32457 13.7381 6.39094 13.7134C6.60695 13.629 6.74982 13.4209 6.74982 13.188V10.3754H8.31472C11.5255 10.3754 14.6351 11.5252 17.0719 13.6155C17.2372 13.7584 17.4746 13.791 17.6726 13.6987C17.8729 13.6076 18 13.4074 18 13.188C18 7.91503 13.7103 3.62534 8.43735 3.62534ZM8.31472 9.25043H6.18732C5.87681 9.25043 5.62481 9.50243 5.62481 9.81294V11.7333L1.32274 7.00039L5.62481 2.26745V4.18785C5.62481 4.49836 5.87681 4.75036 6.18732 4.75036H8.43735C10.6908 4.75036 12.8103 5.62787 14.4033 7.2209C15.705 8.52254 16.5296 10.1752 16.7872 11.964C14.3234 10.2067 11.3613 9.25043 8.31472 9.25043Z" fill="#2F2A2C"/>
</svg>
