<svg width="20" height="20" viewBox="0 0 20 20" fill="none" xmlns="http://www.w3.org/2000/svg">
<path d="M16.8359 9.08789H15.2539C15.164 9.08789 15.0781 9.12695 15.0176 9.19531L10.7422 14.123V3.125C10.7422 3.03906 10.6719 2.96875 10.5859 2.96875H9.41404C9.3281 2.96875 9.25779 3.03906 9.25779 3.125V14.123L4.9824 9.19531C4.92381 9.12695 4.83787 9.08789 4.74607 9.08789H3.16404C3.03123 9.08789 2.95896 9.24609 3.04685 9.3457L9.52927 16.8164C9.58787 16.884 9.66031 16.9382 9.7417 16.9754C9.82308 17.0125 9.91149 17.0318 10.001 17.0318C10.0904 17.0318 10.1788 17.0125 10.2602 16.9754C10.3416 16.9382 10.414 16.884 10.4726 16.8164L16.9531 9.3457C17.041 9.24414 16.9687 9.08789 16.8359 9.08789Z" fill="black"/>
</svg>
