<svg width="28" height="28" viewBox="0 0 28 28" fill="none" xmlns="http://www.w3.org/2000/svg">
<g clip-path="url(#clip0)">
<path d="M18.4317 23.0123C18.4773 23.0199 18.5227 23.0236 18.5675 23.0236C18.9613 23.0236 19.3088 22.7392 19.3757 22.338L20.196 17.4161C20.2705 16.9693 19.9686 16.5466 19.5217 16.4721C19.0748 16.3974 18.6522 16.6995 18.5777 17.1464L17.7574 22.0683C17.6829 22.5152 17.9848 22.9379 18.4317 23.0123Z" fill="#2F2A2C"/>
<path d="M8.67926 22.338C8.74614 22.7392 9.09363 23.0236 9.48743 23.0236C9.53222 23.0236 9.57761 23.0199 9.62328 23.0123C10.0702 22.9378 10.3721 22.5152 10.2976 22.0683L9.47726 17.1464C9.40278 16.6995 8.98021 16.3977 8.53324 16.4721C8.08634 16.5466 7.78446 16.9692 7.85895 17.4161L8.67926 22.338Z" fill="#2F2A2C"/>
<path d="M27.1797 9.89843H24.2927L17.9765 2.00319C17.6935 1.64953 17.1773 1.59205 16.8235 1.87512C16.4697 2.15812 16.4124 2.67432 16.6954 3.02809L22.1917 9.89843H5.8083L11.3046 3.02809C11.5876 2.67432 11.5303 2.15807 11.1765 1.87512C10.8227 1.59205 10.3065 1.64947 10.0236 2.00319L3.70732 9.89843H0.820312C0.367281 9.89843 0 10.2657 0 10.7187V14C0 14.453 0.367281 14.8203 0.820312 14.8203H1.8422L4.95348 25.7097C5.05405 26.0619 5.37595 26.3047 5.74219 26.3047H22.2578C22.6241 26.3047 22.9459 26.0619 23.0466 25.7097L26.1578 14.8203H27.1797C27.6327 14.8203 28 14.453 28 14V10.7187C28 10.2657 27.6327 9.89843 27.1797 9.89843ZM21.6391 24.6641H6.36092L3.54845 14.8203H24.4516L21.6391 24.6641ZM26.3594 13.1797C23.5493 13.1797 4.30281 13.1797 1.64062 13.1797V11.5391H26.3594V13.1797Z" fill="#2F2A2C"/>
<path d="M14 23.0234C14.453 23.0234 14.8203 22.6562 14.8203 22.2031V17.2812C14.8203 16.8282 14.453 16.4609 14 16.4609C13.547 16.4609 13.1797 16.8282 13.1797 17.2812V22.2031C13.1797 22.6562 13.547 23.0234 14 23.0234Z" fill="#2F2A2C"/>
</g>
<defs>
<clipPath id="clip0">
<rect width="28" height="28" fill="white"/>
</clipPath>
</defs>
</svg>
