<svg width="20" height="19" viewBox="0 0 20 19" fill="none" xmlns="http://www.w3.org/2000/svg">
<g clip-path="url(#clip0)">
<path d="M13.1654 15.6156C13.198 15.6208 13.2304 15.6233 13.2624 15.6233C13.5436 15.6233 13.7919 15.4303 13.8397 15.158L14.4256 11.8182C14.4788 11.515 14.2632 11.2282 13.944 11.1776C13.6247 11.1269 13.3229 11.3319 13.2697 11.6352L12.6837 14.975C12.6305 15.2783 12.8461 15.5651 13.1654 15.6156Z" fill="#2F2A2C"/>
<path d="M6.19935 15.158C6.24712 15.4303 6.49533 15.6232 6.77662 15.6232C6.80861 15.6232 6.84103 15.6208 6.87365 15.6156C7.19287 15.565 7.40849 15.2782 7.35529 14.975L6.76935 11.6351C6.71615 11.3319 6.41431 11.1271 6.09505 11.1776C5.77583 11.2281 5.56021 11.5149 5.61341 11.8182L6.19935 15.158Z" fill="#2F2A2C"/>
<path d="M19.4141 6.71679H17.3519L12.8404 1.35931C12.6382 1.11932 12.2695 1.08032 12.0168 1.2724C11.7641 1.46444 11.7231 1.81472 11.9253 2.05478L15.8512 6.71679H4.14879L8.07473 2.05478C8.27687 1.81472 8.2359 1.4644 7.98324 1.2724C7.73051 1.08032 7.3618 1.11929 7.15969 1.35931L2.64809 6.71679H0.585938C0.262344 6.71679 0 6.96602 0 7.27343V9.49999C0 9.80741 0.262344 10.0566 0.585938 10.0566H1.31586L3.5382 17.4459C3.61004 17.6849 3.83996 17.8496 4.10156 17.8496H15.8984C16.16 17.8496 16.39 17.6849 16.4618 17.4459L18.6841 10.0566H19.4141C19.7377 10.0566 20 9.80741 20 9.49999V7.27343C20 6.96602 19.7377 6.71679 19.4141 6.71679ZM15.4565 16.7363H4.54352L2.53461 10.0566H17.4654L15.4565 16.7363ZM18.8281 8.94335C16.8209 8.94335 3.07344 8.94335 1.17188 8.94335V7.83007H18.8281V8.94335Z" fill="#2F2A2C"/>
<path d="M10 15.623C10.3236 15.623 10.5859 15.3738 10.5859 15.0664V11.7266C10.5859 11.4191 10.3236 11.1699 10 11.1699C9.67641 11.1699 9.41406 11.4191 9.41406 11.7266V15.0664C9.41406 15.3739 9.67641 15.623 10 15.623Z" fill="#2F2A2C"/>
</g>
<defs>
<clipPath id="clip0">
<rect width="20" height="19" fill="white"/>
</clipPath>
</defs>
</svg>
