<svg width="40" height="40" viewBox="0 0 40 40" fill="none" xmlns="http://www.w3.org/2000/svg">
<rect width="40" height="40" rx="5" fill="#F0F0F0"/>
<path d="M20 26H27" stroke="#2F2A2C" stroke-width="1.5" stroke-linecap="round" stroke-linejoin="round"/>
<path d="M23.2504 13.4718C23.5524 13.1697 23.9621 13 24.3893 13C24.6008 13 24.8103 13.0417 25.0057 13.1226C25.2011 13.2036 25.3787 13.3222 25.5282 13.4718C25.6778 13.6213 25.7964 13.7989 25.8774 13.9943C25.9583 14.1897 26 14.3992 26 14.6107C26 14.8222 25.9583 15.0317 25.8774 15.2271C25.7964 15.4225 25.6778 15.6001 25.5282 15.7496L16.0371 25.2407L13 26L13.7593 22.9629L23.2504 13.4718Z" stroke="#2F2A2C" stroke-width="1.5" stroke-linecap="round" stroke-linejoin="round"/>
</svg>
