<svg width="360" height="233" viewBox="0 0 360 233" fill="none" xmlns="http://www.w3.org/2000/svg">
<path d="M328.358 232.311L318.076 201.337C318.076 201.337 329.385 212.627 329.385 221.89L327.355 200.469C327.355 200.469 333.155 208.285 332.575 220.153C331.995 232.022 328.358 232.311 328.358 232.311Z" fill="#F0F0F0"/>
<path d="M107.554 204.108L97.519 173.879C97.519 173.879 108.557 184.897 108.557 193.938L106.576 173.031C106.576 173.031 112.236 180.659 111.67 192.242C111.104 203.826 107.554 204.108 107.554 204.108Z" fill="#F0F0F0"/>
<path d="M264.179 218.057C264.196 237.943 224.686 231.826 176.316 231.868C127.947 231.91 89.0342 238.094 89.017 218.208C88.9998 198.323 128.495 193.964 176.865 193.922C225.234 193.88 264.161 198.172 264.179 218.057Z" fill="#F0F0F0"/>
<path d="M230.28 191.202H223.956L220.947 166.854H230.28V191.202Z" fill="#7C1C3E"/>
<path d="M218.737 189.398H231.635V197.064H211.761V196.362C211.761 194.515 212.496 192.744 213.804 191.438C215.113 190.132 216.887 189.398 218.737 189.398Z" fill="#2F2A2C"/>
<path d="M276.761 227.139H270.437L267.428 202.791H276.761V227.139Z" fill="#7C1C3E"/>
<path d="M265.218 225.334H278.116V232.999H258.242V232.298C258.242 230.451 258.977 228.68 260.285 227.374C261.594 226.068 263.368 225.334 265.218 225.334Z" fill="#2F2A2C"/>
<path d="M305.93 154.804C306.367 154.275 306.683 153.656 306.855 152.992C307.026 152.328 307.05 151.634 306.924 150.96C306.799 150.285 306.526 149.646 306.126 149.088C305.727 148.53 305.209 148.067 304.61 147.73L289.923 88.0059L280.532 92.0391L298.002 149.787C297.502 150.829 297.402 152.017 297.721 153.128C298.04 154.238 298.756 155.193 299.733 155.811C300.711 156.429 301.881 156.668 303.023 156.483C304.165 156.297 305.199 155.7 305.93 154.804Z" fill="#7C1C3E"/>
<path d="M294.475 34.1006C293.951 33.5536 293.313 33.128 292.606 32.8538C291.899 32.5795 291.141 32.4633 290.384 32.5133C289.628 32.5632 288.891 32.7782 288.227 33.143C287.562 33.5079 286.986 34.0137 286.539 34.6249L263.806 37.2301L267.264 45.9829L287.938 42.1204C289.017 42.8026 290.308 43.0662 291.568 42.8614C292.828 42.6565 293.969 41.9973 294.775 41.0088C295.581 40.0202 295.995 38.771 295.94 37.4977C295.884 36.2245 295.363 35.0158 294.475 34.1006Z" fill="#7C1C3E"/>
<path d="M257.012 148.611L266.932 222.928L279.278 220.391C279.278 220.391 277.463 166.267 283.636 159.742C289.809 153.217 275.696 141.787 275.696 141.787L257.012 148.611Z" fill="#2F2A2C"/>
<path d="M261.114 128.141L256.557 134.964C256.557 134.964 221.468 120.408 221.468 143.607C221.468 166.806 219.46 182.55 218.734 183.638C218.008 184.725 227.136 187.547 231.493 186.822C231.493 186.822 236.869 149.421 236.506 147.246C236.506 147.246 270.926 164.092 277.463 162.642C283.999 161.192 285.543 156.06 286.633 153.16C287.722 150.26 286.177 127.231 286.177 127.231L264.39 120.594L261.114 128.141Z" fill="#2F2A2C"/>
<path d="M261.73 87.1718L260.431 85.6158C260.431 85.6158 245.883 52.9417 251.598 44.1249C257.313 35.308 282.252 34.0114 283.031 34.5301C283.811 35.0487 281.17 41.7823 282.988 44.8942C282.988 44.8942 263.669 49.0752 262.37 49.5938C261.072 50.1125 272.38 69.2788 272.38 69.2788L271.081 80.9481L261.73 87.1718Z" fill="#BFBFBF"/>
<path d="M287.187 71.0945C287.187 71.0945 273.679 72.6504 273.16 72.6504C272.64 72.6504 272.38 69.2793 272.38 69.2793L260.43 85.6164C260.43 85.6164 254.543 133.012 256.102 132.234C257.661 131.456 286.408 135.924 286.668 133.85C286.928 131.775 286.408 121.402 287.187 120.884C287.967 120.365 300.696 88.2095 300.696 88.2095C300.696 88.2095 299.397 81.4673 294.981 79.1334C290.565 76.7995 287.187 71.0945 287.187 71.0945Z" fill="#BFBFBF"/>
<path d="M296.539 83.8008L300.696 88.2092C300.696 88.2092 306.871 138.866 303.494 140.422C300.117 141.978 293.469 141.787 293.469 141.787L286.927 117.772L296.539 83.8008Z" fill="#BFBFBF"/>
<path d="M274.205 67.8873C280.809 67.8873 286.162 62.5435 286.162 55.9515C286.162 49.3595 280.809 44.0156 274.205 44.0156C267.602 44.0156 262.248 49.3595 262.248 55.9515C262.248 62.5435 267.602 67.8873 274.205 67.8873Z" fill="#7C1C3E"/>
<path d="M271.4 57.8128C271.238 55.3361 268.108 55.2513 265.622 55.2278C263.136 55.2044 260.164 55.293 258.757 53.2466C257.827 51.8942 258.005 50.0167 258.773 48.5667C259.541 47.1168 260.804 46.0016 262.047 44.9288C265.256 42.159 268.563 39.4112 272.415 37.6384C276.268 35.8655 280.782 35.1492 284.777 36.5723C289.685 38.3205 296.32 47.3196 296.893 52.4898C297.466 57.6601 295.396 62.9308 291.907 66.7943C288.417 70.6579 280.431 69.0991 275.405 70.4735C278.461 66.1567 276.447 58.313 271.552 56.2972L271.4 57.8128Z" fill="#2F2A2C"/>
<path d="M164.836 212.205C180.689 212.205 193.54 199.377 193.54 183.552C193.54 167.727 180.689 154.898 164.836 154.898C148.983 154.898 136.132 167.727 136.132 183.552C136.132 199.377 148.983 212.205 164.836 212.205Z" fill="#FF005A"/>
<path d="M145.666 152.863C141.688 152.863 137.795 151.712 134.458 149.55C131.121 147.387 128.484 144.306 126.866 140.678L81.318 38.2854C79.8092 34.8937 79.0112 31.2297 78.9731 27.5188C78.935 23.8078 79.6576 20.1283 81.0964 16.7064C82.5353 13.2845 84.66 10.1925 87.34 7.62038C90.0199 5.0483 93.1985 3.05052 96.6804 1.74982C100.162 0.449126 103.874 -0.127 107.587 0.0568612C111.3 0.240723 114.936 1.18068 118.272 2.81897C121.608 4.45725 124.573 6.75925 126.985 9.58346C129.397 12.4077 131.204 15.6944 132.297 19.2417L165.279 126.329C166.223 129.394 166.434 132.638 165.895 135.799C165.355 138.961 164.081 141.952 162.174 144.532C160.266 147.112 157.779 149.21 154.912 150.657C152.045 152.104 148.878 152.86 145.666 152.863H145.666Z" fill="#FF005A"/>
</svg>
