<svg width="64" height="11" viewBox="0 0 64 11" fill="none" xmlns="http://www.w3.org/2000/svg">
<path d="M0.26 0.199999H6.77V1.656H1.94V4.442H6.35V5.898H1.94V10H0.26V0.199999ZM10.0523 10.154C9.65101 10.154 9.29168 10.098 8.97434 9.986C8.66634 9.86467 8.40501 9.70133 8.19034 9.496C7.97568 9.28133 7.81234 9.034 7.70034 8.754C7.58834 8.474 7.53234 8.166 7.53234 7.83C7.53234 7.09267 7.75168 6.54667 8.19034 6.192C8.62901 5.828 9.27301 5.646 10.1223 5.646H12.4323V5.24C12.4323 4.68 12.3063 4.29733 12.0543 4.092C11.8117 3.87733 11.4243 3.77 10.8923 3.77C10.4163 3.77 10.0663 3.84467 9.84234 3.994C9.61834 4.14333 9.48768 4.34867 9.45034 4.61H7.95234C7.97101 4.29267 8.05034 4.00333 8.19034 3.742C8.33968 3.47133 8.54034 3.238 8.79234 3.042C9.05368 2.846 9.36634 2.69667 9.73034 2.594C10.0943 2.482 10.505 2.426 10.9623 2.426C11.4197 2.426 11.8303 2.47733 12.1943 2.58C12.5677 2.68267 12.885 2.846 13.1463 3.07C13.4077 3.28467 13.6083 3.56467 13.7483 3.91C13.8977 4.25533 13.9723 4.67067 13.9723 5.156V8.11C13.9723 8.502 13.977 8.84733 13.9863 9.146C13.9957 9.43533 14.019 9.72 14.0563 10H12.6563C12.6283 9.78533 12.605 9.60333 12.5863 9.454C12.577 9.30467 12.5723 9.118 12.5723 8.894C12.395 9.23933 12.087 9.538 11.6483 9.79C11.219 10.0327 10.687 10.154 10.0523 10.154ZM10.4723 8.81C10.7337 8.81 10.981 8.77733 11.2143 8.712C11.457 8.63733 11.667 8.53467 11.8443 8.404C12.0217 8.264 12.1617 8.096 12.2643 7.9C12.3763 7.69467 12.4323 7.46133 12.4323 7.2V6.794H10.4023C10.0103 6.794 9.69301 6.878 9.45034 7.046C9.21701 7.214 9.10034 7.46133 9.10034 7.788C9.10034 8.096 9.20768 8.34333 9.42234 8.53C9.64634 8.71667 9.99634 8.81 10.4723 8.81ZM18.9467 10.154C18.4427 10.154 17.9761 10.0793 17.5467 9.93C17.1267 9.77133 16.7581 9.53333 16.4407 9.216C16.1327 8.89867 15.8901 8.502 15.7127 8.026C15.5354 7.55 15.4467 6.99467 15.4467 6.36V6.08C15.4467 5.48267 15.5401 4.95533 15.7267 4.498C15.9134 4.04067 16.1654 3.658 16.4827 3.35C16.8094 3.042 17.1827 2.81333 17.6027 2.664C18.0321 2.50533 18.4801 2.426 18.9467 2.426C19.4321 2.426 19.8614 2.49133 20.2347 2.622C20.6174 2.75267 20.9394 2.93467 21.2007 3.168C21.4714 3.392 21.6861 3.658 21.8447 3.966C22.0034 4.274 22.1107 4.60533 22.1667 4.96H20.5987C20.5054 4.61467 20.3374 4.33 20.0947 4.106C19.8521 3.882 19.4694 3.77 18.9467 3.77C18.6854 3.77 18.4381 3.81667 18.2047 3.91C17.9714 3.994 17.7661 4.12933 17.5887 4.316C17.4114 4.50267 17.2714 4.74533 17.1687 5.044C17.0661 5.33333 17.0147 5.67867 17.0147 6.08V6.36C17.0147 6.79867 17.0661 7.17667 17.1687 7.494C17.2714 7.802 17.4114 8.054 17.5887 8.25C17.7661 8.446 17.9714 8.59067 18.2047 8.684C18.4381 8.768 18.6854 8.81 18.9467 8.81C19.8147 8.81 20.3654 8.41333 20.5987 7.62H22.1667C22.0921 8.012 21.9614 8.36667 21.7747 8.684C21.5974 8.992 21.3687 9.258 21.0887 9.482C20.8087 9.69667 20.4867 9.86467 20.1227 9.986C19.7587 10.098 19.3667 10.154 18.9467 10.154ZM26.8523 10.154C26.3577 10.154 25.891 10.0793 25.4523 9.93C25.0137 9.77133 24.6263 9.538 24.2903 9.23C23.9637 8.91267 23.7023 8.516 23.5063 8.04C23.3103 7.564 23.2123 7.004 23.2123 6.36V6.08C23.2123 5.464 23.3057 4.92733 23.4923 4.47C23.679 4.01267 23.931 3.63467 24.2483 3.336C24.575 3.028 24.9483 2.79933 25.3683 2.65C25.7883 2.50067 26.2363 2.426 26.7123 2.426C27.8417 2.426 28.705 2.72933 29.3023 3.336C29.909 3.94267 30.2123 4.81067 30.2123 5.94V6.724H24.7803C24.7897 7.10667 24.8503 7.43333 24.9623 7.704C25.0837 7.96533 25.2377 8.18 25.4243 8.348C25.6203 8.50667 25.8397 8.62333 26.0823 8.698C26.3343 8.77267 26.591 8.81 26.8523 8.81C27.3843 8.81 27.7717 8.726 28.0143 8.558C28.2663 8.39 28.439 8.17067 28.5323 7.9H30.0723C29.923 8.63733 29.5543 9.19733 28.9663 9.58C28.3877 9.96267 27.683 10.154 26.8523 10.154ZM26.7823 3.77C26.521 3.77 26.269 3.80267 26.0263 3.868C25.793 3.93333 25.583 4.04067 25.3963 4.19C25.219 4.33 25.0743 4.51667 24.9623 4.75C24.8503 4.974 24.7897 5.24933 24.7803 5.576H28.6723C28.663 5.23067 28.607 4.94133 28.5043 4.708C28.411 4.47467 28.2803 4.288 28.1123 4.148C27.9443 4.008 27.7437 3.91 27.5103 3.854C27.2863 3.798 27.0437 3.77 26.7823 3.77ZM35.7014 10.154C35.0854 10.154 34.5534 10.014 34.1054 9.734C33.6668 9.454 33.3588 9.12733 33.1814 8.754V10H31.7534V0.199999H33.2934V3.756C33.5268 3.37333 33.8441 3.056 34.2454 2.804C34.6561 2.552 35.1414 2.426 35.7014 2.426C36.6628 2.426 37.4234 2.72933 37.9834 3.336C38.5434 3.94267 38.8234 4.85733 38.8234 6.08V6.36C38.8234 6.99467 38.7488 7.55 38.5994 8.026C38.4501 8.502 38.2354 8.89867 37.9554 9.216C37.6848 9.524 37.3581 9.75733 36.9754 9.916C36.5928 10.0747 36.1681 10.154 35.7014 10.154ZM35.3374 8.81C35.9068 8.81 36.3688 8.60933 36.7234 8.208C37.0781 7.80667 37.2554 7.19067 37.2554 6.36V6.08C37.2554 5.296 37.0828 4.71733 36.7374 4.344C36.3921 3.96133 35.9254 3.77 35.3374 3.77C35.0668 3.77 34.8101 3.812 34.5674 3.896C34.3248 3.98 34.1054 4.106 33.9094 4.274C33.7228 4.43267 33.5734 4.638 33.4614 4.89C33.3494 5.13267 33.2934 5.41267 33.2934 5.73V6.71C33.2934 7.06467 33.3494 7.37267 33.4614 7.634C33.5734 7.89533 33.7228 8.11467 33.9094 8.292C34.0961 8.46933 34.3108 8.6 34.5534 8.684C34.8054 8.768 35.0668 8.81 35.3374 8.81ZM43.5867 10.154C43.0734 10.154 42.5927 10.0747 42.1447 9.916C41.7061 9.748 41.3234 9.50533 40.9967 9.188C40.6701 8.87067 40.4134 8.47867 40.2267 8.012C40.0401 7.536 39.9467 6.98533 39.9467 6.36V6.08C39.9467 5.492 40.0401 4.974 40.2267 4.526C40.4134 4.06867 40.6701 3.686 40.9967 3.378C41.3234 3.06067 41.7061 2.82267 42.1447 2.664C42.5927 2.50533 43.0734 2.426 43.5867 2.426C44.1001 2.426 44.5761 2.50533 45.0147 2.664C45.4627 2.82267 45.8501 3.06067 46.1767 3.378C46.5034 3.686 46.7601 4.06867 46.9467 4.526C47.1334 4.974 47.2267 5.492 47.2267 6.08V6.36C47.2267 6.98533 47.1334 7.536 46.9467 8.012C46.7601 8.47867 46.5034 8.87067 46.1767 9.188C45.8501 9.50533 45.4627 9.748 45.0147 9.916C44.5761 10.0747 44.1001 10.154 43.5867 10.154ZM43.5867 8.81C43.8574 8.81 44.1141 8.76333 44.3567 8.67C44.6087 8.57667 44.8281 8.432 45.0147 8.236C45.2107 8.04 45.3647 7.788 45.4767 7.48C45.5981 7.172 45.6587 6.79867 45.6587 6.36V6.08C45.6587 5.67867 45.5981 5.33333 45.4767 5.044C45.3647 4.75467 45.2107 4.51667 45.0147 4.33C44.8281 4.14333 44.6087 4.00333 44.3567 3.91C44.1141 3.81667 43.8574 3.77 43.5867 3.77C43.3161 3.77 43.0547 3.81667 42.8027 3.91C42.5601 4.00333 42.3407 4.14333 42.1447 4.33C41.9581 4.51667 41.8041 4.75467 41.6827 5.044C41.5707 5.33333 41.5147 5.67867 41.5147 6.08V6.36C41.5147 6.79867 41.5707 7.172 41.6827 7.48C41.8041 7.788 41.9581 8.04 42.1447 8.236C42.3407 8.432 42.5601 8.57667 42.8027 8.67C43.0547 8.76333 43.3161 8.81 43.5867 8.81ZM51.9813 10.154C51.4679 10.154 50.9873 10.0747 50.5393 9.916C50.1006 9.748 49.7179 9.50533 49.3913 9.188C49.0646 8.87067 48.8079 8.47867 48.6213 8.012C48.4346 7.536 48.3413 6.98533 48.3413 6.36V6.08C48.3413 5.492 48.4346 4.974 48.6213 4.526C48.8079 4.06867 49.0646 3.686 49.3913 3.378C49.7179 3.06067 50.1006 2.82267 50.5393 2.664C50.9873 2.50533 51.4679 2.426 51.9813 2.426C52.4946 2.426 52.9706 2.50533 53.4093 2.664C53.8573 2.82267 54.2446 3.06067 54.5713 3.378C54.8979 3.686 55.1546 4.06867 55.3413 4.526C55.5279 4.974 55.6213 5.492 55.6213 6.08V6.36C55.6213 6.98533 55.5279 7.536 55.3413 8.012C55.1546 8.47867 54.8979 8.87067 54.5713 9.188C54.2446 9.50533 53.8573 9.748 53.4093 9.916C52.9706 10.0747 52.4946 10.154 51.9813 10.154ZM51.9813 8.81C52.2519 8.81 52.5086 8.76333 52.7513 8.67C53.0033 8.57667 53.2226 8.432 53.4093 8.236C53.6053 8.04 53.7593 7.788 53.8713 7.48C53.9926 7.172 54.0533 6.79867 54.0533 6.36V6.08C54.0533 5.67867 53.9926 5.33333 53.8713 5.044C53.7593 4.75467 53.6053 4.51667 53.4093 4.33C53.2226 4.14333 53.0033 4.00333 52.7513 3.91C52.5086 3.81667 52.2519 3.77 51.9813 3.77C51.7106 3.77 51.4493 3.81667 51.1973 3.91C50.9546 4.00333 50.7353 4.14333 50.5393 4.33C50.3526 4.51667 50.1986 4.75467 50.0773 5.044C49.9653 5.33333 49.9093 5.67867 49.9093 6.08V6.36C49.9093 6.79867 49.9653 7.172 50.0773 7.48C50.1986 7.788 50.3526 8.04 50.5393 8.236C50.7353 8.432 50.9546 8.57667 51.1973 8.67C51.4493 8.76333 51.7106 8.81 51.9813 8.81ZM57.1558 0.199999H58.6958V5.814L61.7758 2.58H63.5958L60.5998 5.73L63.8758 10H62.0278L59.5778 6.71L58.6958 7.606V10H57.1558V0.199999Z" fill="#1976D2"/>
</svg>
