<svg width="12" height="9" viewBox="0 0 12 9" fill="#8F8D8E" xmlns="http://www.w3.org/2000/svg">
<path fill="inherit" d="M4.57333 8.99994C4.48192 8.99965 4.39154 8.98056 4.30782 8.94386C4.2241 8.90716 4.14882 8.85363 4.08666 8.78661L0.846663 5.33994C0.725547 5.21087 0.660666 5.03897 0.666292 4.86206C0.671918 4.68515 0.747591 4.51772 0.876663 4.39661C1.00573 4.27549 1.17763 4.21061 1.35454 4.21624C1.53145 4.22186 1.69888 4.29753 1.82 4.42661L4.56666 7.35327L10.1733 1.21994C10.2302 1.14909 10.301 1.09062 10.3813 1.04812C10.4616 1.00562 10.5498 0.979983 10.6404 0.972793C10.731 0.965604 10.8221 0.977009 10.9081 1.00631C10.9941 1.03561 11.0732 1.08218 11.1406 1.14317C11.2079 1.20416 11.2621 1.27828 11.2998 1.36097C11.3375 1.44366 11.3578 1.53318 11.3597 1.62403C11.3615 1.71488 11.3447 1.80515 11.3104 1.88928C11.276 1.97341 11.2249 2.04964 11.16 2.11327L5.06666 8.77994C5.00509 8.84818 4.93007 8.90294 4.84632 8.9408C4.76257 8.97866 4.6719 8.9988 4.58 8.99994H4.57333Z" />
</svg>
