<svg width="16" height="16" viewBox="0 0 16 16" fill="none" xmlns="http://www.w3.org/2000/svg">
<g clip-path="url(#clip0)">
<path d="M3.54594 9.66844L2.989 11.7476L0.953406 11.7906C0.345063 10.6623 0 9.37131 0 7.99944C0 6.67284 0.322625 5.42184 0.8945 4.32031H0.894938L2.70719 4.65256L3.50106 6.45394C3.33491 6.93834 3.24434 7.45834 3.24434 7.99944C3.24441 8.58669 3.35078 9.14934 3.54594 9.66844Z" fill="#FBBB00"/>
<path d="M15.8591 6.50586C15.951 6.9898 15.9989 7.48958 15.9989 8.00036C15.9989 8.57311 15.9387 9.1318 15.824 9.6707C15.4346 11.5045 14.417 13.1059 13.0073 14.239L13.0069 14.2386L10.7242 14.1221L10.4012 12.1054C11.3366 11.5569 12.0676 10.6984 12.4526 9.6707H8.1748V6.50586H12.515H15.8591Z" fill="#518EF8"/>
<path d="M13.0076 14.2391L13.0081 14.2396C11.6371 15.3415 9.89553 16.0009 7.99972 16.0009C4.95312 16.0009 2.30434 14.298 0.953125 11.7921L3.54566 9.66992C4.22125 11.473 5.96059 12.7565 7.99972 12.7565C8.87619 12.7565 9.69731 12.5196 10.4019 12.106L13.0076 14.2391Z" fill="#28B446"/>
<path d="M13.1064 1.84175L10.5148 3.9635C9.78553 3.50769 8.92353 3.24437 8.00003 3.24437C5.91475 3.24437 4.14288 4.58678 3.50113 6.4545L0.894969 4.32088H0.894531C2.22597 1.75384 4.90816 0 8.00003 0C9.94113 0 11.7209 0.691437 13.1064 1.84175Z" fill="#F14336"/>
</g>
<defs>
<clipPath id="clip0">
<rect width="16" height="16" fill="white"/>
</clipPath>
</defs>
</svg>
