<svg width="108" height="32" viewBox="0 0 108 32" fill="none" xmlns="http://www.w3.org/2000/svg">
<g clip-path="url(#clip0_3483_8657)">
<path fill-rule="evenodd" clip-rule="evenodd" d="M103.999 31.8687H4.00147C1.79609 31.8687 0 30.0726 0 27.8851V3.98359C0 1.78815 1.79609 0 4.00147 0H103.999C106.202 0 108 1.78815 108 3.98359V27.8851C108 30.0726 106.202 31.8687 103.999 31.8687Z" fill="black"/>
<path fill-rule="evenodd" clip-rule="evenodd" d="M103.999 0.637772C105.848 0.637772 107.362 2.1418 107.362 3.98359V27.8851C107.362 29.7269 105.858 31.231 103.999 31.231H4.00147C2.15173 31.231 0.637772 29.7269 0.637772 27.8851V3.98359C0.637772 2.1418 2.1418 0.637772 4.00147 0.637772H103.999ZM103.999 0H4.00147C1.79609 0 0 1.79609 0 3.98359V27.8851C0 30.0806 1.79609 31.8687 4.00147 31.8687H103.999C106.202 31.8687 108 30.0806 108 27.8851V3.98359C108 1.79609 106.202 0 103.999 0Z" fill="#A6A6A6"/>
<path d="M56.8978 10.5425C56.1766 10.5425 55.5686 10.2901 55.0878 9.79344C54.611 9.31064 54.3447 8.64505 54.3567 7.96555C54.3567 7.24036 54.603 6.62643 55.0878 6.13966C55.5666 5.64295 56.1746 5.39062 56.8958 5.39062C57.6091 5.39062 58.2171 5.64295 58.7058 6.13966C59.1906 6.64233 59.437 7.25626 59.437 7.96555C59.429 8.69273 59.1827 9.30666 58.7058 9.79145C58.227 10.2921 57.619 10.5425 56.8978 10.5425ZM35.4381 10.5425C34.7328 10.5425 34.1208 10.2941 33.6201 9.80337C33.1234 9.31461 32.8711 8.69671 32.8711 7.96754C32.8711 7.23838 33.1234 6.62047 33.6201 6.13171C34.1109 5.64097 34.7228 5.39261 35.4381 5.39261C35.7878 5.39261 36.1275 5.46215 36.4533 5.60322C36.7732 5.74031 37.0335 5.92707 37.2262 6.15555L37.2739 6.21317L36.7355 6.74167L36.6798 6.6761C36.3759 6.3145 35.9686 6.13767 35.4301 6.13767C34.9493 6.13767 34.5301 6.30854 34.1844 6.6463C33.8367 6.98605 33.6599 7.4311 33.6599 7.96953C33.6599 8.50796 33.8367 8.95301 34.1844 9.29276C34.5301 9.63052 34.9493 9.80138 35.4301 9.80138C35.9427 9.80138 36.3739 9.63052 36.7096 9.29276C36.9083 9.09407 37.0315 8.81592 37.0752 8.46425H35.3487V7.72117H37.8163L37.8262 7.78873C37.8441 7.9139 37.862 8.04304 37.862 8.16225C37.862 8.84771 37.6554 9.40203 37.2461 9.81132C36.7812 10.2961 36.1732 10.5425 35.4381 10.5425ZM63.9709 10.4372H63.21L60.8794 6.70789L60.8993 7.37944V10.4352H60.1383V5.49791H61.0066L61.0304 5.53566L63.2219 9.04838L63.202 8.37881V5.49791H63.9709V10.4372ZM51.1797 10.4372H50.4088V6.24099H49.0717V5.49791H52.5149V6.24099H51.1777V10.4372H51.1797ZM48.4439 10.4372H47.6749V5.49791H48.4439V10.4372ZM44.1225 10.4372H43.3536V6.24099H42.0165V5.49791H45.4596V6.24099H44.1225V10.4372ZM41.5297 10.4292H38.5812V5.49791H41.5297V6.24099H39.3521V7.596H41.3171V8.33113H39.3521V9.68615H41.5297V10.4292ZM55.6521 9.28282C55.9958 9.62654 56.413 9.7994 56.8978 9.7994C57.3965 9.7994 57.8038 9.63052 58.1435 9.28282C58.4813 8.94506 58.6522 8.502 58.6522 7.96754C58.6522 7.43308 58.4813 6.98803 58.1455 6.65226C57.8018 6.30854 57.3826 6.13569 56.8998 6.13569C56.4011 6.13569 55.9938 6.30457 55.656 6.65226C55.3183 6.99002 55.1474 7.43308 55.1474 7.96754C55.1474 8.502 55.3163 8.94705 55.6521 9.28282Z" fill="white"/>
<path fill-rule="evenodd" clip-rule="evenodd" d="M54.2819 17.3334C52.4043 17.3334 50.8824 18.7579 50.8824 20.7229C50.8824 22.67 52.4143 24.1124 54.2819 24.1124C56.1595 24.1124 57.6814 22.6779 57.6814 20.7229C57.6814 18.7579 56.1595 17.3334 54.2819 17.3334ZM54.2819 22.7693C53.2547 22.7693 52.3706 21.919 52.3706 20.7149C52.3706 19.493 53.2567 18.6606 54.2819 18.6606C55.3091 18.6606 56.1932 19.493 56.1932 20.7149C56.1952 21.9269 55.3091 22.7693 54.2819 22.7693ZM46.865 17.3334C44.9875 17.3334 43.4656 18.7579 43.4656 20.7229C43.4656 22.67 44.9974 24.1124 46.865 24.1124C48.7426 24.1124 50.2645 22.6779 50.2645 20.7229C50.2645 18.7579 48.7406 17.3334 46.865 17.3334ZM46.865 22.7693C45.8378 22.7693 44.9537 21.919 44.9537 20.7149C44.9537 19.493 45.8398 18.6606 46.865 18.6606C47.8922 18.6606 48.7764 19.493 48.7764 20.7149C48.7764 21.9269 47.8922 22.7693 46.865 22.7693ZM38.0395 18.3685V19.803H41.4827C41.3774 20.6077 41.1112 21.2017 40.7039 21.609C40.1992 22.1137 39.4204 22.662 38.0475 22.662C35.9315 22.662 34.2765 20.9534 34.2765 18.8374C34.2765 16.7214 35.9315 15.0127 38.0475 15.0127C39.1899 15.0127 40.0224 15.4638 40.6403 16.0399L41.6575 15.0227C40.7992 14.2001 39.6568 13.5703 38.0554 13.5703C35.1527 13.5703 32.7168 15.9346 32.7168 18.8294C32.7168 21.7322 35.1507 24.0886 38.0554 24.0886C39.623 24.0886 40.7992 23.576 41.7291 22.6104C42.6768 21.6627 42.9768 20.3255 42.9768 19.2467C42.9768 18.9109 42.951 18.6089 42.8973 18.3526H38.0375C38.0395 18.3506 38.0395 18.3685 38.0395 18.3685ZM74.1383 19.4851C73.8542 18.7241 72.9959 17.3254 71.2355 17.3254C69.4911 17.3254 68.0407 18.6983 68.0407 20.7149C68.0407 22.6183 69.4752 24.1045 71.4044 24.1045C72.9542 24.1045 73.8562 23.1568 74.2277 22.6004L73.0773 21.8296C72.6959 22.3958 72.1654 22.7673 71.4124 22.7673C70.6514 22.7673 70.1189 22.4216 69.7653 21.7401L74.2973 19.8626C74.2973 19.8646 74.1383 19.4851 74.1383 19.4851ZM69.5169 20.6176C69.4812 19.3083 70.5342 18.6427 71.2872 18.6427C71.8813 18.6427 72.376 18.9347 72.5449 19.3599L69.5169 20.6176ZM65.8353 23.9018H67.3235V13.9438H65.8353V23.9018ZM63.3915 18.0864H63.3379C63.0021 17.687 62.3643 17.3254 61.5497 17.3254C59.8589 17.3254 58.3013 18.8136 58.3013 20.7249C58.3013 22.6283 59.851 24.0985 61.5497 24.0985C62.3544 24.0985 63.0021 23.7349 63.3379 23.3276H63.3915V23.8144C63.3915 25.1078 62.7001 25.8052 61.5855 25.8052C60.6735 25.8052 60.1073 25.1495 59.8768 24.6012L58.5834 25.1416C58.9549 26.0357 59.9464 27.1423 61.5835 27.1423C63.3279 27.1423 64.8062 26.1151 64.8062 23.6098V17.5281H63.3995V18.0864C63.4015 18.0864 63.3915 18.0864 63.3915 18.0864ZM61.6828 22.7693C60.6557 22.7693 59.7973 21.911 59.7973 20.7249C59.7973 19.5288 60.6557 18.6626 61.6828 18.6626C62.7001 18.6626 63.4889 19.5387 63.4889 20.7249C63.4988 21.911 62.7021 22.7693 61.6828 22.7693ZM81.1061 13.9438H77.5477V23.9018H79.0359V20.1308H81.1081C82.7552 20.1308 84.3745 18.9367 84.3745 17.0413C84.3745 15.1459 82.7612 13.9438 81.1061 13.9438ZM81.1498 18.74H79.0339V15.3227H81.1498C82.2645 15.3227 82.8943 16.2426 82.8943 17.0314C82.8943 17.8122 82.2565 18.74 81.1498 18.74ZM90.339 17.3155C89.2581 17.3155 88.1435 17.7943 87.6826 18.8374L89.0018 19.3858C89.2859 18.8374 89.8065 18.6506 90.3568 18.6506C91.1277 18.6506 91.9066 19.1116 91.9244 19.9341V20.0394C91.6582 19.8884 91.0741 19.658 90.3747 19.658C88.9502 19.658 87.5057 20.4368 87.5057 21.8971C87.5057 23.2342 88.674 24.0926 89.9754 24.0926C90.9747 24.0926 91.5251 23.6415 91.8688 23.119H91.9225V23.8899H93.3569V20.0752C93.3569 18.299 92.0377 17.3155 90.339 17.3155ZM90.1522 22.7693C89.6654 22.7693 88.9839 22.5309 88.9839 21.919C88.9839 21.1481 89.8343 20.856 90.5595 20.856C91.2151 20.856 91.5251 20.9971 91.9145 21.1918C91.8072 22.0859 91.0522 22.7614 90.1522 22.7693ZM98.5903 17.5281L96.8816 21.8474H96.8279L95.0577 17.5281H93.4563L96.1127 23.566L94.5987 26.9218H96.1485L100.235 17.5281H98.5903ZM85.195 23.9018H86.6832V13.9438H85.195V23.9018Z" fill="white"/>
<path fill-rule="evenodd" clip-rule="evenodd" d="M8.31476 6.00286C8.08429 6.25122 7.95117 6.6307 7.95117 7.12741V24.7446C7.95117 25.2413 8.08429 25.6208 8.32271 25.8592L8.3843 25.9129L18.2549 16.0423V15.8218L8.37635 5.94922L8.31476 6.00286Z" fill="url(#paint0_linear_3483_8657)"/>
<path fill-rule="evenodd" clip-rule="evenodd" d="M21.5402 19.3461L18.248 16.0539V15.8234L21.5402 12.5312L21.6118 12.575L25.506 14.7883C26.6206 15.4161 26.6206 16.4532 25.506 17.089L21.6118 19.3024L21.5402 19.3461Z" fill="url(#paint1_linear_3483_8657)"/>
<path fill-rule="evenodd" clip-rule="evenodd" d="M21.6083 19.2973L18.2446 15.9336L8.3125 25.8657C8.67609 26.2552 9.28604 26.2989 9.96753 25.9194L21.6083 19.2973Z" fill="url(#paint2_linear_3483_8657)"/>
<path fill-rule="evenodd" clip-rule="evenodd" d="M21.6083 12.5702L9.96753 5.95803C9.28604 5.56861 8.6741 5.62226 8.3125 6.01167L18.2446 15.9339L21.6083 12.5702Z" fill="url(#paint3_linear_3483_8657)"/>
<path opacity="0.2" fill-rule="evenodd" clip-rule="evenodd" d="M21.5368 19.2227L9.97535 25.7911C9.32963 26.1627 8.75344 26.1368 8.3819 25.7991L8.32031 25.8607L8.3819 25.9143C8.75344 26.2501 9.32963 26.2779 9.97535 25.9064L21.6162 19.2942L21.5368 19.2227Z" fill="black"/>
<path opacity="0.12" fill-rule="evenodd" clip-rule="evenodd" d="M25.5049 16.9687L21.5293 19.2258L21.6008 19.2973L25.495 17.084C26.0533 16.7661 26.3275 16.3488 26.3275 15.9336C26.2937 16.3151 26.0096 16.6767 25.5049 16.9687Z" fill="black"/>
<path opacity="0.25" fill-rule="evenodd" clip-rule="evenodd" d="M9.96979 6.07283L25.5048 14.8983C26.0095 15.1824 26.2936 15.554 26.3373 15.9335C26.3373 15.5182 26.0631 15.101 25.5048 14.7831L9.96979 5.95759C8.85518 5.31982 7.95117 5.85229 7.95117 7.12585V7.24108C7.95117 5.96554 8.85518 5.443 9.96979 6.07283Z" fill="white"/>
</g>
<defs>
<linearGradient id="paint0_linear_3483_8657" x1="17.3695" y1="6.93734" x2="1.55855" y2="11.1502" gradientUnits="userSpaceOnUse">
<stop stop-color="#00A0FF"/>
<stop offset="0.00657" stop-color="#00A1FF"/>
<stop offset="0.2601" stop-color="#00BEFF"/>
<stop offset="0.5122" stop-color="#00D2FF"/>
<stop offset="0.7604" stop-color="#00DFFF"/>
<stop offset="1" stop-color="#00E3FF"/>
</linearGradient>
<linearGradient id="paint1_linear_3483_8657" x1="26.9595" y1="15.9387" x2="7.68134" y2="15.9387" gradientUnits="userSpaceOnUse">
<stop stop-color="#FFE000"/>
<stop offset="0.4087" stop-color="#FFBD00"/>
<stop offset="0.7754" stop-color="#FFA500"/>
<stop offset="1" stop-color="#FF9C00"/>
</linearGradient>
<linearGradient id="paint2_linear_3483_8657" x1="19.7793" y1="17.7639" x2="7.08634" y2="39.1272" gradientUnits="userSpaceOnUse">
<stop stop-color="#FF3A44"/>
<stop offset="1" stop-color="#C31162"/>
</linearGradient>
<linearGradient id="paint3_linear_3483_8657" x1="5.81148" y1="0.141979" x2="11.4743" y2="9.68314" gradientUnits="userSpaceOnUse">
<stop stop-color="#32A071"/>
<stop offset="0.0685" stop-color="#2DA771"/>
<stop offset="0.4762" stop-color="#15CF74"/>
<stop offset="0.8009" stop-color="#06E775"/>
<stop offset="1" stop-color="#00F076"/>
</linearGradient>
<clipPath id="clip0_3483_8657">
<rect width="108" height="31.8687" fill="white"/>
</clipPath>
</defs>
</svg>
