<svg width="48" height="13" viewBox="0 0 48 13" fill="none" xmlns="http://www.w3.org/2000/svg">
<path d="M5.18 10.154C4.508 10.154 3.89667 10.0513 3.346 9.846C2.80467 9.63133 2.34267 9.314 1.96 8.894C1.57733 8.474 1.28333 7.956 1.078 7.34C0.872667 6.71467 0.77 5.99133 0.77 5.17V4.89C0.77 4.12467 0.872667 3.44333 1.078 2.846C1.29267 2.23933 1.59133 1.73067 1.974 1.32C2.366 0.9 2.83267 0.582666 3.374 0.368C3.91533 0.153333 4.51733 0.0459996 5.18 0.0459996C6.19733 0.0459996 7.05133 0.312 7.742 0.843999C8.43267 1.36667 8.88533 2.132 9.1 3.14H7.28C7.17733 2.832 7.05133 2.57533 6.902 2.37C6.75267 2.16467 6.58467 2.00133 6.398 1.88C6.21133 1.74933 6.01067 1.66067 5.796 1.614C5.59067 1.558 5.38533 1.53 5.18 1.53C4.38667 1.53 3.74733 1.80533 3.262 2.356C2.77667 2.89733 2.534 3.742 2.534 4.89V5.17C2.534 5.76733 2.59933 6.28533 2.73 6.724C2.86067 7.16267 3.04267 7.52667 3.276 7.816C3.50933 8.10533 3.78933 8.32 4.116 8.46C4.44267 8.6 4.79733 8.67 5.18 8.67C5.908 8.67 6.48667 8.47867 6.916 8.096C7.35467 7.71333 7.61133 7.11133 7.686 6.29H5.46V4.89H9.31V5.45C9.31 6.234 9.212 6.92 9.016 7.508C8.82933 8.096 8.55867 8.586 8.204 8.978C7.84933 9.37 7.41533 9.664 6.902 9.86C6.398 10.056 5.824 10.154 5.18 10.154ZM30.8569 12.954C30.2782 12.954 29.7929 12.898 29.4009 12.786C29.0089 12.6833 28.6869 12.534 28.4349 12.338C28.1829 12.142 27.9962 11.9087 27.8749 11.638C27.7535 11.3767 27.6742 11.0873 27.6369 10.77H29.2049C29.2422 10.882 29.2935 10.9893 29.3589 11.092C29.4335 11.204 29.5315 11.302 29.6529 11.386C29.7835 11.47 29.9469 11.5353 30.1429 11.582C30.3389 11.638 30.5769 11.666 30.8569 11.666C31.5569 11.666 32.0702 11.498 32.3969 11.162C32.7235 10.826 32.8869 10.3453 32.8869 9.72V8.67C32.6535 9.062 32.3362 9.384 31.9349 9.636C31.5335 9.888 31.0529 10.014 30.4929 10.014C30.0169 10.014 29.5875 9.93467 29.2049 9.776C28.8222 9.61733 28.4909 9.384 28.2109 9.076C27.9402 8.768 27.7302 8.38067 27.5809 7.914C27.4315 7.44733 27.3569 6.906 27.3569 6.29V6.01C27.3569 5.43133 27.4315 4.92267 27.5809 4.484C27.7302 4.036 27.9402 3.66267 28.2109 3.364C28.4909 3.056 28.8222 2.82267 29.2049 2.664C29.5875 2.50533 30.0122 2.426 30.4789 2.426C31.0949 2.426 31.6222 2.566 32.0609 2.846C32.5089 3.126 32.8215 3.45267 32.9989 3.826V2.58H34.4269V9.65C34.4269 10.6953 34.1282 11.5073 33.5309 12.086C32.9335 12.6647 32.0422 12.954 30.8569 12.954ZM30.8429 8.67C31.1135 8.67 31.3702 8.628 31.6129 8.544C31.8649 8.46 32.0842 8.334 32.2709 8.166C32.4575 7.98867 32.6069 7.774 32.7189 7.522C32.8309 7.26067 32.8869 6.962 32.8869 6.626V5.646C32.8869 5.34733 32.8309 5.08133 32.7189 4.848C32.6069 4.61467 32.4529 4.41867 32.2569 4.26C32.0702 4.10133 31.8509 3.98 31.5989 3.896C31.3562 3.812 31.1042 3.77 30.8429 3.77C30.2549 3.77 29.7882 3.95667 29.4429 4.33C29.0975 4.694 28.9249 5.254 28.9249 6.01V6.29C28.9249 7.08333 29.1022 7.68067 29.4569 8.082C29.8115 8.474 30.2735 8.67 30.8429 8.67Z" fill="#518EF8"/>
<path d="M14.2078 10.154C13.6945 10.154 13.2138 10.0747 12.7658 9.916C12.3271 9.748 11.9445 9.50533 11.6178 9.188C11.2911 8.87067 11.0345 8.47867 10.8478 8.012C10.6611 7.536 10.5678 6.98533 10.5678 6.36V6.08C10.5678 5.492 10.6611 4.974 10.8478 4.526C11.0345 4.06867 11.2911 3.686 11.6178 3.378C11.9445 3.06067 12.3271 2.82267 12.7658 2.664C13.2138 2.50533 13.6945 2.426 14.2078 2.426C14.7211 2.426 15.1971 2.50533 15.6358 2.664C16.0838 2.82267 16.4711 3.06067 16.7978 3.378C17.1245 3.686 17.3811 4.06867 17.5678 4.526C17.7545 4.974 17.8478 5.492 17.8478 6.08V6.36C17.8478 6.98533 17.7545 7.536 17.5678 8.012C17.3811 8.47867 17.1245 8.87067 16.7978 9.188C16.4711 9.50533 16.0838 9.748 15.6358 9.916C15.1971 10.0747 14.7211 10.154 14.2078 10.154ZM14.2078 8.81C14.4785 8.81 14.7351 8.76333 14.9778 8.67C15.2298 8.57667 15.4491 8.432 15.6358 8.236C15.8318 8.04 15.9858 7.788 16.0978 7.48C16.2191 7.172 16.2798 6.79867 16.2798 6.36V6.08C16.2798 5.67867 16.2191 5.33333 16.0978 5.044C15.9858 4.75467 15.8318 4.51667 15.6358 4.33C15.4491 4.14333 15.2298 4.00333 14.9778 3.91C14.7351 3.81667 14.4785 3.77 14.2078 3.77C13.9371 3.77 13.6758 3.81667 13.4238 3.91C13.1811 4.00333 12.9618 4.14333 12.7658 4.33C12.5791 4.51667 12.4251 4.75467 12.3038 5.044C12.1918 5.33333 12.1358 5.67867 12.1358 6.08V6.36C12.1358 6.79867 12.1918 7.172 12.3038 7.48C12.4251 7.788 12.5791 8.04 12.7658 8.236C12.9618 8.432 13.1811 8.57667 13.4238 8.67C13.6758 8.76333 13.9371 8.81 14.2078 8.81ZM44.1629 10.154C43.6682 10.154 43.2016 10.0793 42.7629 9.93C42.3242 9.77133 41.9369 9.538 41.6009 9.23C41.2742 8.91267 41.0129 8.516 40.8169 8.04C40.6209 7.564 40.5229 7.004 40.5229 6.36V6.08C40.5229 5.464 40.6162 4.92733 40.8029 4.47C40.9896 4.01267 41.2416 3.63467 41.5589 3.336C41.8856 3.028 42.2589 2.79933 42.6789 2.65C43.0989 2.50067 43.5469 2.426 44.0229 2.426C45.1522 2.426 46.0156 2.72933 46.6129 3.336C47.2196 3.94267 47.5229 4.81067 47.5229 5.94V6.724H42.0909C42.1002 7.10667 42.1609 7.43333 42.2729 7.704C42.3942 7.96533 42.5482 8.18 42.7349 8.348C42.9309 8.50667 43.1502 8.62333 43.3929 8.698C43.6449 8.77267 43.9016 8.81 44.1629 8.81C44.6949 8.81 45.0822 8.726 45.3249 8.558C45.5769 8.39 45.7496 8.17067 45.8429 7.9H47.3829C47.2336 8.63733 46.8649 9.19733 46.2769 9.58C45.6982 9.96267 44.9936 10.154 44.1629 10.154ZM44.0929 3.77C43.8316 3.77 43.5796 3.80267 43.3369 3.868C43.1036 3.93333 42.8936 4.04067 42.7069 4.19C42.5296 4.33 42.3849 4.51667 42.2729 4.75C42.1609 4.974 42.1002 5.24933 42.0909 5.576H45.9829C45.9736 5.23067 45.9176 4.94133 45.8149 4.708C45.7216 4.47467 45.5909 4.288 45.4229 4.148C45.2549 4.008 45.0542 3.91 44.8209 3.854C44.5969 3.798 44.3542 3.77 44.0929 3.77Z" fill="#F14336"/>
<path d="M22.6023 10.154C22.089 10.154 21.6083 10.0747 21.1603 9.916C20.7217 9.748 20.339 9.50533 20.0123 9.188C19.6857 8.87067 19.429 8.47867 19.2423 8.012C19.0557 7.536 18.9623 6.98533 18.9623 6.36V6.08C18.9623 5.492 19.0557 4.974 19.2423 4.526C19.429 4.06867 19.6857 3.686 20.0123 3.378C20.339 3.06067 20.7217 2.82267 21.1603 2.664C21.6083 2.50533 22.089 2.426 22.6023 2.426C23.1157 2.426 23.5917 2.50533 24.0303 2.664C24.4783 2.82267 24.8657 3.06067 25.1923 3.378C25.519 3.686 25.7757 4.06867 25.9623 4.526C26.149 4.974 26.2423 5.492 26.2423 6.08V6.36C26.2423 6.98533 26.149 7.536 25.9623 8.012C25.7757 8.47867 25.519 8.87067 25.1923 9.188C24.8657 9.50533 24.4783 9.748 24.0303 9.916C23.5917 10.0747 23.1157 10.154 22.6023 10.154ZM22.6023 8.81C22.873 8.81 23.1297 8.76333 23.3723 8.67C23.6243 8.57667 23.8437 8.432 24.0303 8.236C24.2263 8.04 24.3803 7.788 24.4923 7.48C24.6137 7.172 24.6743 6.79867 24.6743 6.36V6.08C24.6743 5.67867 24.6137 5.33333 24.4923 5.044C24.3803 4.75467 24.2263 4.51667 24.0303 4.33C23.8437 4.14333 23.6243 4.00333 23.3723 3.91C23.1297 3.81667 22.873 3.77 22.6023 3.77C22.3317 3.77 22.0703 3.81667 21.8183 3.91C21.5757 4.00333 21.3563 4.14333 21.1603 4.33C20.9737 4.51667 20.8197 4.75467 20.6983 5.044C20.5863 5.33333 20.5303 5.67867 20.5303 6.08V6.36C20.5303 6.79867 20.5863 7.172 20.6983 7.48C20.8197 7.788 20.9737 8.04 21.1603 8.236C21.3563 8.432 21.5757 8.57667 21.8183 8.67C22.0703 8.76333 22.3317 8.81 22.6023 8.81Z" fill="#FBBB00"/>
<path d="M38.7702 10.07C38.3688 10.07 38.0235 10.028 37.7342 9.944C37.4448 9.86 37.2022 9.72467 37.0062 9.538C36.8195 9.342 36.6795 9.09 36.5862 8.782C36.5022 8.46467 36.4602 8.082 36.4602 7.634V0.199999H38.0002V7.522C38.0002 7.97933 38.0748 8.29667 38.2242 8.474C38.3735 8.642 38.6488 8.726 39.0502 8.726C39.1528 8.726 39.2415 8.726 39.3162 8.726C39.3908 8.71667 39.4655 8.70733 39.5402 8.698V10.028C39.4655 10.0467 39.3442 10.056 39.1762 10.056C39.0082 10.0653 38.8728 10.07 38.7702 10.07Z" fill="#28B446"/>
</svg>
