<svg width="100%" height="46" viewBox="0 0 135 40" fill="none" xmlns="http://www.w3.org/2000/svg">
<g clip-path="url(#clip0_3246:8507)">
<path fill-rule="evenodd" clip-rule="evenodd" d="M129.998 39.8359H5.00184C2.24512 39.8359 0 37.5908 0 34.8564V4.97949C0 2.23518 2.24512 0 5.00184 0H129.998C132.752 0 135 2.23518 135 4.97949V34.8564C135 37.5908 132.752 39.8359 129.998 39.8359Z" fill="black"/>
<path fill-rule="evenodd" clip-rule="evenodd" d="M129.998 0.797215C132.31 0.797215 134.203 2.67725 134.203 4.97949V34.8564C134.203 37.1587 132.323 39.0387 129.998 39.0387H5.00184C2.68967 39.0387 0.797215 37.1587 0.797215 34.8564V4.97949C0.797215 2.67725 2.67725 0.797215 5.00184 0.797215C5.00184 0.797215 129.998 0.797215 129.998 0.797215ZM129.998 0H5.00184C2.24512 0 0 2.24512 0 4.97949V34.8564C0 37.6007 2.24512 39.8359 5.00184 39.8359H129.998C132.752 39.8359 135 37.6007 135 34.8564V4.97949C135 2.24512 132.752 0 129.998 0Z" fill="#A6A6A6"/>
<path d="M71.1184 13.1781C70.2168 13.1781 69.4569 12.8627 68.8559 12.2418C68.2598 11.6383 67.927 10.8063 67.9419 9.95694C67.9419 9.05045 68.2499 8.28304 68.8559 7.67457C69.4544 7.05369 70.2143 6.73828 71.1159 6.73828C72.0075 6.73828 72.7674 7.05369 73.3784 7.67457C73.9844 8.30291 74.2923 9.07032 74.2923 9.95694C74.2824 10.8659 73.9744 11.6333 73.3784 12.2393C72.7798 12.8652 72.0199 13.1781 71.1184 13.1781ZM44.2937 13.1781C43.412 13.1781 42.6471 12.8676 42.0213 12.2542C41.4004 11.6433 41.085 10.8709 41.085 9.95943C41.085 9.04797 41.4004 8.27559 42.0213 7.66464C42.6347 7.05121 43.3996 6.74076 44.2937 6.74076C44.7308 6.74076 45.1555 6.82769 45.5628 7.00402C45.9626 7.17538 46.288 7.40884 46.5289 7.69444L46.5885 7.76647L45.9154 8.42709L45.8459 8.34513C45.4659 7.89313 44.9568 7.67209 44.2838 7.67209C43.6827 7.67209 43.1587 7.88567 42.7266 8.30788C42.292 8.73256 42.0709 9.28887 42.0709 9.96191C42.0709 10.6349 42.292 11.1913 42.7266 11.6159C43.1587 12.0381 43.6827 12.2517 44.2838 12.2517C44.9245 12.2517 45.4634 12.0381 45.8832 11.6159C46.1315 11.3676 46.2855 11.0199 46.3401 10.5803H44.1819V9.65147H47.2665L47.2789 9.73591C47.3012 9.89237 47.3236 10.0538 47.3236 10.2028C47.3236 11.0596 47.0653 11.7525 46.5537 12.2641C45.9726 12.8701 45.2126 13.1781 44.2937 13.1781ZM79.9597 13.0465H79.0085L76.0954 8.38487L76.1202 9.2243V13.044H75.169V6.87239H76.2543L76.2841 6.91958L79.0234 11.3105L78.9986 10.4735V6.87239H79.9597V13.0465V13.0465ZM63.9707 13.0465H63.0071V7.80123H61.3357V6.87239H65.6397V7.80123H63.9683V13.0465H63.9707ZM60.5509 13.0465H59.5898V6.87239H60.5509V13.0465ZM55.1492 13.0465H54.1881V7.80123H52.5167V6.87239H56.8206V7.80123H55.1492V13.0465ZM51.9082 13.0365H48.2226V6.87239H51.9082V7.80123H49.1863V9.49501H51.6425V10.4139H49.1863V12.1077H51.9082V13.0365ZM69.5612 11.6035C69.9908 12.0332 70.5124 12.2492 71.1184 12.2492C71.7417 12.2492 72.2508 12.0381 72.6755 11.6035C73.0977 11.1813 73.3113 10.6275 73.3113 9.95943C73.3113 9.29136 73.0977 8.73504 72.678 8.31533C72.2484 7.88567 71.7243 7.66961 71.1208 7.66961C70.4975 7.66961 69.9883 7.88071 69.5661 8.31533C69.1439 8.73753 68.9304 9.29136 68.9304 9.95943C68.9304 10.6275 69.1415 11.1838 69.5612 11.6035Z" fill="white"/>
<path fill-rule="evenodd" clip-rule="evenodd" d="M67.8529 21.6667C65.5059 21.6667 63.6035 23.4474 63.6035 25.9036C63.6035 28.3375 65.5183 30.1405 67.8529 30.1405C70.1998 30.1405 72.1022 28.3474 72.1022 25.9036C72.1022 23.4474 70.1998 21.6667 67.8529 21.6667ZM67.8529 28.4617C66.5689 28.4617 65.4637 27.3987 65.4637 25.8937C65.4637 24.3663 66.5713 23.3257 67.8529 23.3257C69.1368 23.3257 70.242 24.3663 70.242 25.8937C70.2445 27.4086 69.1368 28.4617 67.8529 28.4617ZM58.5818 21.6667C56.2348 21.6667 54.3324 23.4474 54.3324 25.9036C54.3324 28.3375 56.2473 30.1405 58.5818 30.1405C60.9287 30.1405 62.8311 28.3474 62.8311 25.9036C62.8311 23.4474 60.9263 21.6667 58.5818 21.6667ZM58.5818 28.4617C57.2978 28.4617 56.1926 27.3987 56.1926 25.8937C56.1926 24.3663 57.3003 23.3257 58.5818 23.3257C59.8658 23.3257 60.971 24.3663 60.971 25.8937C60.971 27.4086 59.8658 28.4617 58.5818 28.4617ZM47.5499 22.9606V24.7537H51.8539C51.7222 25.7596 51.3895 26.5021 50.8803 27.0113C50.2495 27.6421 49.276 28.3275 47.5598 28.3275C44.9149 28.3275 42.8461 26.1917 42.8461 23.5467C42.8461 20.9018 44.9149 18.7659 47.5598 18.7659C48.9879 18.7659 50.0285 19.3297 50.8009 20.0499L52.0724 18.7784C50.9995 17.7502 49.5715 16.9629 47.5698 16.9629C43.9413 16.9629 40.8965 19.9183 40.8965 23.5368C40.8965 27.1653 43.9388 30.1107 47.5698 30.1107C49.5293 30.1107 50.9995 29.47 52.1618 28.263C53.3465 27.0783 53.7215 25.4069 53.7215 24.0583C53.7215 23.6386 53.6892 23.2611 53.6222 22.9408H47.5474C47.5499 22.9383 47.5499 22.9606 47.5499 22.9606ZM92.6734 24.3564C92.3182 23.4052 91.2453 21.6568 89.0449 21.6568C86.8644 21.6568 85.0514 23.3729 85.0514 25.8937C85.0514 28.2729 86.8445 30.1306 89.256 30.1306C91.1932 30.1306 92.3207 28.9459 92.7851 28.2506L91.3472 27.2869C90.8703 27.9948 90.2072 28.4592 89.266 28.4592C88.3148 28.4592 87.6492 28.027 87.2071 27.1752L92.8721 24.8282C92.8721 24.8307 92.6734 24.3564 92.6734 24.3564ZM86.8967 25.772C86.8519 24.1353 88.1682 23.3034 89.1095 23.3034C89.8521 23.3034 90.4705 23.6684 90.6816 24.1999L86.8967 25.772ZM82.2947 29.8773H84.1548V17.4298H82.2947V29.8773ZM79.2399 22.608H79.1728C78.7531 22.1088 77.9559 21.6568 76.9376 21.6568C74.8242 21.6568 72.8771 23.5169 72.8771 25.9061C72.8771 28.2853 74.8142 30.1231 76.9376 30.1231C77.9435 30.1231 78.7531 29.6687 79.1728 29.1595H79.2399V29.768C79.2399 31.3848 78.3756 32.2565 76.9824 32.2565C75.8424 32.2565 75.1346 31.4369 74.8465 30.7515L73.2297 31.427C73.6941 32.5446 74.9334 33.9279 76.9799 33.9279C79.1604 33.9279 81.0082 32.6439 81.0082 29.5122V21.9101H79.2498V22.608C79.2523 22.608 79.2399 22.608 79.2399 22.608ZM77.1041 28.4617C75.8201 28.4617 74.7472 27.3888 74.7472 25.9061C74.7472 24.411 75.8201 23.3282 77.1041 23.3282C78.3756 23.3282 79.3616 24.4234 79.3616 25.9061C79.374 27.3888 78.3781 28.4617 77.1041 28.4617ZM101.383 17.4298H96.9351V29.8773H98.7953V25.1635H101.386C103.444 25.1635 105.469 23.6709 105.469 21.3016C105.469 18.9323 103.452 17.4298 101.383 17.4298ZM101.438 23.425H98.7928V19.1534H101.438C102.831 19.1534 103.618 20.3032 103.618 21.2892C103.618 22.2652 102.821 23.425 101.438 23.425ZM112.924 21.6444C111.573 21.6444 110.18 22.2429 109.604 23.5467L111.253 24.2322C111.608 23.5467 112.259 23.3133 112.947 23.3133C113.91 23.3133 114.884 23.8895 114.906 24.9177V25.0493C114.573 24.8605 113.843 24.5724 112.969 24.5724C111.188 24.5724 109.383 25.546 109.383 27.3714C109.383 29.0428 110.843 30.1157 112.47 30.1157C113.719 30.1157 114.407 29.5519 114.837 28.8988H114.904V29.8624H116.697V25.094C116.697 22.8737 115.048 21.6444 112.924 21.6444ZM112.691 28.4617C112.082 28.4617 111.23 28.1636 111.23 27.3987C111.23 26.4351 112.293 26.07 113.2 26.07C114.019 26.07 114.407 26.2463 114.894 26.4897C114.76 27.6073 113.816 28.4517 112.691 28.4617ZM123.238 21.9101L121.102 27.3093H121.035L118.823 21.9101H116.821L120.141 29.4576L118.249 33.6522H120.186L125.295 21.9101H123.238ZM106.494 29.8773H108.354V17.4298H106.494V29.8773Z" fill="white"/>
<path fill-rule="evenodd" clip-rule="evenodd" d="M10.392 7.5026C10.1039 7.81304 9.9375 8.2874 9.9375 8.90828V30.9298C9.9375 31.5507 10.1039 32.025 10.4019 32.3231L10.4789 32.3901L22.8171 20.0519V19.7762L10.469 7.43555L10.392 7.5026Z" fill="url(#paint0_linear_3246:8507)"/>
<path fill-rule="evenodd" clip-rule="evenodd" d="M26.9219 24.1767L22.8066 20.0615V19.7734L26.9219 15.6582L27.0113 15.7128L31.879 18.4795C33.2723 19.2643 33.2723 20.5607 31.879 21.3554L27.0113 24.1221L26.9219 24.1767Z" fill="url(#paint1_linear_3246:8507)"/>
<path fill-rule="evenodd" clip-rule="evenodd" d="M27.0104 24.1226L22.8058 19.918L10.3906 32.3332C10.8451 32.8199 11.6076 32.8746 12.4594 32.4002L27.0104 24.1226Z" fill="url(#paint2_linear_3246:8507)"/>
<path fill-rule="evenodd" clip-rule="evenodd" d="M27.0104 15.7137L12.4594 7.44851C11.6076 6.96174 10.8426 7.0288 10.3906 7.51557L22.8058 19.9183L27.0104 15.7137Z" fill="url(#paint3_linear_3246:8507)"/>
<path opacity="0.2" fill-rule="evenodd" clip-rule="evenodd" d="M26.9219 24.0332L12.4702 32.2438C11.663 32.7082 10.9428 32.6759 10.4784 32.2537L10.4014 32.3307L10.4784 32.3978C10.9428 32.8175 11.663 32.8523 12.4702 32.3878L27.0213 24.1226L26.9219 24.0332Z" fill="black"/>
<path opacity="0.12" fill-rule="evenodd" clip-rule="evenodd" d="M31.8787 21.2119L26.9092 24.0332L26.9986 24.1226L31.8663 21.3559C32.5642 20.9586 32.9069 20.437 32.9069 19.918C32.8647 20.3948 32.5096 20.8468 31.8787 21.2119Z" fill="black"/>
<path opacity="0.25" fill-rule="evenodd" clip-rule="evenodd" d="M12.4608 7.59201L31.8795 18.6239C32.5104 18.979 32.8655 19.4434 32.9201 19.9178C32.9201 19.3987 32.5774 18.8772 31.8795 18.4798L12.4608 7.44797C11.0675 6.65075 9.9375 7.31634 9.9375 8.90829V9.05233C9.9375 7.4579 11.0675 6.80473 12.4608 7.59201Z" fill="white"/>
</g>
<defs>
<linearGradient id="paint0_linear_3246:8507" x1="21.7104" y1="8.67069" x2="1.94673" y2="13.9367" gradientUnits="userSpaceOnUse">
<stop stop-color="#00A0FF"/>
<stop offset="0.00657" stop-color="#00A1FF"/>
<stop offset="0.2601" stop-color="#00BEFF"/>
<stop offset="0.5122" stop-color="#00D2FF"/>
<stop offset="0.7604" stop-color="#00DFFF"/>
<stop offset="1" stop-color="#00E3FF"/>
</linearGradient>
<linearGradient id="paint1_linear_3246:8507" x1="33.696" y1="19.9175" x2="9.59825" y2="19.9175" gradientUnits="userSpaceOnUse">
<stop stop-color="#FFE000"/>
<stop offset="0.4087" stop-color="#FFBD00"/>
<stop offset="0.7754" stop-color="#FFA500"/>
<stop offset="1" stop-color="#FF9C00"/>
</linearGradient>
<linearGradient id="paint2_linear_3246:8507" x1="24.7241" y1="22.2059" x2="8.85792" y2="48.91" gradientUnits="userSpaceOnUse">
<stop stop-color="#FF3A44"/>
<stop offset="1" stop-color="#C31162"/>
</linearGradient>
<linearGradient id="paint3_linear_3246:8507" x1="7.26435" y1="0.178449" x2="14.3429" y2="12.1049" gradientUnits="userSpaceOnUse">
<stop stop-color="#32A071"/>
<stop offset="0.0685" stop-color="#2DA771"/>
<stop offset="0.4762" stop-color="#15CF74"/>
<stop offset="0.8009" stop-color="#06E775"/>
<stop offset="1" stop-color="#00F076"/>
</linearGradient>
<clipPath id="clip0_3246:8507">
<rect width="135" height="39.8359" fill="white"/>
</clipPath>
</defs>
</svg>
