<svg width="14" height="14" viewBox="0 0 14 14" fill="none" xmlns="http://www.w3.org/2000/svg">
<path d="M13.8289 13.0041L9.84772 9.0229C10.6189 8.07034 11.0832 6.85992 11.0832 5.54161C11.0832 2.48615 8.59705 0 5.54159 0C2.48612 0 0 2.48612 0 5.54159C0 8.59705 2.48615 11.0832 5.54162 11.0832C6.85992 11.0832 8.07034 10.6189 9.0229 9.84772L13.0041 13.8289C13.1179 13.9427 13.2672 13.9998 13.4165 13.9998C13.5659 13.9998 13.7152 13.9427 13.8289 13.8289C14.057 13.6009 14.057 13.2322 13.8289 13.0041ZM5.54162 9.91654C3.12897 9.91654 1.16666 7.95424 1.16666 5.54159C1.16666 3.12894 3.12897 1.16664 5.54162 1.16664C7.95426 1.16664 9.91657 3.12894 9.91657 5.54159C9.91657 7.95424 7.95424 9.91654 5.54162 9.91654Z" fill="#2F2A2C"/>
</svg>
