<svg width="32" height="32" viewBox="0 0 32 32" fill="none" xmlns="http://www.w3.org/2000/svg">
<g clip-path="url(#clip0)">
<path d="M16.0052 7.78394C11.4679 7.78394 7.79456 11.4613 7.79456 15.9946C7.79456 20.5319 11.4719 24.2053 16.0052 24.2053C20.5426 24.2053 24.2159 20.5279 24.2159 15.9946C24.2159 11.4573 20.5386 7.78394 16.0052 7.78394ZM16.0052 21.3239C13.0599 21.3239 10.6759 18.9386 10.6759 15.9946C10.6759 13.0506 13.0612 10.6653 16.0052 10.6653C18.9492 10.6653 21.3346 13.0506 21.3346 15.9946C21.3359 18.9386 18.9506 21.3239 16.0052 21.3239Z" fill="#5F5B5D"/>
<path d="M22.5973 0.101736C19.6533 -0.0355971 12.3613 -0.0289304 9.4146 0.101736C6.82527 0.22307 4.54127 0.848403 2.69994 2.68974C-0.377397 5.76707 0.0159368 9.91374 0.0159368 15.9951C0.0159368 22.2191 -0.33073 26.2697 2.69994 29.3004C5.78927 32.3884 9.99594 31.9844 16.0053 31.9844C22.1706 31.9844 24.2986 31.9884 26.4786 31.1444C29.4426 29.9937 31.6799 27.3444 31.8986 22.5857C32.0373 19.6404 32.0293 12.3497 31.8986 9.40307C31.6346 3.78574 28.6199 0.37907 22.5973 0.101736ZM27.2573 27.2644C25.2399 29.2817 22.4413 29.1017 15.9666 29.1017C9.29994 29.1017 6.6266 29.2004 4.67594 27.2444C2.42927 25.0084 2.83594 21.4177 2.83594 15.9737C2.83594 8.60707 2.07994 3.30174 9.47327 2.92307C11.1719 2.86307 11.6719 2.84307 15.9479 2.84307L16.0079 2.88307C23.1133 2.88307 28.6879 2.13907 29.0226 9.53107C29.0986 11.2177 29.1159 11.7244 29.1159 15.9937C29.1146 22.5831 29.2399 25.2724 27.2573 27.2644Z" fill="#5F5B5D"/>
<path d="M24.5413 9.37859C25.601 9.37859 26.46 8.51957 26.46 7.45992C26.46 6.40027 25.601 5.54126 24.5413 5.54126C23.4817 5.54126 22.6227 6.40027 22.6227 7.45992C22.6227 8.51957 23.4817 9.37859 24.5413 9.37859Z" fill="#5F5B5D"/>
</g>
<defs>
<clipPath id="clip0">
<rect width="32" height="32" fill="white"/>
</clipPath>
</defs>
</svg>
