<svg width="16" height="14" viewBox="0 0 16 14" fill="#2F2A2C" xmlns="http://www.w3.org/2000/svg">
<path d="M15.0471 5.57342L2.13795 0.21689C1.59411 -0.00879738 0.979732 0.090484 0.534544 0.475859C0.089357 0.861296 -0.0968305 1.45514 0.0486695 2.0257L1.31723 7.00045L0.0486695 11.9752C-0.0968305 12.5458 0.0893257 13.1396 0.534513 13.525C0.980544 13.9112 1.59508 14.0093 2.13795 13.784L15.0471 8.42748C15.6349 8.18361 16 7.6368 16 7.00045C16 6.36411 15.6349 5.8173 15.0471 5.57342ZM14.6878 7.56155L1.77864 12.9181C1.56154 13.0081 1.32589 12.9701 1.14817 12.8162C0.970482 12.6624 0.899076 12.4346 0.957138 12.2068L2.16523 7.4692H6.82351C7.08242 7.4692 7.29229 7.25933 7.29229 7.00042C7.29229 6.74151 7.08242 6.53164 6.82351 6.53164H2.16526L0.957138 1.79408C0.899076 1.56633 0.970482 1.33852 1.14817 1.18467C1.32586 1.03083 1.56145 0.992765 1.77861 1.08283L14.6878 6.43936C15.0355 6.58361 15.0625 6.9053 15.0625 7.00045C15.0625 7.09561 15.0355 7.4173 14.6878 7.56155Z" fill="#2F2A2C"/>
</svg>
