<svg width="24" height="24" viewBox="0 0 64 64" fill="#808080" xmlns="http://www.w3.org/2000/svg">
<path fill="inherit" d="M56.9218 18.6687C56.4686 17.8704 55.8221 17.2043 55.0428 16.7376C54.2638 16.2709 53.3783 16.0179 52.4738 16.0019H18.9833L17.4657 9.97489C17.3112 9.39356 16.9711 8.88162 16.4955 8.52479C16.0189 8.1649 15.4411 7.98054 14.85 8.00163H9.61669C8.92381 8.00163 8.2559 8.28191 7.76661 8.78297C7.27498 9.2847 7 9.96199 7 10.6685C7 11.375 7.27498 12.0553 7.76661 12.5543C8.2559 13.0551 8.92381 13.335 9.61669 13.335H12.8615L20.082 40.6941C20.2362 41.2755 20.5763 41.7874 21.0529 42.1473C21.5285 42.5051 22.1073 42.6885 22.6987 42.6674H46.2469C46.7302 42.6674 47.2041 42.5283 47.6142 42.2701C48.0258 42.0112 48.3578 41.6405 48.5745 41.201L57.1568 23.7079C57.5286 22.9136 57.7008 22.039 57.6611 21.159C57.6197 20.279 57.3658 19.4225 56.9218 18.6687V18.6687ZM21.3904 56C23.5568 56 25.3154 54.208 25.3154 51.9997C25.3154 49.7928 23.5568 48.0008 21.3904 48.0008C19.2246 48.0008 17.4657 49.7928 17.4657 51.9997C17.4657 54.208 19.2246 56 21.3904 56ZM47.5552 56C49.7206 56 51.4789 54.208 51.4789 51.9997C51.4789 49.7928 49.7206 48.0008 47.5552 48.0008C45.3884 48.0008 43.6302 49.7928 43.6302 51.9997C43.6302 54.208 45.3884 56 47.5552 56ZM44.6241 37.334H24.6873L20.4222 21.3342H52.4738L44.6241 37.334Z"/>
</svg>
