<svg width="24" height="24" viewBox="0 0 24 24" fill="#8F8D8E" xmlns="http://www.w3.org/2000/svg">
<path fill="inherit" d="M5.42466 17.2211C5.26638 17.6561 5.28683 18.1262 5.48237 18.5449C6.13417 19.9408 8.15485 19.8532 8.68211 18.4043C8.84043 17.9693 8.81994 17.4991 8.6244 17.0805C7.9711 15.6815 5.95103 15.7748 5.42466 17.2211ZM7.59609 18.0091C7.50829 18.2504 7.28117 18.3897 7.05577 18.3897C6.65472 18.3897 6.37324 17.994 6.51065 17.6164C6.59701 17.3791 6.82094 17.2357 7.05111 17.2357C7.45136 17.2357 7.73373 17.631 7.59609 18.0091Z" />
<path fill="inherit" d="M20.6194 16.1041C19.719 14.1747 17.4785 13.2879 15.518 14.0332L14.9929 13.0864L17.6403 7.41296C18.5699 5.4206 17.6693 3.05938 15.6476 2.19163C15.3751 2.07467 15.0583 2.183 14.9144 2.44237L12.0017 7.69371L9.0854 2.43582C8.94156 2.17645 8.62471 2.0682 8.35217 2.18508C6.33191 3.05229 5.42922 5.41278 6.35957 7.40641L9.01024 13.0869L8.48179 14.0397C6.52132 13.2943 4.28079 14.1811 3.38045 16.1105C2.4355 18.1355 3.31065 20.5387 5.33699 21.4829C7.3633 22.4272 9.77194 21.5424 10.713 19.5258L12.0014 16.738L13.2877 19.5212C14.226 21.5319 16.6329 22.4224 18.6628 21.4765C20.6883 20.5327 21.5647 18.13 20.6194 16.1041ZM15.6482 3.50207C16.7178 4.2224 17.1827 5.66047 16.593 6.92423L14.3003 11.8377L12.6625 8.88497L15.6482 3.50207ZM9.66481 19.039C8.99152 20.4819 7.26904 21.1082 5.82511 20.4354C4.37906 19.7616 3.75254 18.0464 4.42772 16.5994C5.13067 15.0929 6.97373 14.4802 8.44755 15.2948C8.72656 15.449 9.07769 15.3481 9.23232 15.0693L9.61408 14.381L10.2868 15.8227C10.3817 16.0261 10.5859 16.1562 10.8104 16.1562H10.9972L9.66481 19.039ZM18.1747 20.4289C16.7308 21.1018 15.0083 20.4754 14.3359 19.0345L12.6265 15.3358C12.532 15.1313 12.3272 15.0004 12.102 15.0004H11.1784L7.40679 6.91772C6.81736 5.65458 7.28136 4.21628 8.35163 3.49556L14.7675 15.0628C14.9221 15.3416 15.2733 15.4425 15.5523 15.2882C17.0247 14.4744 18.8685 15.0851 19.5721 16.5928C20.2467 18.0386 19.6221 19.7545 18.1747 20.4289Z"/>
<path fill="inherit" d="M16.2212 16.2429C15.3544 16.6465 14.9774 17.6772 15.3826 18.5449C15.7807 19.3974 16.8058 19.7922 17.6859 19.3825C18.5529 18.9787 18.9297 17.9479 18.5246 17.0804C18.1265 16.228 17.1013 15.8331 16.2212 16.2429ZM17.4963 18.009C17.4435 18.1541 17.3376 18.2698 17.1981 18.3347C17.1176 18.3722 17.0407 18.3897 16.956 18.3897C16.7309 18.3897 16.5243 18.2586 16.4296 18.0558C16.3648 17.9171 16.3582 17.761 16.4108 17.6163C16.4636 17.4712 16.5695 17.3555 16.709 17.2905C16.7906 17.2526 16.8653 17.2356 16.9513 17.2356C17.1762 17.2356 17.3828 17.3667 17.4774 17.5694C17.5423 17.7082 17.5489 17.8643 17.4963 18.009Z" />
<path fill="inherit" d="M12 13.7343C12.3191 13.7343 12.5778 13.4756 12.5778 13.1564C12.5778 12.8373 12.3191 12.5786 12 12.5786C11.6808 12.5786 11.4221 12.8373 11.4221 13.1564C11.4221 13.4756 11.6808 13.7343 12 13.7343Z" />
</svg>
