<svg width="24" height="24" viewBox="0 0 64 64" fill="#808080" xmlns="http://www.w3.org/2000/svg">
<path fill="inherit" fill-rule="evenodd" clip-rule="evenodd" d="M27.1451 41.3736C28.5396 43.436 29.2039 45.9682 29.009 48.507C28.8103 51.1003 27.7329 53.5286 25.9782 55.3347C24.2229 57.1422 21.9137 58.2048 19.4772 58.3225C17.0515 58.4399 14.642 57.6016 12.7482 55.9792C10.8472 54.3509 9.5681 52.0382 9.14815 49.4755C8.72982 46.9211 9.2054 44.2621 10.4737 42.0511C11.7456 39.8339 13.7332 38.1848 16.06 37.4167C18.3296 36.6673 20.7725 36.8044 22.9543 37.7969L28.5117 28.4148L25.9373 24.0689L25.9304 24.0571L18.3901 11.3281L18.3885 11.3253L17.2275 9.36537C16.4435 8.04198 16.8163 6.27515 18.056 5.43827C19.2957 4.60138 20.9508 4.99933 21.7348 6.32272L31.9858 23.6275L31.9874 23.6303L33.1484 25.5902L33.1552 25.602L38.7002 34.9626L40.379 37.7969C42.5608 36.8044 45.0038 36.6673 47.2733 37.4167C49.6002 38.1848 51.5877 39.8339 52.8596 42.0511C54.1279 44.2621 54.6035 46.9211 54.1852 49.4755C53.7652 52.0382 52.4862 54.3509 50.5852 55.9792C48.6913 57.6016 46.2819 58.4399 43.8561 58.3225C41.4197 58.2048 39.1104 57.1422 37.3551 55.3347C35.6005 53.5286 34.5231 51.1003 34.3243 48.507C34.1295 45.9682 34.7937 43.436 36.1883 41.3736L32.4207 35.014L31.6667 33.7406L27.1451 41.3736ZM48.999 47.6405C48.999 48.9671 48.5033 50.2415 47.6247 51.1794C46.746 52.117 45.5525 52.647 44.3096 52.647C43.0669 52.647 41.8734 52.117 40.9945 51.1794C40.1159 50.2411 39.6201 48.9674 39.6201 47.6405C39.6201 46.3137 40.1159 45.04 40.9945 44.1017C41.8734 43.1641 43.0669 42.6342 44.3096 42.6342C45.5525 42.6342 46.746 43.1638 47.6247 44.1017C48.5033 45.04 48.999 46.314 48.999 47.6405ZM41.5986 6.32272C42.3825 4.99933 44.0376 4.60138 45.2773 5.43827C46.517 6.27515 46.8898 8.04198 46.1058 9.36537C43.7914 13.2723 41.4769 17.18 39.1625 21.0873C38.3788 22.4104 36.7234 22.8087 35.4837 21.9718C34.244 21.1349 33.8712 19.3681 34.6551 18.0447C36.9696 14.1374 39.2838 10.23 41.5986 6.32272ZM14.3343 47.6405C14.3343 48.9671 14.8301 50.2415 15.7087 51.1794C16.5873 52.117 17.7808 52.647 19.0238 52.647C20.2664 52.647 21.4599 52.117 22.3388 51.1794C23.2175 50.2411 23.7132 48.9674 23.7132 47.6405C23.7132 46.3137 23.2175 45.04 22.3388 44.1017C21.4599 43.1641 20.2664 42.6342 19.0238 42.6342C17.7808 42.6342 16.5873 43.1638 15.7087 44.1017C14.8301 45.04 14.3343 46.314 14.3343 47.6405Z" />
</svg>
