<svg width="29" height="27" viewBox="0 0 29 27" fill="#8F8D8E" xmlns="http://www.w3.org/2000/svg">
<path fill="inherit" d="M24.7 8.3L19.3 2.3C19.2 2.2 19.1 2.1 19 2.1C18.8 2 18.7 2 18.6 2H11.6C11.3 2 10.9 2.1 10.6 2.2C10.3 2.3 10 2.5 9.8 2.7C9.5 3 9.3 3.2 9.2 3.5C9.1 3.8 9 4.2 9 4.5V5H11V4.5C11 4.4 11 4.4 11 4.3C11 4.2 11.1 4.2 11.1 4.1C11.1 4.1 11.2 4 11.3 4C11.4 4 11.4 4 11.5 4H17V7.2C17 7.9 17.3 8.6 17.8 9.2C18.3 9.7 19 10 19.7 10H23V19.5C23 19.6 23 19.6 23 19.7C23 19.8 22.9 19.8 22.9 19.9C22.9 19.9 22.8 20 22.7 20C22.6 20 22.6 20 22.5 20H20V22H22.4C22.7 22 23.1 21.9 23.4 21.8C23.7 21.7 24 21.5 24.2 21.3C24.4 21.1 24.6 20.8 24.8 20.5C24.9 20.2 25 19.9 25 19.5V9C25 8.8 24.9 8.5 24.7 8.3ZM19.7 8C19.6 8 19.5 8 19.4 7.9C19.3 7.9 19.2 7.8 19.2 7.7C19.1 7.6 19.1 7.5 19 7.4C19 7.3 19 7.2 19 7.1V5L21.7 8H19.7Z" />
<path fill="inherit" d="M12 14.0001C12.8 14.0001 13.6 13.8001 14.2 13.3001C14.9 12.9001 15.4 12.2001 15.7 11.5001C16 10.8001 16.1 10.0001 15.9 9.20015C15.7 8.40015 15.4 7.70015 14.8 7.20015C14.2 6.60015 13.5 6.30015 12.8 6.10015C12 5.90015 11.2 6.00015 10.5 6.30015C9.7 6.60015 9.1 7.10015 8.7 7.80015C8.2 8.40015 8 9.20015 8 10.0001C8 11.1001 8.4 12.1001 9.2 12.8001C9.9 13.6001 10.9 14.0001 12 14.0001ZM12 8.00015C12.4 8.00015 12.8 8.10015 13.1 8.30015C13.4 8.50015 13.7 8.80015 13.8 9.20015C14 9.60015 14 10.0001 14 10.4001C13.9 10.8001 13.7 11.1001 13.5 11.4001C13.3 11.7001 12.9 11.9001 12.5 11.9001C12.1 12.0001 11.7 11.9001 11.3 11.8001C10.9 11.6001 10.6 11.4001 10.4 11.1001C10.1 10.8001 10 10.4001 10 10.0001C10 9.50015 10.2 9.00015 10.6 8.60015C11 8.20015 11.5 8.00015 12 8.00015Z" />
<path fill="inherit" d="M12 15C10.1 15 8.4 15.7 7.1 17.1C5.7 18.4 5 20.1 5 22C5 22.3 5.1 22.5 5.3 22.7C5.5 22.9 5.7 23 6 23C6.3 23 6.5 22.9 6.7 22.7C6.9 22.5 7 22.3 7 22C7 20.7 7.5 19.4 8.5 18.5C9.4 17.5 10.7 17 12 17C13.3 17 14.6 17.5 15.5 18.5C16.4 19.4 17 20.7 17 22C17 22.3 17.1 22.5 17.3 22.7C17.5 22.9 17.7 23 18 23C18.3 23 18.5 22.9 18.7 22.7C18.9 22.5 19 22.3 19 22C19 20.1 18.3 18.4 16.9 17.1C15.6 15.7 13.9 15 12 15Z" />
</svg>
