<svg width="24" height="24" viewBox="0 0 64 64" fill="#808080" xmlns="http://www.w3.org/2000/svg">
<path fill="inherit" fill-rule="evenodd" clip-rule="evenodd" d="M44.1362 32.465C46.2219 32.465 48.2218 33.2852 49.6965 34.7453C51.1706 36.2047 52 38.1854 52 40.2491V45.3992C52 46.6992 51.7721 47.9774 51.2996 49.1913C50.0918 52.2962 47.5024 54.487 44.5343 55.9011C40.717 57.7196 36.2001 58.3333 32.0007 58.3333C27.801 58.3333 23.2837 57.7196 19.4657 55.9011C16.4976 54.487 13.9085 52.2962 12.7004 49.1913C12.2279 47.9774 12 46.6992 12 45.3992V40.2491C12 38.1854 12.8291 36.2047 14.3031 34.7453C15.7782 33.2852 17.7781 32.465 19.8638 32.465H44.1362V32.465ZM32.0007 5C33.7152 5 35.4155 5.33527 36.9992 5.98495C38.5837 6.63464 40.0258 7.58729 41.2384 8.78813C42.4512 9.98897 43.4141 11.4165 44.0703 12.9855C44.7258 14.5539 45.0644 16.2367 45.0644 17.9342C45.0644 19.6317 44.7258 21.3158 44.0703 22.8842C43.4141 24.4539 42.4515 25.8814 41.238 27.0819C40.0251 28.2821 38.5837 29.2354 36.9992 29.8851C35.4151 30.5347 33.7152 30.8697 32.0007 30.8697C28.536 30.8697 25.2112 29.5071 22.7617 27.0815C20.3118 24.656 18.9353 21.3642 18.9353 17.9342C18.9353 14.5042 20.3118 11.214 22.7613 8.78813C25.2112 6.3619 28.5356 5 32.0007 5V5ZM44.1362 37.7351H19.8638C19.1903 37.7351 18.5443 38.0001 18.0681 38.4712C17.5923 38.9423 17.3243 39.5833 17.3243 40.2491V45.3992C17.3243 45.841 17.3783 46.2802 17.4894 46.7083C18.0335 48.8063 19.8258 50.2462 21.7138 51.1585C24.7764 52.6388 28.6338 53.0632 32.0007 53.0632C35.3673 53.0632 39.2239 52.6388 42.2862 51.1585C44.1746 50.2462 45.9662 48.8063 46.5106 46.7086C46.6217 46.2802 46.6754 45.8414 46.6754 45.3992V40.2491C46.6754 39.5833 46.4077 38.9423 45.9319 38.4712C45.4557 37.9997 44.8093 37.7351 44.1362 37.7351V37.7351ZM32.0007 10.2715C29.9475 10.2715 27.9783 11.0782 26.5263 12.5154C25.075 13.9527 24.2598 15.9021 24.2598 17.9342C24.2598 19.9673 25.0747 21.9167 26.5263 23.3543C27.9783 24.7918 29.9475 25.5982 32.0007 25.5982C34.0535 25.5982 36.0221 24.7915 37.4738 23.3543C38.9257 21.9167 39.7402 19.9673 39.7402 17.9342C39.7402 15.9021 38.9254 13.9527 37.4738 12.5154C36.0221 11.0785 34.0532 10.2715 32.0007 10.2715Z" />
</svg>
