<svg width="25" height="23" viewBox="0 0 25 23" stroke="#8F8D8E" fill="#8F8D8E" xmlns="http://www.w3.org/2000/svg">
<rect fill="inherit" x="6"  y="10" width="1.84615" height="3" rx="0.923077"/>
<rect fill="inherit" stroke="transparent" x="14" y="15" width="2" height="5" rx="1" />
<rect fill="inherit" stroke="transparent" x="16" y="18" width="2" height="10" rx="1" transform="rotate(90 16 18)" />
<rect fill="inherit" stroke="transparent" x="6" y="15" width="2" height="5" rx="1" />
<path stroke="inherit" fill="transparent" stroke-width="2" d="M21 22H4.5C2.84315 22 1.5 20.6569 1.5 19V18.5C1.5 16.8431 2.84315 15.5 4.5 15.5H15C16.6569 15.5 18 14.1569 18 12.5V11V9.17391C18 7.51706 16.6568 6.17391 15 6.17391H12.0343C10.8397 6.17391 9.87127 7.14234 9.87127 8.33696C9.87127 9.53157 8.90284 10.5 7.70822 10.5H5.87206C4.17559 10.5 2.81661 9.09444 2.87377 7.39893L2.99175 3.89893C3.04625 2.28233 4.37254 1 5.99005 1H21C22.6569 1 24 2.34315 24 4V19C24 20.6569 22.6569 22 21 22Z" />
</svg>
