<svg width="336" height="223" viewBox="0 0 336 223" fill="none" xmlns="http://www.w3.org/2000/svg">
<path d="M170.215 62.6748C167.219 57.7222 163.669 52.4344 158.109 50.8172C151.67 48.9445 145.056 52.6648 139.446 56.336C122.669 67.3152 106.512 79.2136 91.0488 91.9767L91.0657 92.1689C103.104 91.3392 115.142 90.5094 127.181 89.6797C135.878 89.0802 144.875 88.3979 152.561 84.2855C155.478 82.7249 158.321 80.6404 161.626 80.4951C165.732 80.3147 169.313 83.1811 172.127 86.1758C188.771 103.891 193.587 130.981 212.26 146.544C200.485 117.521 186.426 89.4763 170.215 62.6748Z" fill="#F2F2F2"/>
<path d="M272.523 212.928C270.682 210.605 269.93 210.061 268.115 207.717C253.332 188.607 239.437 168.852 226.431 148.451C217.596 134.595 209.2 120.474 201.241 106.086C197.452 99.246 193.767 92.3522 190.186 85.4048C187.407 80.018 184.691 74.5989 182.036 69.1476C181.277 67.5906 180.539 66.0265 179.805 64.4587C178.075 60.772 176.378 57.0675 174.555 53.4309C172.478 49.2861 169.95 44.9408 166.136 42.1561C164.4 40.8368 162.324 40.0385 160.152 39.8546C157.047 39.6542 154.182 40.9356 151.489 42.3351C131.786 52.6041 113.339 65.4789 96.6552 80.129C79.9281 94.8119 64.9768 111.4 52.1062 129.556C51.7124 130.117 50.7813 129.581 51.1787 129.015C52.7437 126.803 54.3397 124.615 55.9667 122.451C76.1973 95.5579 101.003 72.4316 129.25 54.1289C134.003 51.0507 138.844 48.1168 143.775 45.3274C146.26 43.9207 148.757 42.5319 151.296 41.2291C153.784 39.9513 156.427 38.8023 159.271 38.7593C168.947 38.609 173.957 49.5617 177.398 56.9315C178.48 59.2509 179.574 61.5631 180.682 63.8682C184.868 72.6195 189.216 81.291 193.724 89.8825C196.507 95.1871 199.35 100.461 202.255 105.703C211.293 122.028 220.9 138.023 231.075 153.687C244.555 174.436 257.926 192.766 273.282 212.169C273.705 212.706 272.949 213.472 272.523 212.928Z" fill="#F0F0F0"/>
<path d="M95.699 74.7236C95.1368 74.0972 94.5782 73.4708 94.0123 72.8444C89.5503 67.9122 84.7625 63.0371 78.6351 60.2095C75.7135 58.8187 72.5242 58.0798 69.2884 58.044C65.9437 58.0548 62.6742 58.9317 59.5837 60.1594C58.1226 60.7428 56.6937 61.405 55.2864 62.1101C53.6784 62.919 52.0991 63.7817 50.5271 64.6514C47.5762 66.2836 44.6636 67.9873 41.7893 69.7626C36.0702 73.2954 30.5302 77.0978 25.1693 81.1699C22.3903 83.2817 19.6686 85.4627 17.0043 87.7129C14.5262 89.8032 12.0982 91.9495 9.72038 94.152C9.21189 94.6209 8.45265 93.8621 8.96114 93.3932C9.58783 92.8098 10.2217 92.2299 10.8556 91.6572C12.6461 90.0394 14.4653 88.4526 16.3132 86.8968C19.6829 84.0548 23.1399 81.3226 26.6841 78.7002C32.1955 74.6198 37.8966 70.8162 43.7874 67.2894C46.7311 65.5283 49.7154 63.8413 52.7401 62.2282C53.6534 61.7414 54.5774 61.2654 55.512 60.8144C57.6327 59.7452 59.8363 58.8487 62.1012 58.1335C65.3095 57.0961 68.7041 56.7628 72.0531 57.1564C75.2866 57.6265 78.4021 58.7037 81.2351 60.3312C87.2512 63.6922 91.9173 68.8893 96.4582 73.9612C96.9167 74.4766 96.161 75.239 95.699 74.7236Z" fill="#F0F0F0"/>
<path d="M218.969 125.834L233.386 120.564L240.543 117.947C242.875 117.095 245.2 116.124 247.61 115.514C249.704 114.916 251.928 114.945 254.006 115.596C255.86 116.281 257.556 117.333 258.995 118.687C260.465 120.04 261.833 121.5 263.087 123.054C264.645 124.926 266.181 126.818 267.723 128.703C274.088 136.483 280.412 144.298 286.693 152.146C292.975 159.993 299.215 167.875 305.413 175.789C311.626 183.723 317.796 191.69 323.923 199.69C324.674 200.67 325.424 201.651 326.173 202.632C326.587 203.174 327.521 202.64 327.101 202.09C320.928 194.009 314.713 185.962 308.454 177.947C302.18 169.914 295.862 161.914 289.501 153.948C283.141 145.983 276.737 138.052 270.29 130.156C268.684 128.189 267.076 126.224 265.464 124.261C264.105 122.605 262.761 120.931 261.27 119.39C258.534 116.561 255.115 114.062 251.022 113.994C248.616 113.954 246.287 114.717 244.052 115.525C241.641 116.397 239.237 117.285 236.83 118.164L222.313 123.472L218.684 124.798C218.04 125.034 218.318 126.072 218.969 125.834L218.969 125.834Z" fill="#F0F0F0"/>
<path d="M76.7391 66.4166C69.413 62.6532 60.031 63.3903 53.2988 68.092C66.1399 70.3063 78.8404 73.2691 91.3355 76.9651C86.1468 73.9259 82.088 69.1643 76.7391 66.4166Z" fill="#F2F2F2"/>
<path d="M53.2268 68.0742L51.8164 69.22C52.2935 68.819 52.7894 68.443 53.2989 68.0872C53.2748 68.083 53.2508 68.0784 53.2268 68.0742Z" fill="#F2F2F2"/>
<path d="M258.452 125.888C257.033 124.161 255.499 122.354 253.376 121.652L251.395 121.73C266.48 148.374 286.854 171.655 311.267 190.144C293.662 168.725 276.057 147.307 258.452 125.888Z" fill="#F2F2F2"/>
<path d="M135.219 111.641C136.136 114.971 138.202 117.87 141.052 119.824C142.153 120.573 143.457 121.293 143.834 122.57C144.032 123.385 143.91 124.244 143.492 124.972C143.076 125.689 142.569 126.351 141.984 126.94L141.931 127.14C139.197 125.521 136.596 123.472 135.086 120.678C133.576 117.883 133.365 114.22 135.219 111.641" fill="#F2F2F2"/>
<path d="M226.239 190.902C227.156 194.233 229.222 197.131 232.071 199.085C233.173 199.835 234.476 200.554 234.853 201.832C235.051 202.647 234.929 203.506 234.512 204.233C234.095 204.951 233.588 205.613 233.004 206.202L232.95 206.402C230.216 204.782 227.615 202.734 226.105 199.939C224.595 197.145 224.384 193.482 226.239 190.902" fill="#F2F2F2"/>
<path d="M44.5921 185.438C45.5092 188.768 47.5753 191.666 50.4248 193.621C51.5264 194.37 52.8298 195.09 53.2067 196.367C53.405 197.182 53.2828 198.041 52.8655 198.768C52.4488 199.486 51.9419 200.148 51.3571 200.737L51.3037 200.937C48.5699 199.317 45.969 197.269 44.4589 194.474C42.9487 191.68 42.7379 188.017 44.5921 185.438" fill="#F2F2F2"/>
<path d="M253.622 39.8251C264.625 39.8251 273.544 30.9099 273.544 19.9125C273.544 8.91514 264.625 0 253.622 0C242.619 0 233.699 8.91514 233.699 19.9125C233.699 30.9099 242.619 39.8251 253.622 39.8251Z" fill="#FF005A"/>
<path d="M289.574 4.63561C279.918 3.33116 268.895 8.54732 266.393 17.9589C265.762 16.2855 264.615 14.8558 263.118 13.8764C261.622 12.897 259.852 12.4186 258.065 12.5102C256.279 12.6018 254.567 13.2588 253.179 14.3862C251.79 15.5136 250.796 17.0531 250.34 18.7822L251.445 19.5735C272.136 24.0457 293.555 23.9489 314.205 19.2899C307.488 12.235 299.229 5.94003 289.574 4.63561Z" fill="#F0F0F0"/>
<path d="M248.165 31.1864C238.51 29.8819 227.487 35.0981 224.984 44.5096C224.354 42.8363 223.207 41.4066 221.71 40.4272C220.213 39.4478 218.444 38.9693 216.657 39.061C214.87 39.1526 213.159 39.8096 211.77 40.937C210.382 42.0644 209.388 43.6039 208.932 45.333L210.037 46.1243C230.728 50.5965 252.147 50.4997 272.796 45.8407C266.08 38.7858 257.821 32.4908 248.165 31.1864Z" fill="#F0F0F0"/>
<path d="M332.437 36.2022C332.397 36.2023 332.357 36.1961 332.319 36.1839C229.032 3.53589 137.998 7.8052 79.8186 17.1358C71.9009 18.4051 63.9621 19.8711 56.2225 21.4935C54.2467 21.9072 52.1968 22.3507 50.1299 22.8124C47.6615 23.3619 45.2259 23.9277 42.8905 24.4935C41.8819 24.7322 40.8929 24.9728 39.9237 25.2153C38.4556 25.5775 36.9659 25.955 35.369 26.3698C33.5846 26.8297 31.7716 27.312 29.9792 27.8035C29.9727 27.8058 29.966 27.8077 29.9592 27.8092L29.9594 27.8096C27.9349 28.3621 25.921 28.9306 23.9735 29.4984C22.9195 29.8026 21.9017 30.1027 20.9268 30.399C20.8179 30.4291 20.7214 30.4581 20.6236 30.4878L20.4141 30.5515C20.2928 30.5885 20.173 30.6247 20.0532 30.659L20.0456 30.6613L20.0458 30.6617L19.7288 30.7601C19.3507 30.8745 18.9818 30.9862 18.6191 31.0975C9.03088 34.0518 3.75993 36.1534 3.70786 36.174C3.66024 36.1931 3.60934 36.2026 3.55804 36.202C3.50674 36.2014 3.45606 36.1908 3.4089 36.1706C3.36173 36.1504 3.31899 36.1212 3.28314 36.0845C3.24728 36.0478 3.219 36.0045 3.19992 35.9569C3.18083 35.9093 3.17131 35.8584 3.1719 35.8071C3.17249 35.7558 3.18318 35.7052 3.20335 35.6581C3.22352 35.6109 3.25279 35.5682 3.28947 35.5324C3.32616 35.4965 3.36955 35.4683 3.41717 35.4492C3.46962 35.4286 8.76632 33.3162 18.3894 30.3509C18.7535 30.2392 19.1234 30.1275 19.5026 30.0127L19.7971 29.9212C19.8072 29.9174 19.8173 29.9144 19.8276 29.9113C19.9468 29.8774 20.0658 29.8412 20.1868 29.8046L20.3966 29.7409C20.5011 29.7092 20.6041 29.678 20.7096 29.649C21.6778 29.3546 22.699 29.0538 23.7557 28.7484C25.7039 28.1803 27.7197 27.6118 29.7458 27.0585C29.7521 27.0562 29.7585 27.0547 29.7648 27.0528V27.0524C31.5635 26.5594 33.3832 26.0751 35.1733 25.6138C36.7727 25.1986 38.2652 24.8203 39.7358 24.4573C40.7092 24.2152 41.7 23.9741 42.7083 23.734C45.0465 23.1674 47.487 22.6008 49.9598 22.0502C52.0299 21.5881 54.0832 21.1435 56.0623 20.7295C63.8139 19.1044 71.7651 17.636 79.6948 16.3648C137.958 7.0209 229.122 2.7447 332.555 35.4396C332.643 35.4677 332.719 35.5266 332.769 35.6058C332.818 35.685 332.837 35.7791 332.823 35.8713C332.809 35.9634 332.762 36.0474 332.691 36.1081C332.62 36.1688 332.53 36.2022 332.437 36.2022Z" fill="#CCCCCC"/>
<path d="M102.734 163.922C102.598 163.526 102.371 163.169 102.07 162.879C101.958 162.776 101.838 162.683 101.71 162.602C100.691 161.923 99.1671 161.77 98.1983 162.602C98.1007 162.687 98.0106 162.779 97.9288 162.879C97.6397 163.235 97.3428 163.582 97.0381 163.922C96.5381 164.492 96.0264 165.042 95.4912 165.577C95.3388 165.726 95.1865 165.878 95.0302 166.026C94.9404 166.116 94.8505 166.202 94.7607 166.288C94.4169 166.616 94.0654 166.932 93.7099 167.244C93.5224 167.412 93.3349 167.576 93.1434 167.736C92.8583 167.975 92.5731 168.213 92.284 168.443C92.2567 168.463 92.2294 168.482 92.202 168.506C92.1942 168.509 92.1903 168.517 92.1825 168.521C92.1786 168.521 92.1747 168.521 92.1708 168.529C92.1602 168.533 92.1508 168.54 92.1434 168.549C92.0575 168.607 91.9989 168.646 91.9559 168.681C91.9715 168.673 91.9872 168.662 92.0028 168.654C91.9325 168.709 91.8582 168.763 91.7879 168.818C91.1043 169.322 90.4051 169.806 89.6902 170.259C87.9215 171.39 86.0638 172.376 84.1353 173.206C84.0064 173.257 83.8736 173.312 83.7408 173.363C78.6916 175.43 73.2145 176.237 67.7832 175.713C67.2285 175.67 66.6738 175.612 66.1191 175.537C65.4785 175.444 64.8417 175.33 64.2089 175.202C61.7997 174.721 59.4423 174.01 57.1696 173.078C54.3266 171.776 51.6226 170.191 49.099 168.345C48.7084 168.068 48.3138 167.791 47.9193 167.522C48.3685 166.421 48.8099 165.32 49.2396 164.211C49.4545 163.676 49.6615 163.141 49.8647 162.602C51.4624 158.452 52.9624 154.262 54.4 150.057C55.8531 145.797 57.2243 141.513 58.5134 137.204C58.6462 136.767 58.7751 136.329 58.9001 135.892C59.5759 133.616 60.2244 131.334 60.8455 129.048C60.9041 128.825 60.9666 128.606 61.0213 128.384C61.201 127.728 61.3768 127.072 61.5487 126.416C61.9393 124.936 61.0564 123.167 59.5017 122.812C58.7531 122.62 57.9593 122.726 57.2874 123.108C56.6156 123.49 56.1182 124.117 55.9 124.858C55.732 125.491 55.5641 126.119 55.3922 126.752C54.5679 129.809 53.7007 132.856 52.7905 135.892C52.6577 136.329 52.5249 136.767 52.3921 137.204C50.3842 143.818 48.1797 150.366 45.7786 156.847C45.4895 157.632 45.1965 158.414 44.8997 159.194C44.7551 159.576 44.6106 159.959 44.4621 160.341C44.177 161.095 43.884 161.849 43.591 162.602C43.423 163.043 43.2511 163.484 43.0793 163.922C42.966 164.199 42.8566 164.476 42.7472 164.749C41.6335 164.35 40.4795 164.072 39.3057 163.922L39.1182 163.898C38.2082 163.789 37.2879 163.797 36.3798 163.922C35.0208 164.08 33.7133 164.535 32.5495 165.254C31.3858 165.974 30.3943 166.94 29.6452 168.084C27.7819 171.016 27.8053 175.209 30.4187 177.7C33.1102 180.266 37.1846 180.246 40.3526 178.641C42.0315 177.734 43.4471 176.407 44.4621 174.792C44.851 174.206 45.2083 173.6 45.5325 172.976C45.6145 173.031 45.6966 173.085 45.7786 173.144C46.0911 173.363 46.4036 173.585 46.7122 173.804C48.5103 175.106 50.4052 176.269 52.3804 177.283C56.6274 179.393 61.199 180.775 65.9043 181.371C66.0097 181.382 66.1113 181.398 66.2168 181.41C66.7363 181.476 67.2598 181.527 67.7832 181.57C75.2921 182.135 82.8102 180.599 89.4949 177.134C90.0613 176.841 90.6225 176.534 91.1785 176.213C92.0418 175.713 92.8856 175.182 93.7099 174.62C94.1591 174.315 94.5966 174.007 95.0302 173.683C96.925 172.288 98.6913 170.726 100.308 169.017C100.921 168.373 101.508 167.708 102.07 167.022C102.6 166.461 102.906 165.724 102.929 164.953C102.926 164.6 102.86 164.251 102.734 163.922ZM38.0479 173.222C38.1299 173.164 38.2119 173.101 38.2901 173.039C38.2666 173.097 38.1533 173.164 38.0479 173.222H38.0479ZM39.3018 171.961C39.212 172.062 39.1299 172.164 39.0401 172.265C38.7667 172.571 38.4731 172.858 38.1611 173.124C38.1182 173.164 38.0713 173.203 38.0244 173.238C38.0239 173.238 38.0234 173.238 38.0229 173.238C38.0224 173.238 38.022 173.238 38.0216 173.239C38.0213 173.239 38.021 173.24 38.0208 173.24C38.0206 173.241 38.0205 173.241 38.0205 173.242C37.9641 173.267 37.9093 173.295 37.8564 173.328C37.6885 173.429 37.5166 173.523 37.3408 173.609C36.9966 173.735 36.6425 173.833 36.2822 173.901C36.0053 173.922 35.7274 173.924 35.4501 173.909H35.4423C35.251 173.867 35.0619 173.815 34.8759 173.753C34.7821 173.706 34.6923 173.652 34.6024 173.597C34.5673 173.566 34.536 173.534 34.5165 173.515C34.4783 173.48 34.4431 173.442 34.4111 173.402C34.4111 173.401 34.411 173.401 34.4108 173.4C34.4106 173.4 34.4103 173.399 34.4099 173.399C34.4096 173.399 34.4091 173.398 34.4086 173.398C34.4082 173.398 34.4077 173.398 34.4071 173.398C34.3642 173.32 34.3173 173.242 34.2743 173.163C34.2721 173.161 34.2707 173.159 34.2704 173.156C34.2392 173.058 34.2118 172.957 34.1884 172.855C34.1799 172.677 34.1812 172.498 34.1923 172.32C34.2447 172.071 34.3152 171.825 34.4032 171.586C34.4823 171.416 34.5724 171.252 34.6728 171.094C34.6806 171.079 34.7197 171.016 34.7626 170.946C34.7665 170.942 34.7665 170.942 34.7665 170.938C34.8251 170.872 34.8837 170.801 34.9462 170.739C35.0517 170.622 35.165 170.52 35.2783 170.415C35.4986 170.271 35.7268 170.139 35.9619 170.02C36.3348 169.888 36.7175 169.785 37.1065 169.712C37.68 169.666 38.2565 169.672 38.8292 169.728C39.3716 169.822 39.9067 169.953 40.4308 170.122C40.1132 170.738 39.7515 171.33 39.3487 171.895C39.3331 171.918 39.3175 171.941 39.3018 171.961ZM34.9579 170.676C34.9235 170.732 34.8829 170.783 34.8368 170.829C34.8678 170.771 34.9088 170.72 34.9579 170.676Z" fill="#2F2A2C"/>
<path d="M90.9905 124.046C90.9554 125.271 90.9202 126.497 90.885 127.723C90.8108 130.445 90.734 133.168 90.6546 135.892C90.5725 138.956 90.4866 142.02 90.3967 145.083C90.3538 146.664 90.3095 148.245 90.2639 149.826C90.1428 154.086 90.023 158.345 89.9046 162.602C89.8928 163.043 89.8772 163.48 89.8655 163.921C89.8069 166.034 89.7483 168.146 89.6897 170.258C89.6233 172.55 89.5582 174.842 89.4944 177.134C89.4475 178.852 89.3993 180.571 89.3498 182.292C88.9983 194.758 88.6467 207.225 88.2951 219.692C88.2803 220.464 87.9668 221.2 87.4206 221.746C86.8743 222.292 86.1377 222.605 85.3653 222.62C84.5902 222.614 83.8487 222.304 83.3006 221.756C82.7525 221.208 82.4418 220.467 82.4355 219.692C82.6309 212.68 82.8288 205.667 83.0293 198.655C83.2051 192.314 83.3835 185.973 83.5645 179.633C83.6231 177.544 83.6817 175.454 83.7403 173.362C83.8301 170.215 83.9187 167.068 84.0059 163.921C84.0176 163.48 84.0333 163.043 84.045 162.602C84.0528 162.215 84.0645 161.832 84.0762 161.446C84.2481 155.336 84.42 149.224 84.5919 143.111C84.6622 140.706 84.7299 138.299 84.795 135.892C84.8731 133.147 84.9513 130.403 85.0294 127.661C85.0645 126.455 85.0958 125.252 85.1309 124.046C85.1458 123.274 85.4592 122.537 86.0055 121.991C86.5518 121.445 87.2884 121.132 88.0607 121.117C88.8358 121.123 89.5774 121.434 90.1255 121.982C90.6736 122.53 90.9843 123.271 90.9905 124.046Z" fill="#2F2A2C"/>
<path d="M251.71 124.858C248.638 136.485 244.966 147.946 240.71 159.194C239.535 162.297 238.333 165.393 237.049 168.452L237.344 167.753C236.771 169.21 236.039 170.599 235.161 171.896C235.101 171.979 235.04 172.062 234.978 172.144C235.282 171.756 235.339 171.68 235.151 171.914C235.052 172.032 234.954 172.15 234.851 172.264C234.578 172.57 234.284 172.857 233.973 173.124C233.894 173.191 233.815 173.257 233.734 173.321L234.1 173.037C234.058 173.137 233.759 173.27 233.666 173.327C233.365 173.508 233.051 173.667 232.727 173.802L233.427 173.507C232.895 173.721 232.34 173.873 231.774 173.96L232.553 173.856C231.996 173.933 231.432 173.939 230.874 173.874L231.653 173.978C231.196 173.915 230.749 173.795 230.323 173.62L231.022 173.915C230.795 173.816 230.576 173.699 230.367 173.566C230.261 173.496 229.935 173.25 230.361 173.575C230.804 173.913 230.418 173.604 230.327 173.514C230.251 173.439 230.182 173.358 230.108 173.282C229.763 172.929 230.497 173.89 230.263 173.477C230.138 173.27 230.023 173.056 229.92 172.838L230.215 173.537C230.081 173.204 229.985 172.857 229.931 172.502L230.036 173.28C229.98 172.839 229.979 172.392 230.034 171.951L229.93 172.729C230.001 172.237 230.132 171.754 230.318 171.293L230.023 171.992C230.153 171.681 230.307 171.381 230.483 171.095C230.564 170.946 230.66 170.806 230.768 170.676C230.787 170.683 230.272 171.267 230.545 170.972C230.617 170.895 230.684 170.813 230.756 170.737C230.872 170.614 230.995 170.502 231.117 170.386C231.525 169.998 230.546 170.763 231.017 170.456C231.358 170.232 231.718 170.036 232.091 169.871L231.391 170.166C232.017 169.909 232.673 169.733 233.343 169.643L232.564 169.747C233.403 169.651 234.251 169.661 235.088 169.777L234.309 169.673C235.368 169.833 236.404 170.124 237.391 170.539L236.692 170.244C238.797 171.148 240.662 172.489 242.523 173.804C244.321 175.106 246.215 176.268 248.19 177.282C252.437 179.392 257.009 180.775 261.714 181.371C268.463 182.197 275.311 181.317 281.63 178.809C287.95 176.302 293.538 172.249 297.882 167.022C298.412 166.46 298.717 165.723 298.74 164.951C298.734 164.176 298.427 163.433 297.882 162.88C296.807 161.894 294.777 161.616 293.739 162.88C292.755 164.081 291.697 165.219 290.572 166.288C290.046 166.786 289.507 167.269 288.954 167.736C288.638 168.003 288.317 168.265 287.992 168.522C287.839 168.643 287.36 168.966 288.095 168.444C287.927 168.564 287.765 168.694 287.599 168.817C285.139 170.63 282.473 172.146 279.656 173.333L280.356 173.037C277.334 174.304 274.16 175.174 270.914 175.623L271.693 175.518C268.353 175.958 264.971 175.952 261.632 175.504L262.411 175.608C259.074 175.15 255.81 174.262 252.701 172.965L253.401 173.26C250.401 171.933 247.554 170.285 244.91 168.344C243.534 167.325 242.083 166.413 240.569 165.613C238.805 164.713 236.896 164.133 234.929 163.9C231.242 163.466 227.484 164.901 225.457 168.085C223.592 171.016 223.616 175.208 226.228 177.7C228.919 180.266 232.994 180.244 236.165 178.639C239.218 177.093 241.053 173.882 242.342 170.853C245.245 164.038 247.815 157.065 250.21 150.057C252.579 143.124 254.727 136.12 256.655 129.046C256.894 128.17 257.129 127.293 257.361 126.415C257.752 124.936 256.868 123.167 255.314 122.813C254.566 122.62 253.771 122.726 253.099 123.107C252.426 123.489 251.929 124.117 251.71 124.858L251.71 124.858Z" fill="#2F2A2C"/>
<path d="M280.943 124.045L279.888 161.447L278.839 198.654L278.246 219.692C278.253 220.467 278.563 221.208 279.112 221.756C279.66 222.303 280.401 222.614 281.176 222.621C281.948 222.606 282.685 222.292 283.231 221.746C283.777 221.201 284.091 220.464 284.106 219.692L285.16 182.291L286.209 145.084L286.802 124.045C286.796 123.271 286.485 122.53 285.937 121.982C285.389 121.434 284.648 121.124 283.873 121.117C283.1 121.132 282.364 121.445 281.818 121.991C281.271 122.537 280.958 123.274 280.943 124.045Z" fill="#2F2A2C"/>
<path opacity="0.2" d="M179.534 209.25H180.444V167.847H201.667V166.94H180.444V149.47H196.833C196.593 149.165 196.346 148.863 196.092 148.565H180.444V137.027C180.143 136.898 179.84 136.775 179.534 136.658V148.565H161.701V133.781C161.395 133.795 161.094 133.816 160.791 133.842V148.565H146.564V137.535C146.258 137.67 145.958 137.812 145.659 137.962V148.565H133.699V149.47H145.659V166.94H133.699V167.847H145.659V209.25H146.564V167.847C148.432 167.847 150.283 168.214 152.009 168.929C153.735 169.643 155.304 170.691 156.625 172.011C157.946 173.332 158.994 174.899 159.709 176.625C160.424 178.35 160.791 180.199 160.791 182.067V209.25H161.701V167.847H179.534V209.25ZM146.564 166.94V149.47H160.791V166.94H146.564ZM161.701 166.94V149.47H162.058C164.353 149.47 166.626 149.922 168.746 150.8C170.867 151.678 172.793 152.965 174.416 154.587C176.039 156.21 177.326 158.135 178.204 160.255C179.082 162.374 179.534 164.646 179.534 166.94H161.701Z" fill="#2F2A2C"/>
<path d="M173.977 196.834C172.832 201.941 170.088 206.55 166.145 209.992C165.856 210.242 165.567 210.484 165.266 210.722C164.535 210.789 163.81 210.856 163.09 210.925C162.492 210.98 161.902 211.039 161.317 211.093L161.211 211.105L161.137 210.465L160.84 207.872C159.688 205.993 158.974 203.879 158.751 201.686C158.528 199.493 158.801 197.279 159.551 195.206C160.582 192.426 162.449 189.97 164.285 187.534C166.821 184.168 169.286 180.842 169.375 176.738C170.623 178.334 171.66 180.083 172.461 181.943C171.705 182.299 171.026 182.799 170.461 183.415C170.301 183.59 170.141 183.837 170.25 184.047C170.344 184.227 170.579 184.27 170.782 184.293C171.27 184.344 171.762 184.395 172.251 184.446C172.641 184.489 173.032 184.528 173.422 184.571C173.895 186.121 174.216 187.714 174.379 189.326C174.643 191.834 174.507 194.368 173.977 196.834Z" fill="#2F2A2C"/>
<path d="M186.947 186.604C184.642 188.279 183.295 190.688 182.248 193.343C181.175 193.686 180.21 194.302 179.447 195.131C179.287 195.307 179.127 195.553 179.236 195.763C179.33 195.943 179.564 195.986 179.767 196.009C180.256 196.06 180.748 196.111 181.236 196.162C180.189 199.301 179.228 202.549 177.377 205.2C176.145 206.951 174.54 208.406 172.677 209.46C172.169 209.749 171.645 210.009 171.107 210.237C169.122 210.389 167.176 210.552 165.267 210.725C164.536 210.791 163.811 210.859 163.091 210.928C162.493 210.983 161.903 211.041 161.317 211.096C161.313 210.881 161.313 210.667 161.317 210.452C161.441 204.731 163.546 199.231 167.275 194.889C167.45 194.686 167.63 194.487 167.814 194.287C169.702 192.271 171.924 190.594 174.38 189.329C178.251 187.317 182.59 186.376 186.947 186.604Z" fill="#FF005A"/>
<path d="M163.766 208.926L163.317 210.254L163.09 210.929C162.493 210.984 161.903 211.042 161.317 211.097L161.212 211.109C160.563 211.175 159.918 211.242 159.274 211.308C159.106 211.113 158.938 210.914 158.774 210.711C154.696 205.776 152.739 199.428 153.33 193.055C153.921 186.682 157.011 180.802 161.926 176.699C161.411 179.397 162.012 181.982 163.001 184.547C162.895 184.59 162.794 184.633 162.696 184.68C161.94 185.036 161.26 185.536 160.696 186.152C160.536 186.327 160.376 186.573 160.485 186.784C160.579 186.964 160.813 187.007 161.016 187.03C161.504 187.081 161.997 187.132 162.485 187.183C162.876 187.225 163.266 187.265 163.657 187.307C163.84 187.327 164.024 187.347 164.208 187.366C164.235 187.425 164.258 187.479 164.286 187.538C165.399 189.951 166.598 192.375 167.274 194.89C167.444 195.521 167.577 196.161 167.673 196.807C167.973 198.991 167.779 201.214 167.102 203.312C166.426 205.41 165.286 207.329 163.766 208.926Z" fill="#FF005A"/>
<path d="M203.088 152.296C199.725 145.74 194.515 140.223 188.388 136.17C182.24 132.121 175.186 129.656 167.855 128.993C166.894 128.906 165.93 128.855 164.964 128.84C163.823 128.823 146.657 133.772 140.906 137.813C135.159 141.805 130.431 147.092 127.104 153.246C123.782 159.434 122.149 166.387 122.367 173.406C122.652 180.467 124.621 187.358 128.11 193.504C131.552 199.631 136.439 204.824 142.347 208.632C148.338 212.453 154.357 222.585 161.431 222.942C168.559 223.303 176.687 213.746 183.188 210.844C189.688 207.918 195.308 203.34 199.487 197.567C203.548 191.909 206.176 185.351 207.144 178.456C208.149 171.395 207.68 164.114 205.268 157.365C204.649 155.631 203.921 153.938 203.088 152.296C202.393 150.928 200.355 150.424 199.08 151.246C198.422 151.65 197.947 152.292 197.751 153.038C197.555 153.785 197.655 154.577 198.029 155.252C198.437 156.056 198.816 156.873 199.167 157.703L198.872 157.004C200.2 160.196 201.103 163.548 201.558 166.975L201.454 166.196C201.938 169.914 201.929 173.68 201.428 177.395L201.532 176.617C201.026 180.332 200.034 183.965 198.581 187.422L198.877 186.722C198.129 188.486 197.259 190.195 196.271 191.837C195.77 192.666 195.238 193.475 194.676 194.266C194.43 194.612 194.175 194.953 193.919 195.293C193.585 195.736 194.375 194.714 194.029 195.149C193.97 195.223 193.912 195.297 193.853 195.371C193.675 195.593 193.495 195.812 193.313 196.03C192.095 197.482 190.766 198.838 189.338 200.084C188.982 200.395 188.62 200.698 188.253 200.994C188.069 201.142 187.889 201.296 187.698 201.433C187.705 201.428 188.315 200.965 187.954 201.234C187.84 201.318 187.728 201.404 187.614 201.488C186.856 202.05 186.078 202.582 185.28 203.086C183.443 204.243 181.515 205.25 179.516 206.098L180.216 205.802C176.767 207.254 173.143 208.245 169.436 208.751L170.214 208.646C166.509 209.147 162.754 209.153 159.046 208.666L159.825 208.771C156.456 208.319 153.16 207.428 150.022 206.122L150.722 206.417C148.904 205.65 147.152 204.737 145.481 203.687C144.655 203.167 143.849 202.614 143.066 202.029C142.954 201.946 142.843 201.861 142.732 201.777C142.374 201.507 142.989 201.976 142.993 201.979C142.786 201.83 142.585 201.671 142.394 201.501C142.015 201.193 141.643 200.878 141.276 200.555C139.809 199.264 138.439 197.866 137.177 196.374C136.861 196.001 136.552 195.622 136.25 195.238C136.119 195.071 135.88 194.734 136.408 195.444C136.338 195.351 136.266 195.259 136.196 195.166C136.028 194.943 135.862 194.718 135.698 194.491C135.124 193.698 134.579 192.885 134.062 192.053C132.894 190.169 131.874 188.196 131.013 186.154L131.308 186.853C129.898 183.501 128.934 179.978 128.441 176.375L128.545 177.154C128.1 173.832 128.093 170.467 128.526 167.144L128.422 167.923C128.865 164.705 129.732 161.56 130.998 158.568L130.702 159.268C131.499 157.395 132.439 155.586 133.513 153.857C134.051 152.992 134.621 152.148 135.223 151.326C135.36 151.139 135.498 150.953 135.638 150.768C135.765 150.601 136.113 150.185 135.519 150.92C135.577 150.848 135.633 150.774 135.691 150.701C136.021 150.283 136.36 149.871 136.706 149.465C138.018 147.93 139.439 146.492 140.957 145.162C141.341 144.826 141.731 144.497 142.127 144.175C142.307 144.028 142.488 143.884 142.671 143.74C142.744 143.683 142.818 143.627 142.89 143.569C142.11 144.19 142.673 143.738 142.85 143.605C143.667 142.994 144.505 142.413 145.364 141.863C147.276 140.642 149.286 139.583 151.375 138.698L150.675 138.993C153.706 137.721 167.137 134.718 169.58 135.046L168.801 134.941C172.391 135.442 175.9 136.411 179.238 137.823L178.539 137.528C180.23 138.246 181.874 139.072 183.461 139.999C184.253 140.464 185.03 140.954 185.792 141.469C186.152 141.712 186.509 141.962 186.861 142.216C187.038 142.344 187.213 142.472 187.387 142.602C187.484 142.675 187.58 142.748 187.677 142.82C188.083 143.124 187.118 142.38 187.543 142.716C188.968 143.834 190.32 145.041 191.593 146.329C192.219 146.965 192.822 147.622 193.405 148.299C193.703 148.646 193.996 148.998 194.282 149.356C194.425 149.534 194.909 150.176 194.315 149.389C194.46 149.581 194.607 149.772 194.751 149.966C195.985 151.636 197.081 153.404 198.029 155.252C198.729 156.618 200.758 157.127 202.037 156.303C202.694 155.898 203.171 155.256 203.366 154.51C203.562 153.764 203.463 152.971 203.088 152.296Z" fill="#2F2A2C"/>
<path d="M168.949 200.082C168.647 200.096 168.347 200.017 168.091 199.855C167.836 199.693 167.636 199.457 167.519 199.177C167.402 198.898 167.374 198.59 167.438 198.294C167.503 197.999 167.657 197.73 167.879 197.524C167.916 197.376 167.943 197.27 167.98 197.122C167.967 197.09 167.953 197.058 167.94 197.026C166.581 193.786 157.906 202.817 157.531 205.862C157.366 207.208 157.436 208.572 157.737 209.895C154.928 203.769 153.469 197.11 153.459 190.371C153.459 188.68 153.553 186.991 153.741 185.31C153.896 183.932 154.112 182.564 154.388 181.206C155.894 173.837 159.127 166.93 163.822 161.053C166.508 161.203 168.861 160.794 169.088 155.593C169.129 154.667 169.815 153.866 169.966 152.955C169.71 152.988 169.45 153.009 169.193 153.026C169.113 153.03 169.029 153.034 168.949 153.039L168.919 153.04C168.638 153.053 168.358 152.984 168.115 152.841C167.871 152.699 167.674 152.489 167.547 152.238C167.42 151.986 167.369 151.703 167.399 151.423C167.43 151.142 167.54 150.877 167.718 150.658C167.829 150.522 167.939 150.386 168.05 150.25C168.218 150.04 168.391 149.834 168.559 149.624C168.578 149.604 168.596 149.583 168.613 149.561C168.807 149.321 169 149.086 169.193 148.847C168.84 148.299 168.366 147.841 167.806 147.507C165.869 146.373 163.196 147.158 161.797 148.91C160.393 150.661 160.128 153.119 160.616 155.307C161.095 157.169 161.888 158.936 162.961 160.532C162.856 160.667 162.747 160.797 162.642 160.931C160.721 163.399 159.047 166.05 157.644 168.845C158.041 165.745 153.186 154.551 151.309 152.18C149.053 149.332 144.429 150.575 144.032 154.186C144.028 154.221 144.024 154.255 144.02 154.29C144.299 154.448 144.572 154.615 144.839 154.791C145.175 155.015 145.435 155.335 145.585 155.71C145.736 156.084 145.769 156.495 145.682 156.889C145.595 157.282 145.391 157.641 145.096 157.916C144.802 158.192 144.431 158.373 144.032 158.434L143.991 158.44C140.258 163.767 152.225 177.632 155.22 174.519C153.81 178.513 152.926 182.672 152.589 186.893C152.399 189.384 152.41 191.886 152.623 194.374L152.61 194.286C151.945 188.866 140.527 180.807 137.193 181.478C135.273 181.865 133.381 181.777 133.672 183.714C133.677 183.744 133.682 183.775 133.687 183.806C134.204 184.017 134.708 184.26 135.195 184.533C135.474 184.69 135.747 184.857 136.014 185.034C136.35 185.258 136.61 185.578 136.76 185.952C136.911 186.326 136.944 186.737 136.857 187.131C136.77 187.525 136.565 187.883 136.271 188.159C135.977 188.435 135.606 188.615 135.207 188.677L135.166 188.683C135.136 188.687 135.111 188.691 135.082 188.695C133.383 194.539 145.984 203.97 153.644 200.969H153.648C154.407 204.266 155.507 207.476 156.93 210.546H168.655C168.697 210.415 168.735 210.281 168.773 210.151C167.688 210.219 166.598 210.154 165.529 209.958C166.399 208.891 167.268 207.815 168.138 206.749C168.158 206.729 168.176 206.708 168.193 206.685C168.634 206.139 169.08 205.598 169.521 205.052L169.521 205.051C169.545 203.377 169.353 201.707 168.949 200.083L168.949 200.082ZM155.523 173.683L155.529 173.675L155.523 173.692V173.683ZM152.925 197.083L152.825 196.857C152.829 196.693 152.829 196.529 152.825 196.361C152.825 196.315 152.816 196.269 152.816 196.222C152.854 196.512 152.888 196.802 152.93 197.092L152.925 197.083Z" fill="#2F2A2C"/>
<path d="M37.2091 175.699C39.5823 175.699 41.5061 173.776 41.5061 171.404C41.5061 169.032 39.5823 167.109 37.2091 167.109C34.8359 167.109 32.9121 169.032 32.9121 171.404C32.9121 173.776 34.8359 175.699 37.2091 175.699Z" fill="#2F2A2C"/>
<path d="M88.7716 222.551C91.1448 222.551 93.0686 220.628 93.0686 218.256C93.0686 215.884 91.1448 213.961 88.7716 213.961C86.3985 213.961 84.4746 215.884 84.4746 218.256C84.4746 220.628 86.3985 222.551 88.7716 222.551Z" fill="#2F2A2C"/>
<path d="M284.483 222.551C286.856 222.551 288.78 220.628 288.78 218.256C288.78 215.884 286.856 213.961 284.483 213.961C282.109 213.961 280.186 215.884 280.186 218.256C280.186 220.628 282.109 222.551 284.483 222.551Z" fill="#2F2A2C"/>
<path d="M295.029 167.891C297.403 167.891 299.326 165.968 299.326 163.596C299.326 161.224 297.403 159.301 295.029 159.301C292.656 159.301 290.732 161.224 290.732 163.596C290.732 165.968 292.656 167.891 295.029 167.891Z" fill="#2F2A2C"/>
<path d="M282.529 128.066C284.903 128.066 286.826 126.143 286.826 123.771C286.826 121.399 284.903 119.477 282.529 119.477C280.156 119.477 278.232 121.399 278.232 123.771C278.232 126.143 280.156 128.066 282.529 128.066Z" fill="#2F2A2C"/>
<path d="M103.226 163.598C103.223 164.695 102.799 165.749 102.041 166.542C101.282 167.335 100.248 167.806 99.1511 167.858C98.0547 167.909 96.9804 167.538 96.1503 166.82C95.3203 166.102 94.7982 165.093 94.692 164.001C94.5857 162.909 94.9036 161.818 95.5797 160.954C96.2559 160.09 97.2386 159.519 98.3244 159.358C99.4103 159.198 100.516 159.461 101.413 160.093C102.31 160.725 102.93 161.678 103.144 162.754C103.199 163.032 103.227 163.314 103.226 163.598Z" fill="#2F2A2C"/>
<path d="M189.166 140.558C191.539 140.558 193.463 138.636 193.463 136.264C193.463 133.892 191.539 131.969 189.166 131.969C186.793 131.969 184.869 133.892 184.869 136.264C184.869 138.636 186.793 140.558 189.166 140.558Z" fill="#2F2A2C"/>
<path d="M146.585 136.265C146.583 137.363 146.158 138.417 145.4 139.21C144.641 140.003 143.607 140.474 142.511 140.526C141.414 140.577 140.34 140.206 139.51 139.488C138.68 138.77 138.158 137.761 138.051 136.669C137.945 135.577 138.263 134.486 138.939 133.622C139.615 132.758 140.598 132.187 141.684 132.026C142.77 131.866 143.876 132.129 144.773 132.761C145.67 133.393 146.289 134.346 146.503 135.422C146.559 135.7 146.586 135.982 146.585 136.265Z" fill="#2F2A2C"/>
<path d="M91.1147 123.769C91.1122 124.866 90.6877 125.921 89.9292 126.714C89.1707 127.506 88.1362 127.978 87.0398 128.03C85.9434 128.081 84.869 127.71 84.039 126.992C83.209 126.274 82.6868 125.265 82.5806 124.173C82.4744 123.081 82.7923 121.99 83.4684 121.126C84.1446 120.262 85.1272 119.69 86.2131 119.53C87.2989 119.37 88.4048 119.633 89.302 120.265C90.1991 120.897 90.8187 121.85 91.0327 122.926C91.0878 123.204 91.1153 123.486 91.1147 123.769Z" fill="#2F2A2C"/>
<path d="M234.09 177.262C236.463 177.262 238.387 175.339 238.387 172.967C238.387 170.595 236.463 168.672 234.09 168.672C231.717 168.672 229.793 170.595 229.793 172.967C229.793 175.339 231.717 177.262 234.09 177.262Z" fill="#2F2A2C"/>
<path d="M166.51 138.217C169.962 138.217 172.76 135.42 172.76 131.97C172.76 128.52 169.962 125.723 166.51 125.723C163.058 125.723 160.26 128.52 160.26 131.97C160.26 135.42 163.058 138.217 166.51 138.217Z" fill="#2F2A2C"/>
<path d="M335.535 222.879L0.465122 222.999C0.404041 222.999 0.343557 222.987 0.287125 222.964C0.230694 222.94 0.179422 222.906 0.136231 222.863C0.0930401 222.82 0.0587751 222.768 0.0354004 222.712C0.0120257 222.656 0 222.595 0 222.534C0 222.473 0.0120257 222.413 0.0354004 222.356C0.0587751 222.3 0.0930401 222.249 0.136231 222.205C0.179422 222.162 0.230694 222.128 0.287125 222.105C0.343557 222.081 0.404041 222.069 0.465122 222.069L335.535 221.949C335.658 221.95 335.776 221.999 335.863 222.086C335.95 222.173 335.999 222.291 335.999 222.414C335.999 222.537 335.95 222.655 335.863 222.742C335.776 222.829 335.658 222.879 335.535 222.879Z" fill="#CACACA"/>
</svg>
