<svg width="360" height="233" viewBox="0 0 360 233" fill="none" xmlns="http://www.w3.org/2000/svg">
<path d="M328.358 232.311L318.076 201.337C318.076 201.337 329.386 212.627 329.386 221.89L327.356 200.469C327.356 200.469 333.156 208.285 332.576 220.153C331.996 232.022 328.358 232.311 328.358 232.311Z" fill="#F0F0F0"/>
<path d="M107.554 204.108L97.5195 173.879C97.5195 173.879 108.557 184.897 108.557 193.938L106.576 173.031C106.576 173.031 112.236 180.659 111.67 192.242C111.104 203.826 107.554 204.108 107.554 204.108Z" fill="#F0F0F0"/>
<path d="M264.179 218.057C264.196 237.943 224.686 231.826 176.317 231.868C127.947 231.91 89.0348 238.094 89.0176 218.208C89.0004 198.323 128.496 193.964 176.866 193.922C225.235 193.88 264.162 198.172 264.179 218.057Z" fill="#F0F0F0"/>
<path d="M230.28 191.2H223.957L220.947 166.852H230.28V191.2Z" fill="#7C1C3E"/>
<path d="M218.738 189.398H231.636V197.064H211.762V196.362C211.762 194.515 212.497 192.744 213.805 191.438C215.113 190.132 216.888 189.398 218.738 189.398Z" fill="#F44040"/>
<path d="M276.761 227.137H270.437L267.428 202.789H276.761V227.137Z" fill="#7C1C3E"/>
<path d="M265.219 225.336H278.117V233.001H258.242V232.3C258.242 230.453 258.977 228.682 260.286 227.376C261.594 226.07 263.368 225.336 265.219 225.336Z" fill="#F44040"/>
<path d="M305.929 154.806C306.366 154.277 306.682 153.658 306.854 152.994C307.025 152.33 307.049 151.636 306.923 150.961C306.798 150.287 306.525 149.648 306.125 149.09C305.726 148.532 305.208 148.069 304.609 147.732L289.922 88.0078L280.531 92.0411L298.001 149.789C297.501 150.831 297.401 152.019 297.72 153.13C298.039 154.24 298.755 155.195 299.732 155.813C300.71 156.431 301.88 156.67 303.022 156.485C304.164 156.299 305.199 155.702 305.929 154.806Z" fill="#7C1C3E"/>
<path d="M294.475 34.0987C293.951 33.5517 293.313 33.1261 292.606 32.8518C291.9 32.5775 291.141 32.4613 290.385 32.5113C289.628 32.5613 288.892 32.7762 288.227 33.1411C287.563 33.5059 286.987 34.0117 286.539 34.6229L263.807 37.2281L267.265 45.9809L287.939 42.1185C289.017 42.8007 290.309 43.0643 291.569 42.8594C292.829 42.6545 293.97 41.9953 294.775 41.0068C295.581 40.0183 295.996 38.769 295.94 37.4958C295.885 36.2226 295.364 35.0139 294.475 34.0987Z" fill="#7C1C3E"/>
<path d="M257.012 148.609L266.931 222.926L279.278 220.389C279.278 220.389 277.462 166.265 283.635 159.74C289.808 153.215 275.695 141.785 275.695 141.785L257.012 148.609Z" fill="#2F2A2C"/>
<path d="M261.114 128.141L256.557 134.964C256.557 134.964 221.468 120.408 221.468 143.607C221.468 166.806 219.461 182.55 218.734 183.638C218.008 184.725 227.136 187.547 231.494 186.822C231.494 186.822 236.87 149.421 236.506 147.246C236.506 147.246 270.927 164.092 277.463 162.642C283.999 161.192 285.544 156.06 286.633 153.16C287.722 150.26 286.177 127.231 286.177 127.231L264.39 120.594L261.114 128.141Z" fill="#2F2A2C"/>
<path d="M261.729 87.1737L260.43 85.6178C260.43 85.6178 245.883 52.9437 251.598 44.1268C257.313 35.31 282.252 34.0134 283.031 34.532C283.81 35.0507 281.169 41.7843 282.988 44.8961C282.988 44.8961 263.669 49.0772 262.37 49.5958C261.071 50.1144 272.38 69.2807 272.38 69.2807L271.081 80.95L261.729 87.1737Z" fill="#BFBFBF"/>
<path d="M287.188 71.0965C287.188 71.0965 273.68 72.6524 273.16 72.6524C272.641 72.6524 272.381 69.2812 272.381 69.2812L260.431 85.6183C260.431 85.6183 254.544 133.014 256.103 132.236C257.661 131.458 286.409 135.926 286.668 133.852C286.928 131.777 286.409 121.404 287.188 120.886C287.967 120.367 300.696 88.2115 300.696 88.2115C300.696 88.2115 299.398 81.4692 294.981 79.1353C290.565 76.8015 287.188 71.0965 287.188 71.0965Z" fill="#BFBFBF"/>
<path d="M296.539 83.8008L300.696 88.2092C300.696 88.2092 306.871 138.866 303.494 140.422C300.117 141.978 293.469 141.787 293.469 141.787L286.928 117.772L296.539 83.8008Z" fill="#BFBFBF"/>
<path d="M274.205 67.8873C280.809 67.8873 286.162 62.5435 286.162 55.9515C286.162 49.3595 280.809 44.0156 274.205 44.0156C267.601 44.0156 262.248 49.3595 262.248 55.9515C262.248 62.5435 267.601 67.8873 274.205 67.8873Z" fill="#7C1C3E"/>
<path d="M271.401 57.8128C271.239 55.3361 268.109 55.2513 265.623 55.2278C263.137 55.2044 260.164 55.293 258.758 53.2466C257.828 51.8942 258.006 50.0167 258.774 48.5667C259.542 47.1168 260.805 46.0016 262.048 44.9288C265.257 42.159 268.564 39.4112 272.416 37.6384C276.268 35.8655 280.783 35.1492 284.778 36.5723C289.686 38.3205 296.32 47.3196 296.893 52.4898C297.466 57.6601 295.396 62.9308 291.907 66.7943C288.418 70.6579 280.432 69.0991 275.406 70.4735C278.462 66.1567 276.448 58.313 271.553 56.2972L271.401 57.8128Z" fill="#2F2A2C"/>
<path d="M164.837 212.205C180.69 212.205 193.541 199.377 193.541 183.552C193.541 167.727 180.69 154.898 164.837 154.898C148.984 154.898 136.133 167.727 136.133 183.552C136.133 199.377 148.984 212.205 164.837 212.205Z" fill="#F44040"/>
<path d="M145.665 152.863C141.687 152.863 137.794 151.712 134.457 149.55C131.12 147.387 128.483 144.306 126.865 140.678L81.317 38.2854C79.8082 34.8937 79.0102 31.2297 78.9721 27.5188C78.934 23.8078 79.6566 20.1283 81.0955 16.7064C82.5343 13.2845 84.659 10.1925 87.339 7.62038C90.0189 5.0483 93.1975 3.05052 96.6794 1.74982C100.161 0.449126 103.873 -0.127 107.586 0.0568612C111.299 0.240723 114.935 1.18068 118.271 2.81897C121.607 4.45725 124.572 6.75925 126.984 9.58346C129.396 12.4077 131.203 15.6944 132.296 19.2417L165.278 126.329C166.222 129.394 166.433 132.638 165.894 135.799C165.354 138.961 164.08 141.952 162.173 144.532C160.265 147.112 157.778 149.21 154.911 150.657C152.044 152.104 148.877 152.86 145.665 152.863H145.665Z" fill="#F44040"/>
</svg>
