<svg width="370" height="332" viewBox="0 0 370 332" fill="none" xmlns="http://www.w3.org/2000/svg">
<g clip-path="url(#clip0_3309_8667)">
<path d="M366.723 272.764C363.357 293.473 348.193 309.508 332.05 323.521C329.796 325.478 327.536 327.397 325.271 329.277C325.256 329.286 325.24 329.304 325.224 329.314C325.115 329.404 325.006 329.494 324.905 329.583C324.438 329.971 323.97 330.359 323.506 330.742L323.797 330.833L324.704 331.111C324.393 331.026 324.086 330.944 323.775 330.859C323.682 330.833 323.585 330.811 323.493 330.784C312.789 327.893 301.868 324.72 293.118 317.946C284.04 310.911 277.788 298.918 280.919 287.868C281.331 286.42 281.903 285.023 282.625 283.702C282.921 283.149 283.246 282.615 283.588 282.087C285.657 278.838 288.554 276.197 291.981 274.439C295.409 272.68 299.243 271.865 303.089 272.079C306.936 272.293 310.656 273.528 313.867 275.656C317.078 277.784 319.664 280.73 321.36 284.189C321.207 272.013 310.085 263.134 299.654 256.85C289.219 250.571 277.404 243.786 274.123 232.054C272.294 225.526 273.833 218.803 277.425 213.123C277.536 212.95 277.648 212.777 277.764 212.608C282.168 205.966 288.917 201.229 296.661 199.345C311.112 196.067 326.256 202.105 338.109 211.003C357.185 225.317 370.548 249.219 366.723 272.764Z" fill="#F0F0F0"/>
<path d="M336.073 249.886C339.406 253.919 342.134 258.415 344.169 263.234C345.919 267.55 347.015 272.103 347.418 276.742C348.296 286.273 346.488 295.906 342.883 304.726C340.078 311.422 336.438 317.737 332.05 323.52C329.795 325.477 327.536 327.396 325.271 329.276C325.256 329.286 325.24 329.303 325.224 329.313C325.115 329.403 325.006 329.493 324.905 329.583C324.438 329.97 323.97 330.358 323.506 330.741L323.797 330.832L324.704 331.11C324.392 331.025 324.086 330.943 323.774 330.858C323.682 330.832 323.585 330.81 323.493 330.783C323.507 323.172 321.696 315.667 318.213 308.9C314.729 302.132 309.674 296.298 303.472 291.886C297.265 287.553 290.122 284.749 282.625 283.701C282.921 283.148 283.246 282.614 283.588 282.086C286.489 282.536 289.344 283.242 292.121 284.195C302.042 287.573 310.613 294.056 316.564 302.684C321.915 310.525 324.919 319.73 325.222 329.218C325.596 328.787 325.969 328.349 326.33 327.915C333.219 319.751 339.112 310.621 342.625 300.48C345.696 291.88 346.605 282.657 345.272 273.623C343.705 263.787 338.668 255.106 332.01 247.822C324.879 240.027 316.316 233.401 307.355 227.847C298.175 222.145 288.333 217.589 278.046 214.278C277.814 214.202 277.62 214.04 277.504 213.824C277.388 213.609 277.36 213.358 277.424 213.122C277.465 212.912 277.587 212.727 277.763 212.607C277.855 212.554 277.958 212.522 278.064 212.514C278.169 212.506 278.276 212.521 278.375 212.56C279.645 212.97 280.907 213.388 282.163 213.831C292.625 217.526 302.587 222.507 311.821 228.658C320.738 234.582 329.299 241.547 336.073 249.886Z" fill="white"/>
<path d="M154.132 202.595C153.104 202.593 152.114 202.201 151.363 201.497C150.613 200.793 150.158 199.83 150.091 198.804L149.489 189.613C149.419 188.54 149.778 187.482 150.487 186.674C151.196 185.865 152.198 185.371 153.271 185.301L225.274 180.585C226.41 180.51 227.549 180.66 228.626 181.025C229.704 181.391 230.699 181.965 231.554 182.715C232.41 183.465 233.109 184.376 233.613 185.396C234.116 186.417 234.413 187.526 234.488 188.662C234.562 189.797 234.412 190.936 234.046 192.013C233.68 193.091 233.105 194.085 232.355 194.941C231.604 195.796 230.693 196.495 229.672 196.997C228.651 197.5 227.542 197.797 226.406 197.871L154.404 202.586C154.313 202.592 154.222 202.595 154.132 202.595Z" fill="#219653"/>
<path d="M168.331 203.783C167.282 203.781 166.275 203.373 165.52 202.646C164.764 201.918 164.32 200.926 164.28 199.878L163.767 186.151C163.747 185.618 163.832 185.087 164.017 184.588C164.202 184.089 164.484 183.631 164.847 183.24C165.209 182.85 165.645 182.535 166.129 182.313C166.613 182.091 167.136 181.966 167.668 181.946L226.878 179.733C227.953 179.693 229 180.082 229.789 180.813C230.577 181.545 231.043 182.56 231.083 183.635L231.596 197.362C231.616 197.895 231.531 198.425 231.346 198.925C231.16 199.424 230.879 199.882 230.516 200.273C230.154 200.663 229.718 200.978 229.234 201.2C228.75 201.422 228.227 201.547 227.694 201.567L168.484 203.78C168.433 203.782 168.382 203.783 168.331 203.783Z" fill="#2F2A2C"/>
<path d="M237.714 330.32H228.503C227.428 330.318 226.397 329.891 225.637 329.13C224.876 328.37 224.448 327.339 224.447 326.264V249.501C224.448 248.426 224.876 247.395 225.637 246.635C226.397 245.874 227.428 245.447 228.503 245.445H237.714C238.789 245.447 239.82 245.874 240.58 246.635C241.341 247.395 241.768 248.426 241.77 249.501V326.264C241.768 327.339 241.341 328.37 240.58 329.13C239.82 329.891 238.789 330.318 237.714 330.32Z" fill="#2F2A2C"/>
<path d="M196.834 289.742L188.958 284.968C188.039 284.41 187.379 283.51 187.123 282.465C186.867 281.421 187.035 280.318 187.592 279.397L227.381 213.753C227.94 212.834 228.84 212.174 229.884 211.918C230.929 211.662 232.032 211.83 232.952 212.387L240.828 217.161C241.747 217.719 242.407 218.619 242.663 219.664C242.92 220.708 242.751 221.811 242.195 222.732L202.405 288.376C201.847 289.295 200.946 289.955 199.902 290.211C198.858 290.467 197.754 290.299 196.834 289.742Z" fill="#2F2A2C"/>
<path d="M223.725 165.333C241.301 165.333 255.549 151.084 255.549 133.508C255.549 115.932 241.301 101.684 223.725 101.684C206.149 101.684 191.9 115.932 191.9 133.508C191.9 151.084 206.149 165.333 223.725 165.333Z" fill="#219653"/>
<path d="M206.499 144.375C205.475 144.039 204.535 143.487 203.743 142.758C203.218 142.236 202.813 141.607 202.556 140.913C202.3 140.219 202.199 139.477 202.259 138.74C202.293 138.214 202.447 137.704 202.71 137.248C202.974 136.792 203.339 136.403 203.777 136.112C204.915 135.382 206.437 135.38 207.987 136.063L207.928 123.639L209.176 123.633L209.245 138.238L208.284 137.633C207.169 136.933 205.576 136.44 204.451 137.162C204.173 137.353 203.943 137.605 203.778 137.9C203.613 138.194 203.519 138.522 203.502 138.859C203.46 139.408 203.536 139.96 203.727 140.477C203.917 140.994 204.217 141.464 204.605 141.855C205.983 143.171 207.993 143.583 210.286 143.951L210.088 145.183C208.87 145.021 207.669 144.751 206.499 144.375Z" fill="#2F2A2C"/>
<path d="M195.064 123.013L194.9 124.25L201.564 125.13L201.728 123.893L195.064 123.013Z" fill="#2F2A2C"/>
<path d="M216.099 125.79L215.936 127.027L222.599 127.907L222.763 126.67L216.099 125.79Z" fill="#2F2A2C"/>
<path d="M250.299 270.097H196.634C195.228 270.095 193.88 269.536 192.885 268.541C191.891 267.547 191.332 266.199 191.33 264.793L202.565 178.639C202.574 177.239 203.136 175.9 204.13 174.913C205.123 173.927 206.467 173.374 207.866 173.375H226.911C234.518 173.384 241.811 176.409 247.19 181.788C252.569 187.167 255.595 194.46 255.603 202.067V264.793C255.602 266.199 255.042 267.547 254.048 268.541C253.054 269.536 251.705 270.095 250.299 270.097Z" fill="#2F2A2C"/>
<path d="M236.787 265.503C236.46 266.215 235.935 266.817 235.274 267.237C234.614 267.658 233.846 267.878 233.063 267.872L223.853 267.792C223.32 267.788 222.794 267.678 222.303 267.47C221.813 267.262 221.368 266.959 220.995 266.579C220.622 266.2 220.327 265.75 220.127 265.256C219.928 264.762 219.828 264.234 219.832 263.701L220.458 191.547C220.468 190.409 220.701 189.285 221.146 188.238C221.59 187.191 222.236 186.242 223.048 185.445C223.859 184.648 224.819 184.018 225.874 183.592C226.928 183.166 228.056 182.951 229.194 182.961C230.331 182.971 231.455 183.205 232.502 183.649C233.549 184.094 234.498 184.74 235.295 185.551C236.093 186.362 236.722 187.322 237.148 188.377C237.575 189.431 237.789 190.56 237.779 191.697L237.154 263.851C237.149 264.422 237.024 264.984 236.787 265.503Z" fill="#219653"/>
<path d="M240.854 246.242C240.528 246.953 240.003 247.556 239.342 247.976C238.682 248.396 237.914 248.617 237.131 248.611L221.4 248.474C220.324 248.464 219.297 248.027 218.543 247.26C217.79 246.493 217.371 245.459 217.379 244.383L217.893 185.134C217.897 184.602 218.007 184.075 218.215 183.585C218.423 183.094 218.726 182.65 219.106 182.276C219.485 181.903 219.935 181.608 220.429 181.409C220.923 181.209 221.451 181.109 221.984 181.113L237.715 181.25C238.247 181.254 238.774 181.364 239.264 181.572C239.754 181.78 240.199 182.083 240.572 182.463C240.946 182.842 241.24 183.292 241.44 183.786C241.64 184.28 241.74 184.808 241.735 185.341L241.222 244.59C241.217 245.16 241.092 245.723 240.854 246.242Z" fill="#2F2A2C"/>
<path d="M224.321 114.635C220.067 111.114 214.38 114.444 209.569 113.972C204.966 113.52 201.261 109.469 200.251 105.11C199.074 100.024 201.627 94.8586 205.472 91.6009C209.685 88.0329 215.34 86.9242 220.729 87.4671C226.906 88.0894 232.596 90.8549 237.719 94.2334C242.663 97.3906 247.224 101.109 251.312 105.315C254.976 109.21 258.105 113.875 259.177 119.189C260.152 124.019 259.58 129.402 256.793 133.562C255.314 135.695 253.31 137.41 250.975 138.544C248.541 139.797 245.937 140.709 243.583 142.118C240.024 144.248 236.608 148.591 237.819 153.019C238.08 153.986 238.574 154.875 239.258 155.607C240.08 156.485 241.51 155.276 240.686 154.396C239.238 152.848 239.254 150.748 239.974 148.854C240.832 146.719 242.39 144.939 244.392 143.806C246.857 142.334 249.59 141.403 252.119 140.057C254.54 138.825 256.628 137.027 258.205 134.815C261.181 130.51 261.99 124.965 261.199 119.866C260.344 114.347 257.406 109.373 253.762 105.227C249.797 100.716 244.959 96.925 240.026 93.5306C234.733 89.8884 228.904 86.8349 222.498 85.8122C216.945 84.9256 210.958 85.6501 206.176 88.7579C201.712 91.6588 198.34 96.5671 198.099 101.985C198.022 104.449 198.603 106.889 199.782 109.055C200.962 111.22 202.697 113.031 204.809 114.303C206.975 115.544 209.476 116.074 211.959 115.817C214.614 115.597 217.26 114.732 219.94 114.907C221.152 114.958 222.315 115.402 223.252 116.173C224.182 116.942 225.243 115.398 224.321 114.635V114.635Z" fill="#2F2A2C"/>
<path d="M186.901 280.507C186.912 280.437 186.925 280.366 186.941 280.296C187.052 279.775 187.265 279.281 187.568 278.843C187.871 278.405 188.258 278.031 188.707 277.743L196.447 272.751C197.351 272.169 198.449 271.97 199.5 272.197C200.551 272.424 201.47 273.058 202.054 273.961L225.929 310.977C226.512 311.881 226.712 312.98 226.485 314.031C226.258 315.083 225.623 316.001 224.719 316.584L216.979 321.577C216.075 322.158 214.977 322.358 213.925 322.131C212.874 321.904 211.956 321.27 211.372 320.367L187.497 283.35C186.951 282.51 186.739 281.496 186.901 280.507Z" fill="#2F2A2C"/>
<path d="M157.913 36.551C157.319 35.1391 156.323 33.9325 155.05 33.0805C153.777 32.2286 152.281 31.7687 150.749 31.7578H7.75161C5.6961 31.7589 3.72508 32.5759 2.27161 34.0294C0.818143 35.4829 0.00110449 37.4539 0 39.5094V220.415C0.00110449 222.47 0.818143 224.441 2.27161 225.895C3.72508 227.348 5.6961 228.165 7.75161 228.166H150.755C152.81 228.164 154.78 227.346 156.233 225.893C157.686 224.44 158.503 222.47 158.506 220.415V39.5094C158.51 38.494 158.31 37.4881 157.919 36.551H157.913ZM156.78 220.415C156.778 222.014 156.142 223.546 155.011 224.677C153.881 225.807 152.348 226.443 150.749 226.445H7.75161C6.15257 226.445 4.61907 225.809 3.48828 224.679C2.35748 223.548 1.72195 222.015 1.72141 220.416V39.5104C1.72359 37.9118 2.35961 36.3793 3.49002 35.2489C4.62043 34.1184 6.15298 33.4824 7.75161 33.4803H150.755C151.959 33.4848 153.134 33.8481 154.131 34.5237C155.128 35.1994 155.901 36.1567 156.352 37.2736C156.439 37.4961 156.515 37.7233 156.578 37.9539C156.715 38.4614 156.785 38.9848 156.785 39.5104L156.78 220.415Z" fill="#3F3D56"/>
<path d="M128.072 74.4701H84.9987C84.0848 74.4701 83.2083 74.107 82.562 73.4607C81.9158 72.8145 81.5527 71.938 81.5527 71.0241C81.5527 70.1102 81.9158 69.2337 82.562 68.5874C83.2083 67.9412 84.0848 67.5781 84.9987 67.5781H128.072C128.986 67.5781 129.862 67.9412 130.508 68.5874C131.155 69.2337 131.518 70.1102 131.518 71.0241C131.518 71.938 131.155 72.8145 130.508 73.4607C129.862 74.107 128.986 74.4701 128.072 74.4701Z" fill="#3F3D56"/>
<path d="M128.072 92.5599H84.9994C84.5465 92.5605 84.0979 92.4718 83.6793 92.2989C83.2607 92.126 82.8802 91.8723 82.5598 91.5522C82.2393 91.2322 81.985 90.8521 81.8116 90.4337C81.6381 90.0153 81.5488 89.5668 81.5488 89.1139C81.5488 88.661 81.6381 88.2125 81.8116 87.7942C81.985 87.3758 82.2393 86.9957 82.5598 86.6756C82.8802 86.3556 83.2607 86.1019 83.6793 85.9289C84.0979 85.756 84.5465 85.6674 84.9994 85.668H128.072C128.525 85.6674 128.974 85.756 129.392 85.9289C129.811 86.1019 130.192 86.3556 130.512 86.6756C130.832 86.9957 131.087 87.3758 131.26 87.7942C131.434 88.2125 131.523 88.661 131.523 89.1139C131.523 89.5668 131.434 90.0153 131.26 90.4337C131.087 90.8521 130.832 91.2322 130.512 91.5522C130.192 91.8723 129.811 92.126 129.392 92.2989C128.974 92.4718 128.525 92.5605 128.072 92.5599Z" fill="#3F3D56"/>
<path d="M62.8973 102.861H31.4198C30.3919 102.859 29.4065 102.451 28.6797 101.724C27.9529 100.997 27.5441 100.012 27.543 98.9837V61.8378C27.5441 60.8099 27.9529 59.8244 28.6797 59.0976C29.4065 58.3708 30.3919 57.962 31.4198 57.9609H62.8973C63.9252 57.962 64.9106 58.3708 65.6375 59.0976C66.3643 59.8244 66.7731 60.8099 66.7741 61.8378V98.9837C66.7731 100.012 66.3643 100.997 65.6375 101.724C64.9106 102.451 63.9252 102.859 62.8973 102.861Z" fill="#219653"/>
<path d="M127.773 129.603H30.4284C29.5145 129.603 28.638 129.24 27.9917 128.594C27.3455 127.947 26.9824 127.071 26.9824 126.157C26.9824 125.243 27.3455 124.366 27.9917 123.72C28.638 123.074 29.5145 122.711 30.4284 122.711H127.773C128.687 122.711 129.563 123.074 130.21 123.72C130.856 124.366 131.219 125.243 131.219 126.157C131.219 127.071 130.856 127.947 130.21 128.594C129.563 129.24 128.687 129.603 127.773 129.603Z" fill="#BFBFBF"/>
<path d="M127.773 147.693H30.4284C29.5145 147.693 28.638 147.33 27.9917 146.683C27.3455 146.037 26.9824 145.161 26.9824 144.247C26.9824 143.333 27.3455 142.456 27.9917 141.81C28.638 141.164 29.5145 140.801 30.4284 140.801H127.773C128.687 140.801 129.563 141.164 130.21 141.81C130.856 142.456 131.219 143.333 131.219 144.247C131.219 145.161 130.856 146.037 130.21 146.683C129.563 147.33 128.687 147.693 127.773 147.693Z" fill="#BFBFBF"/>
<path d="M127.772 165.783H30.4277C29.5145 165.781 28.6392 165.418 27.994 164.772C27.3487 164.126 26.9863 163.25 26.9863 162.337C26.9863 161.423 27.3487 160.548 27.994 159.902C28.6392 159.255 29.5145 158.892 30.4277 158.891H127.772C128.225 158.89 128.674 158.979 129.092 159.152C129.511 159.325 129.892 159.578 130.212 159.898C130.532 160.218 130.787 160.598 130.96 161.017C131.134 161.435 131.223 161.884 131.223 162.337C131.223 162.79 131.134 163.238 130.96 163.656C130.787 164.075 130.532 164.455 130.212 164.775C129.892 165.095 129.511 165.349 129.092 165.522C128.674 165.694 128.225 165.783 127.772 165.783Z" fill="#BFBFBF"/>
<path d="M127.773 183.872H30.4284C29.5145 183.872 28.638 183.509 27.9917 182.863C27.3455 182.217 26.9824 181.34 26.9824 180.426C26.9824 179.513 27.3455 178.636 27.9917 177.99C28.638 177.344 29.5145 176.98 30.4284 176.98H127.773C128.687 176.98 129.563 177.344 130.21 177.99C130.856 178.636 131.219 179.513 131.219 180.426C131.219 181.34 130.856 182.217 130.21 182.863C129.563 183.509 128.687 183.872 127.773 183.872Z" fill="#BFBFBF"/>
<path d="M127.773 201.966H30.4284C29.5145 201.966 28.638 201.603 27.9917 200.957C27.3455 200.311 26.9824 199.434 26.9824 198.52C26.9824 197.606 27.3455 196.73 27.9917 196.084C28.638 195.437 29.5145 195.074 30.4284 195.074H127.773C128.687 195.074 129.563 195.437 130.21 196.084C130.856 196.73 131.219 197.606 131.219 198.52C131.219 199.434 130.856 200.311 130.21 200.957C129.563 201.603 128.687 201.966 127.773 201.966Z" fill="#BFBFBF"/>
<path d="M158.982 66.5114C177.349 66.5114 192.238 51.6223 192.238 33.2557C192.238 14.8891 177.349 0 158.982 0C140.616 0 125.727 14.8891 125.727 33.2557C125.727 51.6223 140.616 66.5114 158.982 66.5114Z" fill="#219653"/>
<path d="M155.686 45.941C154.938 45.9423 154.21 45.7002 153.611 45.2514L153.574 45.2236L145.758 39.2449C145.397 38.9674 145.093 38.6213 144.865 38.2264C144.636 37.8315 144.488 37.3955 144.428 36.9434C144.369 36.4912 144.399 36.0317 144.516 35.5911C144.634 35.1505 144.838 34.7374 145.115 34.3754C145.393 34.0134 145.739 33.7097 146.134 33.4815C146.529 33.2532 146.965 33.105 147.417 33.0453C147.869 32.9856 148.329 33.0155 148.769 33.1334C149.21 33.2512 149.623 33.4547 149.985 33.7322L155.047 37.6142L167.009 22.0079C167.287 21.6461 167.633 21.3424 168.028 21.1143C168.422 20.8862 168.858 20.738 169.31 20.6783C169.762 20.6186 170.221 20.6485 170.662 20.7664C171.102 20.8842 171.515 21.0876 171.877 21.365L171.878 21.3657L171.804 21.4688L171.88 21.3657C172.61 21.9267 173.088 22.7544 173.208 23.6671C173.328 24.5799 173.082 25.5031 172.522 26.2342L158.452 44.5824C158.126 45.0051 157.708 45.3472 157.229 45.5821C156.75 45.817 156.223 45.9384 155.689 45.9368L155.686 45.941Z" fill="white"/>
<path d="M369.386 331.39H143.13C142.967 331.39 142.811 331.325 142.696 331.21C142.58 331.094 142.516 330.938 142.516 330.775C142.516 330.612 142.58 330.456 142.696 330.34C142.811 330.225 142.967 330.16 143.13 330.16H369.386C369.549 330.16 369.705 330.225 369.821 330.34C369.936 330.456 370.001 330.612 370.001 330.775C370.001 330.938 369.936 331.094 369.821 331.21C369.705 331.325 369.549 331.39 369.386 331.39Z" fill="#3F3D56"/>
</g>
<defs>
<clipPath id="clip0_3309_8667">
<rect width="370" height="331.39" fill="white"/>
</clipPath>
</defs>
</svg>
