<svg width="24" height="24" viewBox="0 0 24 24" fill="none" xmlns="http://www.w3.org/2000/svg">
<path d="M12 13C12.2652 13 12.5196 12.8946 12.7071 12.7071C12.8946 12.5196 13 12.2652 13 12V2C13 1.73478 12.8946 1.48043 12.7071 1.29289C12.5196 1.10536 12.2652 1 12 1C11.7348 1 11.4804 1.10536 11.2929 1.29289C11.1054 1.48043 11 1.73478 11 2V12C11 12.2652 11.1054 12.5196 11.2929 12.7071C11.4804 12.8946 11.7348 13 12 13Z" fill="#28B446"/>
<path d="M16.59 3.1099C16.354 2.9879 16.0791 2.96466 15.8259 3.0453C15.5728 3.12594 15.362 3.30385 15.24 3.5399C15.118 3.77594 15.0948 4.05078 15.1754 4.30395C15.2561 4.55713 15.434 4.7679 15.67 4.8899C17.2635 5.71257 18.5343 7.04676 19.2785 8.67831C20.0228 10.3099 20.1972 12.1442 19.7739 13.8868C19.3506 15.6294 18.3541 17.1792 16.9444 18.2876C15.5346 19.3959 13.7933 19.9984 12 19.9984C10.2067 19.9984 8.46544 19.3959 7.05566 18.2876C5.64588 17.1792 4.64937 15.6294 4.22607 13.8868C3.80277 12.1442 3.97725 10.3099 4.72148 8.67831C5.46572 7.04676 6.73656 5.71257 8.33001 4.8899C8.44688 4.82949 8.55072 4.74665 8.63558 4.64611C8.72044 4.54558 8.78467 4.42931 8.8246 4.30395C8.86453 4.17859 8.87938 4.0466 8.86829 3.9155C8.85721 3.7844 8.82041 3.65677 8.76001 3.5399C8.6996 3.42302 8.61676 3.31919 8.51622 3.23432C8.41569 3.14946 8.29942 3.08523 8.17406 3.0453C8.0487 3.00537 7.91671 2.99053 7.78561 3.00161C7.65451 3.01269 7.52688 3.04949 7.41001 3.1099C5.4187 4.13868 3.83074 5.80662 2.90098 7.84605C1.97121 9.88547 1.75355 12.1781 2.28292 14.3561C2.81229 16.534 4.058 18.471 5.82013 19.8561C7.58226 21.2413 9.75864 21.9943 12 21.9943C14.2414 21.9943 16.4178 21.2413 18.1799 19.8561C19.942 18.471 21.1877 16.534 21.7171 14.3561C22.2465 12.1781 22.0288 9.88547 21.099 7.84605C20.1693 5.80662 18.5813 4.13868 16.59 3.1099V3.1099Z" fill="#28B446"/>
</svg>
