<svg width="18" height="18" viewBox="0 0 18 18" fill="none" xmlns="http://www.w3.org/2000/svg">
<circle cx="9" cy="9" r="9" fill="#F0F0F0"/>
<path d="M8.52 10C8.52 9.848 8.528 9.708 8.544 9.58C8.568 9.444 8.612 9.312 8.676 9.184C8.748 9.048 8.844 8.908 8.964 8.764C9.092 8.62 9.26 8.46 9.468 8.284C9.804 7.996 10.06 7.736 10.236 7.504C10.412 7.272 10.5 7.024 10.5 6.76C10.5 6.376 10.372 6.06 10.116 5.812C9.86 5.564 9.508 5.44 9.06 5.44C8.612 5.44 8.26 5.564 8.004 5.812C7.748 6.06 7.62 6.376 7.62 6.76H6.54C6.54 6.432 6.596 6.132 6.708 5.86C6.828 5.58 6.996 5.34 7.212 5.14C7.436 4.932 7.704 4.772 8.016 4.66C8.328 4.54 8.676 4.48 9.06 4.48C9.444 4.48 9.792 4.54 10.104 4.66C10.416 4.772 10.68 4.932 10.896 5.14C11.12 5.34 11.288 5.58 11.4 5.86C11.52 6.132 11.58 6.432 11.58 6.76C11.58 6.984 11.544 7.196 11.472 7.396C11.4 7.596 11.3 7.788 11.172 7.972C11.052 8.148 10.912 8.32 10.752 8.488C10.592 8.648 10.428 8.8 10.26 8.944C10.124 9.056 10.012 9.164 9.924 9.268C9.836 9.364 9.764 9.46 9.708 9.556C9.66 9.644 9.624 9.736 9.6 9.832C9.584 9.92 9.576 10.016 9.576 10.12V10.36H8.52V10ZM9.06 13.12C8.828 13.12 8.628 13.04 8.46 12.88C8.3 12.712 8.22 12.512 8.22 12.28C8.22 12.04 8.3 11.84 8.46 11.68C8.628 11.52 8.828 11.44 9.06 11.44C9.292 11.44 9.488 11.52 9.648 11.68C9.816 11.84 9.9 12.04 9.9 12.28C9.9 12.512 9.816 12.712 9.648 12.88C9.488 13.04 9.292 13.12 9.06 13.12Z" fill="#2F2A2C"/>
</svg>
