<svg width="13" height="13" viewBox="0 0 13 13" fill="none" xmlns="http://www.w3.org/2000/svg">
<g clip-path="url(#clip0)">
<path d="M12.0139 12.2846L12.0289 12.2692C12.4153 11.8746 12.4153 11.2348 12.0289 10.8401L2.11438 0.713728C1.728 0.319097 1.10157 0.319098 0.715191 0.713728L0.700164 0.729077C0.313789 1.12371 0.313788 1.76353 0.700163 2.15816L10.6147 12.2846C11.0011 12.6792 11.6275 12.6792 12.0139 12.2846Z" fill="#5F5B5D"/>
<path d="M0.701396 12.2701L0.716424 12.2855C1.1028 12.6801 1.72923 12.6801 2.11561 12.2855L12.0302 2.15904C12.4165 1.76441 12.4165 1.12459 12.0302 0.729957L12.0151 0.714609C11.6288 0.319978 11.0023 0.319977 10.616 0.714608L0.701397 10.841C0.315023 11.2357 0.315022 11.8755 0.701396 12.2701Z" fill="#5F5B5D"/>
</g>
<defs>
<clipPath id="clip0">
<rect width="13" height="13" fill="white"/>
</clipPath>
</defs>
</svg>
