<svg width="40" height="40" viewBox="0 0 40 40" fill="none" xmlns="http://www.w3.org/2000/svg">
<rect width="40" height="40" rx="5" fill="white"/>
<path d="M26.8289 26.0041L22.8477 22.0229C23.6189 21.0703 24.0832 19.8599 24.0832 18.5416C24.0832 15.4861 21.5971 13 18.5416 13C15.4861 13 13 15.4861 13 18.5416C13 21.5971 15.4861 24.0832 18.5416 24.0832C19.8599 24.0832 21.0703 23.6189 22.0229 22.8477L26.0041 26.8289C26.1179 26.9427 26.2672 26.9998 26.4165 26.9998C26.5659 26.9998 26.7152 26.9427 26.8289 26.8289C27.057 26.6009 27.057 26.2322 26.8289 26.0041ZM18.5416 22.9165C16.129 22.9165 14.1667 20.9542 14.1667 18.5416C14.1667 16.1289 16.129 14.1666 18.5416 14.1666C20.9543 14.1666 22.9166 16.1289 22.9166 18.5416C22.9166 20.9542 20.9542 22.9165 18.5416 22.9165Z" fill="#2F2A2C"/>
</svg>
