<svg width="16" height="16" viewBox="0 0 16 16" fill="none" xmlns="http://www.w3.org/2000/svg">
<g clip-path="url(#clip0_3407_7943)">
<path d="M15.0471 6.57342L2.13795 1.21689C1.59411 0.991203 0.979732 1.09048 0.534544 1.47586C0.089357 1.8613 -0.0968305 2.45514 0.0486695 3.0257L1.31723 8.00045L0.0486695 12.9752C-0.0968305 13.5458 0.0893257 14.1396 0.534513 14.525C0.980544 14.9112 1.59508 15.0093 2.13795 14.784L15.0471 9.42748C15.6349 9.18361 16 8.6368 16 8.00045C16 7.36411 15.6349 6.8173 15.0471 6.57342ZM14.6878 8.56155L1.77864 13.9181C1.56154 14.0081 1.32589 13.9701 1.14817 13.8162C0.970482 13.6624 0.899076 13.4346 0.957138 13.2068L2.16523 8.4692H6.82351C7.08242 8.4692 7.29229 8.25933 7.29229 8.00042C7.29229 7.74151 7.08242 7.53164 6.82351 7.53164H2.16526L0.957138 2.79408C0.899076 2.56633 0.970482 2.33852 1.14817 2.18467C1.32586 2.03083 1.56145 1.99277 1.77861 2.08283L14.6878 7.43936C15.0355 7.58361 15.0625 7.9053 15.0625 8.00045C15.0625 8.09561 15.0355 8.4173 14.6878 8.56155Z" fill="#2F2A2C"/>
</g>
<defs>
<clipPath id="clip0_3407_7943">
<rect width="16" height="16" fill="white"/>
</clipPath>
</defs>
</svg>
