<svg width="24" height="24" viewBox="0 0 64 64" fill="#808080" xmlns="http://www.w3.org/2000/svg">
<path fill="inherit" d="M16.3334 52.2822H26.1513L29.9063 45.9995C30.8518 43.8602 33.84 43.9152 34.7603 45.9995L38.5154 52.2822H48.3333V41.2034C47.0649 40.9959 46.0956 39.8851 46.0956 38.5458C46.0956 37.2065 47.0649 36.0957 48.3333 35.8882V16.0478C46.8873 15.3625 45.8377 14.284 45.1045 13.2559C44.0863 13.7625 43.185 14.1902 42.2837 14.6182C41.4444 15.0163 40.6047 15.4147 39.679 15.8729C41.0572 18.9506 41.6091 21.5769 41.5727 23.7652C41.541 25.6623 41.078 27.2623 40.3176 28.5747C39.5245 29.9428 38.4266 30.9712 37.1623 31.6799C35.681 32.5108 33.9792 32.8927 32.292 32.8642C30.6902 32.8367 29.0738 32.442 27.6547 31.6462C26.3282 30.9022 25.1738 29.8113 24.3542 28.3449C23.571 26.9438 23.1178 25.2336 23.1515 23.205C23.1859 21.1324 23.7357 18.6926 24.9904 15.8743C24.0636 15.4154 23.2233 15.0166 22.3829 14.6182C21.4817 14.1902 20.5804 13.7625 19.5621 13.2559C18.8293 14.284 17.7793 15.3625 16.3334 16.0474V35.8882C17.6017 36.0957 18.571 37.2065 18.571 38.5458C18.571 39.8851 17.6017 40.9959 16.3334 41.2034V52.2822V52.2822ZM23.7721 41.2442C22.3108 41.2442 21.1261 40.0358 21.1261 38.5458C21.1261 37.0558 22.3108 35.8474 23.7721 35.8474H28.3995C29.8607 35.8474 31.0454 37.0558 31.0454 38.5458C31.0454 40.0358 29.8607 41.2442 28.3995 41.2442H23.7721ZM40.8943 35.8474C42.3555 35.8474 43.5402 37.0558 43.5402 38.5458C43.5402 40.0358 42.3555 41.2442 40.8943 41.2442H36.2668C34.8056 41.2442 33.6209 40.0358 33.6209 38.5458C33.6209 37.0558 34.8056 35.8474 36.2668 35.8474H40.8943ZM27.8731 57.6667H13.6667C12.1942 57.6667 11 56.461 11 54.9744V14.0439H11.0058C11.0044 12.6864 12.0186 11.5193 13.3853 11.3726C15.2321 11.1734 15.9142 8.91014 15.9159 8.90396C15.9636 8.74699 16.0258 8.59205 16.1037 8.44126C16.7825 7.1288 18.387 6.62045 19.687 7.30571C21.6545 8.3451 23.144 9.05232 24.6332 9.75922C26.1353 10.472 27.6394 11.1857 29.6842 12.2636L29.8454 12.3467C31.1284 13.067 31.5901 14.701 30.8767 15.9962C29.1932 19.0557 28.4941 21.457 28.4638 23.2888C28.4468 24.3104 28.6414 25.1113 28.9792 25.7159C29.2807 26.2552 29.7223 26.666 30.2384 26.9555C30.8722 27.3111 31.619 27.4883 32.375 27.501C33.1643 27.5141 33.937 27.3492 34.5787 26.9892C35.0461 26.7271 35.449 26.3527 35.7341 25.8612C36.0511 25.314 36.2454 24.5937 36.2604 23.6814C36.2917 21.7981 35.5925 19.2717 33.79 15.9962L33.759 15.9331C33.0803 14.6206 33.5838 13.0007 34.8838 12.3154C36.9793 11.2087 38.5072 10.4833 40.0335 9.75922C41.5067 9.05988 42.9805 8.36021 44.9171 7.33868C45.0794 7.248 45.2532 7.17276 45.438 7.11608C46.8417 6.68638 48.3251 7.48673 48.7507 8.90396C48.7524 8.91014 49.4064 11.0789 51.1667 11.3571C52.5616 11.444 53.6667 12.6139 53.6667 14.0439V54.9744C53.6667 56.461 52.4725 57.6667 51 57.6667H36.7935V57.6584C35.7773 57.6574 34.8073 57.0652 34.3663 56.0681L32.3335 52.3148L30.3915 55.8616C30.0281 56.9124 29.0377 57.6667 27.8731 57.6667V57.6667Z" />
</svg>
