<svg width="24" height="24" viewBox="0 0 24 24" fill="#8F8D8E" stroke="#8F8D8E" xmlns="http://www.w3.org/2000/svg">
<path stroke-width="0" stroke="inherit"  fill="inherit" d="M1.6683 10.2303L0.967041 9.51736H0.967041L1.6683 10.2303ZM1.61288 11.597L0.85621 12.2508H0.85621L1.61288 11.597ZM3.21129 13.4469L3.96796 12.7931H3.96796L3.21129 13.4469ZM4.637 13.5363L3.96796 12.7931L3.96796 12.7931L4.637 13.5363ZM5.91041 12.39L6.57944 13.1333L5.91041 12.39ZM8.31743 2.28709L0.967041 9.51736L2.36956 10.9432L9.71995 3.71291L8.31743 2.28709ZM0.85621 12.2508L2.45462 14.1007L3.96796 12.7931L2.36956 10.9432L0.85621 12.2508ZM5.30603 14.2796L6.57944 13.1333L5.24137 11.6468L3.96796 12.7931L5.30603 14.2796ZM6.57944 13.1333V20H8.57944V13.1333H6.57944ZM8.57944 22H12V20H8.57944V22ZM6.57944 20C6.57944 21.1046 7.47487 22 8.57944 22V20H6.57944ZM6.57944 13.1333H8.57944C8.57944 11.4017 6.52838 10.4883 5.24137 11.6468L6.57944 13.1333ZM2.45462 14.1007C3.18717 14.9485 4.47326 15.0292 5.30603 14.2796L3.96796 12.7931V12.7931L2.45462 14.1007ZM0.967041 9.51736C0.215303 10.2568 0.166808 11.4529 0.85621 12.2508L2.36956 10.9432H2.36956L0.967041 9.51736Z" />
<path stroke-width="0" stroke="inherit"  fill="inherit" d="M22.3317 10.2303L23.033 9.51736H23.033L22.3317 10.2303ZM22.3871 11.597L23.1438 12.2508H23.1438L22.3871 11.597ZM20.7887 13.4469L20.032 12.7931H20.032L20.7887 13.4469ZM19.363 13.5363L20.032 12.7931L20.032 12.7931L19.363 13.5363ZM18.0896 12.39L17.4206 13.1333L18.0896 12.39ZM15.6826 2.28709L23.033 9.51736L21.6304 10.9432L14.2801 3.71291L15.6826 2.28709ZM23.1438 12.2508L21.5454 14.1007L20.032 12.7931L21.6304 10.9432L23.1438 12.2508ZM18.694 14.2796L17.4206 13.1333L18.7586 11.6468L20.032 12.7931L18.694 14.2796ZM17.4206 13.1333V20H15.4206V13.1333H17.4206ZM15.4206 22H12V20H15.4206V22ZM17.4206 20C17.4206 21.1046 16.5251 22 15.4206 22V20H17.4206ZM17.4206 13.1333H15.4206C15.4206 11.4017 17.4716 10.4883 18.7586 11.6468L17.4206 13.1333ZM21.5454 14.1007C20.8128 14.9485 19.5267 15.0292 18.694 14.2796L20.032 12.7931V12.7931L21.5454 14.1007ZM23.033 9.51736C23.7847 10.2568 23.8332 11.4529 23.1438 12.2508L21.6304 10.9432H21.6304L23.033 9.51736Z"/>
<path d="M15 3L14.4 3.8C13.2 5.4 10.8 5.4 9.6 3.8L9 3" stroke="inherit" stroke-width="2" stroke-linecap="round" stroke-linejoin="round"/>
</svg>
