<svg width="24" height="24" viewBox="0 0 24 24" fill="#8F8D8E" stroke="#8F8D8E" xmlns="http://www.w3.org/2000/svg">
<path fill="inherit" stroke="none" d="M4.6683 10.5337L3.96704 9.82077L4.6683 10.5337ZM4.61288 11.9004L3.85621 12.5542L4.61288 11.9004ZM9.13052 4.74168L3.96704 9.82077L5.36956 11.2466L10.533 6.1675L9.13052 4.74168ZM3.85621 12.5542L4.66957 13.4955L6.18292 12.1879L5.36956 11.2466L3.85621 12.5542ZM7.52098 13.6744L7.78505 13.4367L6.44698 11.9502L6.18292 12.1879L7.52098 13.6744ZM7.78505 13.4367V17.5455H9.78505V13.4367H7.78505ZM9.78505 19.5455H14.5V17.5455H9.78505V19.5455ZM7.78505 17.5455C7.78505 18.6501 8.68048 19.5455 9.78505 19.5455V17.5455V17.5455H7.78505ZM7.78505 13.4367L7.78505 13.4367H9.78505C9.78505 11.7051 7.73398 10.7917 6.44698 11.9502L7.78505 13.4367ZM4.66957 13.4955C5.40213 14.3434 6.68821 14.424 7.52098 13.6744L6.18292 12.1879L6.18292 12.1879L4.66957 13.4955ZM3.96704 9.82077C3.21531 10.5602 3.16681 11.7563 3.85621 12.5542L5.36956 11.2466L5.36956 11.2466L3.96704 9.82077Z" />
<path stroke="inherit" d="M14.1818 5.45459V5.45459C13.0909 6.90913 10.9091 6.90913 9.81819 5.45459V5.45459"  stroke-width="2" stroke-linecap="round" stroke-linejoin="round"/>
<rect fill="inherit" stroke="none" x="17" y="19" width="2" height="4" rx="1" />
<rect fill="inherit" stroke="none" x="17" y="13" width="2" height="4" rx="1" />
<rect fill="inherit" stroke="none" x="17" y="7" width="2" height="4" rx="1" />
<rect fill="inherit" stroke="none" x="17" y="1" width="2" height="4" rx="1" />
</svg>
