<svg width="16" height="16" viewBox="0 0 16 16" fill="none" xmlns="http://www.w3.org/2000/svg">
<g clip-path="url(#clip0)">
<path d="M14.7856 10.8571C14.7856 10.8176 14.8175 10.7856 14.857 10.7856C14.8965 10.7856 14.9284 10.8176 14.9284 10.8571V14.2857C14.9284 14.9563 14.3848 15.4999 13.7142 15.4999H2.28557C1.61494 15.4999 1.07129 14.9563 1.07129 14.2857V10.8571C1.07129 10.8176 1.10327 10.7856 1.14273 10.7856C1.18219 10.7856 1.21417 10.8176 1.21417 10.8571V14.2857C1.21417 14.8774 1.69386 15.3571 2.28561 15.3571H13.7141C14.3059 15.3571 14.7856 14.8774 14.7856 14.2857V10.8571Z" fill="#2F2A2C" stroke="#2F2A2C"/>
<path d="M11.2479 9.88171C11.0265 9.66786 10.6754 9.66786 10.454 9.88171L8.57113 11.7634V0.571439C8.57113 0.255837 8.31529 0 7.99969 0C7.68409 0 7.42825 0.255837 7.42825 0.571439V11.7634L5.54653 9.88171C5.31952 9.66247 4.95778 9.66877 4.73854 9.89574C4.52465 10.1172 4.52465 10.4683 4.73854 10.6897L7.59566 13.5468C7.81855 13.7703 8.18036 13.7707 8.40378 13.5479C8.40412 13.5475 8.40445 13.5472 8.40482 13.5468L11.2619 10.6897C11.4812 10.4627 11.4749 10.101 11.2479 9.88171Z" fill="#2F2A2C"/>
</g>
<defs>
<clipPath id="clip0">
<rect width="16" height="16" fill="white"/>
</clipPath>
</defs>
</svg>
