<svg width="32" height="32" viewBox="0 0 32 32" fill="none" xmlns="http://www.w3.org/2000/svg">
<g clip-path="url(#clip0)">
<path d="M31.7147 23.1562C31.6286 23.0122 31.0966 21.8561 28.5364 19.48C25.8562 16.9918 26.2163 17.3958 29.4445 13.0935C31.4106 10.4733 32.1967 8.87317 31.9507 8.18912C31.7167 7.53707 30.2705 7.70908 30.2705 7.70908L25.4622 7.73708C25.4622 7.73708 25.1062 7.68908 24.8401 7.84709C24.5821 8.0031 24.4161 8.36313 24.4161 8.36313C24.4161 8.36313 23.6541 10.3913 22.638 12.1154C20.4958 15.7537 19.6378 15.9457 19.2877 15.7197C18.4737 15.1936 18.6777 13.6035 18.6777 12.4754C18.6777 8.94917 19.2117 7.47906 17.6356 7.09904C17.1116 6.97303 16.7276 6.88902 15.3895 6.87502C13.6733 6.85702 12.2192 6.88102 11.3972 7.28305C10.8491 7.55107 10.4271 8.14911 10.6851 8.18312C11.0031 8.22512 11.7232 8.37713 12.1052 8.89717C12.5992 9.56722 12.5812 11.0753 12.5812 11.0753C12.5812 11.0753 12.8653 15.2256 11.9192 15.7417C11.2692 16.0957 10.3791 15.3736 8.46895 12.0714C7.49087 10.3813 6.75082 8.51114 6.75082 8.51114C6.75082 8.51114 6.60881 8.16312 6.35479 7.9771C6.04677 7.75108 5.61474 7.67908 5.61474 7.67908L1.0424 7.70708C1.0424 7.70708 0.356351 7.72708 0.104332 8.02511C-0.119684 8.29112 0.0863308 8.83916 0.0863308 8.83916C0.0863308 8.83916 3.66659 17.2138 7.71889 21.4361C11.4372 25.3064 15.6575 25.0524 15.6575 25.0524H17.5696C17.5696 25.0524 18.1477 24.9884 18.4417 24.6703C18.7137 24.3783 18.7037 23.8303 18.7037 23.8303C18.7037 23.8303 18.6657 21.2641 19.8578 20.8861C21.0319 20.514 22.54 23.3662 24.1381 24.4643C25.3462 25.2944 26.2643 25.1124 26.2643 25.1124L30.5386 25.0524C30.5386 25.0524 32.7747 24.9144 31.7147 23.1562Z" fill="#5F5B5D"/>
</g>
<defs>
<clipPath id="clip0">
<rect width="32" height="32" fill="white"/>
</clipPath>
</defs>
</svg>
